G04 #@! TF.GenerationSoftware,KiCad,Pcbnew,5.0.2-bee76a0~70~ubuntu18.04.1*
G04 #@! TF.CreationDate,2020-04-21T14:12:21+02:00*
G04 #@! TF.ProjectId,FeuMontagne,4665754d-6f6e-4746-9167-6e652e6b6963,rev?*
G04 #@! TF.SameCoordinates,Original*
G04 #@! TF.FileFunction,Copper,L2,Bot*
G04 #@! TF.FilePolarity,Positive*
%FSLAX46Y46*%
G04 Gerber Fmt 4.6, Leading zero omitted, Abs format (unit mm)*
G04 Created by KiCad (PCBNEW 5.0.2-bee76a0~70~ubuntu18.04.1) date mar. 21 avril 2020 14:12:21 CEST*
%MOMM*%
%LPD*%
G01*
G04 APERTURE LIST*
G04 #@! TA.AperFunction,NonConductor*
%ADD10C,0.150000*%
G04 #@! TD*
G04 #@! TA.AperFunction,ComponentPad*
%ADD11O,1.600000X1.600000*%
G04 #@! TD*
G04 #@! TA.AperFunction,ComponentPad*
%ADD12R,1.600000X1.600000*%
G04 #@! TD*
G04 #@! TA.AperFunction,ComponentPad*
%ADD13R,1.700000X1.700000*%
G04 #@! TD*
G04 #@! TA.AperFunction,ComponentPad*
%ADD14O,1.700000X1.700000*%
G04 #@! TD*
G04 #@! TA.AperFunction,ComponentPad*
%ADD15R,3.000000X3.000000*%
G04 #@! TD*
G04 #@! TA.AperFunction,ComponentPad*
%ADD16C,3.000000*%
G04 #@! TD*
G04 #@! TA.AperFunction,ComponentPad*
%ADD17C,1.800000*%
G04 #@! TD*
G04 #@! TA.AperFunction,ComponentPad*
%ADD18C,5.000000*%
G04 #@! TD*
G04 #@! TA.AperFunction,Conductor*
%ADD19C,0.500000*%
G04 #@! TD*
G04 #@! TA.AperFunction,Conductor*
%ADD20C,0.250000*%
G04 #@! TD*
G04 #@! TA.AperFunction,Conductor*
%ADD21C,0.750000*%
G04 #@! TD*
G04 APERTURE END LIST*
D10*
X169672000Y-73914000D02*
X96266000Y-73914000D01*
X169672000Y-115824000D02*
X169672000Y-73914000D01*
X96266000Y-115824000D02*
X169672000Y-115824000D01*
X96266000Y-73914000D02*
X96266000Y-115824000D01*
D11*
G04 #@! TO.P,D1,2*
G04 #@! TO.N,Net-(D1-Pad2)*
X108712000Y-103632000D03*
D12*
G04 #@! TO.P,D1,1*
G04 #@! TO.N,Net-(D1-Pad1)*
X108712000Y-96012000D03*
G04 #@! TD*
D11*
G04 #@! TO.P,D2,2*
G04 #@! TO.N,Net-(D2-Pad2)*
X112522000Y-103632000D03*
D12*
G04 #@! TO.P,D2,1*
G04 #@! TO.N,Net-(D1-Pad1)*
X112522000Y-96012000D03*
G04 #@! TD*
D11*
G04 #@! TO.P,D3,2*
G04 #@! TO.N,Net-(D3-Pad2)*
X151130000Y-104394000D03*
D12*
G04 #@! TO.P,D3,1*
G04 #@! TO.N,Net-(D3-Pad1)*
X151130000Y-96774000D03*
G04 #@! TD*
G04 #@! TO.P,D4,1*
G04 #@! TO.N,Net-(D4-Pad1)*
X147066000Y-96774000D03*
D11*
G04 #@! TO.P,D4,2*
G04 #@! TO.N,Net-(D4-Pad2)*
X147066000Y-104394000D03*
G04 #@! TD*
D12*
G04 #@! TO.P,D5,1*
G04 #@! TO.N,Net-(D5-Pad1)*
X163322000Y-96774000D03*
D11*
G04 #@! TO.P,D5,2*
G04 #@! TO.N,Net-(D5-Pad2)*
X163322000Y-104394000D03*
G04 #@! TD*
D12*
G04 #@! TO.P,D6,1*
G04 #@! TO.N,Net-(D6-Pad1)*
X159258000Y-96774000D03*
D11*
G04 #@! TO.P,D6,2*
G04 #@! TO.N,Net-(D3-Pad2)*
X159258000Y-104394000D03*
G04 #@! TD*
D12*
G04 #@! TO.P,D7,1*
G04 #@! TO.N,Net-(D3-Pad2)*
X155194000Y-96774000D03*
D11*
G04 #@! TO.P,D7,2*
G04 #@! TO.N,Net-(D4-Pad2)*
X155194000Y-104394000D03*
G04 #@! TD*
D13*
G04 #@! TO.P,K1,1*
G04 #@! TO.N,Net-(K1-Pad1)*
X104140000Y-99060000D03*
D14*
G04 #@! TO.P,K1,2*
G04 #@! TO.N,Net-(K1-Pad2)*
X104140000Y-96520000D03*
G04 #@! TO.P,K1,3*
G04 #@! TO.N,Net-(D2-Pad2)*
X104140000Y-93980000D03*
G04 #@! TO.P,K1,4*
G04 #@! TO.N,Net-(D1-Pad2)*
X104140000Y-91440000D03*
G04 #@! TO.P,K1,5*
G04 #@! TO.N,Net-(K1-Pad5)*
X104140000Y-88900000D03*
G04 #@! TD*
D13*
G04 #@! TO.P,K2,1*
G04 #@! TO.N,Net-(K2-Pad1)*
X113030000Y-111760000D03*
D14*
G04 #@! TO.P,K2,2*
G04 #@! TO.N,Net-(D1-Pad2)*
X110490000Y-111760000D03*
G04 #@! TO.P,K2,3*
G04 #@! TO.N,Net-(D2-Pad2)*
X107950000Y-111760000D03*
G04 #@! TD*
D13*
G04 #@! TO.P,K3,1*
G04 #@! TO.N,Net-(K2-Pad1)*
X123698000Y-111760000D03*
D14*
G04 #@! TO.P,K3,2*
G04 #@! TO.N,Net-(D2-Pad2)*
X121158000Y-111760000D03*
G04 #@! TO.P,K3,3*
G04 #@! TO.N,Net-(D1-Pad2)*
X118618000Y-111760000D03*
G04 #@! TD*
G04 #@! TO.P,K4,3*
G04 #@! TO.N,Net-(K1-Pad2)*
X129286000Y-111760000D03*
G04 #@! TO.P,K4,2*
G04 #@! TO.N,Net-(K1-Pad1)*
X131826000Y-111760000D03*
D13*
G04 #@! TO.P,K4,1*
G04 #@! TO.N,Net-(K2-Pad1)*
X134366000Y-111760000D03*
G04 #@! TD*
D15*
G04 #@! TO.P,K5,1*
G04 #@! TO.N,Net-(K10-Pad4)*
X112268000Y-79502000D03*
D16*
G04 #@! TO.P,K5,2*
G04 #@! TO.N,Net-(K1-Pad5)*
X107188000Y-79502000D03*
G04 #@! TD*
D14*
G04 #@! TO.P,K6,3*
G04 #@! TO.N,Net-(K6-Pad3)*
X152400000Y-79248000D03*
G04 #@! TO.P,K6,2*
G04 #@! TO.N,Net-(K6-Pad2)*
X154940000Y-79248000D03*
D13*
G04 #@! TO.P,K6,1*
G04 #@! TO.N,Net-(K6-Pad1)*
X157480000Y-79248000D03*
G04 #@! TD*
G04 #@! TO.P,K7,1*
G04 #@! TO.N,Net-(K7-Pad1)*
X145796000Y-79248000D03*
D14*
G04 #@! TO.P,K7,2*
X143256000Y-79248000D03*
G04 #@! TO.P,K7,3*
X140716000Y-79248000D03*
G04 #@! TO.P,K7,4*
X138176000Y-79248000D03*
G04 #@! TD*
G04 #@! TO.P,K8,2*
G04 #@! TO.N,Net-(K8-Pad1)*
X129540000Y-79248000D03*
D13*
G04 #@! TO.P,K8,1*
X132080000Y-79248000D03*
G04 #@! TD*
G04 #@! TO.P,K9,1*
G04 #@! TO.N,Net-(K9-Pad1)*
X121412000Y-79248000D03*
D14*
G04 #@! TO.P,K9,2*
X118872000Y-79248000D03*
G04 #@! TD*
G04 #@! TO.P,K10,4*
G04 #@! TO.N,Net-(K10-Pad4)*
X139954000Y-97028000D03*
G04 #@! TO.P,K10,3*
G04 #@! TO.N,Net-(K10-Pad3)*
X139954000Y-99568000D03*
G04 #@! TO.P,K10,2*
G04 #@! TO.N,Net-(K10-Pad2)*
X139954000Y-102108000D03*
D13*
G04 #@! TO.P,K10,1*
G04 #@! TO.N,Net-(K10-Pad1)*
X139954000Y-104648000D03*
G04 #@! TD*
D14*
G04 #@! TO.P,K11,2*
G04 #@! TO.N,Net-(K10-Pad4)*
X143764000Y-108712000D03*
D13*
G04 #@! TO.P,K11,1*
G04 #@! TO.N,Net-(D3-Pad2)*
X146304000Y-108712000D03*
G04 #@! TD*
G04 #@! TO.P,K12,1*
G04 #@! TO.N,Net-(D4-Pad2)*
X162560000Y-108712000D03*
D14*
G04 #@! TO.P,K12,2*
G04 #@! TO.N,Net-(K12-Pad2)*
X160020000Y-108712000D03*
G04 #@! TD*
G04 #@! TO.P,K13,2*
G04 #@! TO.N,Net-(K12-Pad2)*
X150622000Y-108712000D03*
D13*
G04 #@! TO.P,K13,1*
G04 #@! TO.N,Net-(D5-Pad2)*
X153162000Y-108712000D03*
G04 #@! TD*
D17*
G04 #@! TO.P,RLY-A1,1*
G04 #@! TO.N,Net-(D3-Pad1)*
X160528000Y-91948000D03*
G04 #@! TO.P,RLY-A1,2*
G04 #@! TO.N,Net-(D4-Pad1)*
X157988000Y-91948000D03*
G04 #@! TO.P,RLY-A1,4*
G04 #@! TO.N,Net-(RLY-A1-Pad4)*
X152908000Y-91948000D03*
G04 #@! TO.P,RLY-A1,6*
G04 #@! TO.N,Net-(K10-Pad2)*
X147828000Y-91948000D03*
G04 #@! TO.P,RLY-A1,8*
G04 #@! TO.N,Net-(K10-Pad1)*
X142748000Y-91948000D03*
G04 #@! TO.P,RLY-A1,16*
G04 #@! TO.N,Net-(K1-Pad5)*
X160528000Y-84328000D03*
G04 #@! TO.P,RLY-A1,15*
X157988000Y-84328000D03*
G04 #@! TO.P,RLY-A1,13*
G04 #@! TO.N,Net-(K6-Pad1)*
X152908000Y-84328000D03*
G04 #@! TO.P,RLY-A1,11*
G04 #@! TO.N,Net-(K6-Pad2)*
X147828000Y-84328000D03*
G04 #@! TO.P,RLY-A1,9*
G04 #@! TO.N,Net-(K6-Pad3)*
X142748000Y-84328000D03*
G04 #@! TD*
G04 #@! TO.P,RLY-B1,9*
G04 #@! TO.N,Net-(RLY-B1-Pad9)*
X117094000Y-97028000D03*
G04 #@! TO.P,RLY-B1,11*
G04 #@! TO.N,Net-(RLY-B1-Pad11)*
X122174000Y-97028000D03*
G04 #@! TO.P,RLY-B1,13*
G04 #@! TO.N,Net-(K7-Pad1)*
X127254000Y-97028000D03*
G04 #@! TO.P,RLY-B1,15*
G04 #@! TO.N,Net-(K1-Pad5)*
X132334000Y-97028000D03*
G04 #@! TO.P,RLY-B1,16*
X134874000Y-97028000D03*
G04 #@! TO.P,RLY-B1,8*
G04 #@! TO.N,Net-(K10-Pad3)*
X117094000Y-104648000D03*
G04 #@! TO.P,RLY-B1,6*
G04 #@! TO.N,Net-(RLY-A1-Pad4)*
X122174000Y-104648000D03*
G04 #@! TO.P,RLY-B1,4*
G04 #@! TO.N,Net-(K1-Pad5)*
X127254000Y-104648000D03*
G04 #@! TO.P,RLY-B1,2*
G04 #@! TO.N,Net-(D6-Pad1)*
X132334000Y-104648000D03*
G04 #@! TO.P,RLY-B1,1*
G04 #@! TO.N,Net-(D5-Pad1)*
X134874000Y-104648000D03*
G04 #@! TD*
G04 #@! TO.P,RLY-C1,9*
G04 #@! TO.N,Net-(RLY-C1-Pad9)*
X117094000Y-84328000D03*
G04 #@! TO.P,RLY-C1,11*
G04 #@! TO.N,Net-(RLY-C1-Pad11)*
X122174000Y-84328000D03*
G04 #@! TO.P,RLY-C1,13*
G04 #@! TO.N,Net-(RLY-C1-Pad13)*
X127254000Y-84328000D03*
G04 #@! TO.P,RLY-C1,15*
G04 #@! TO.N,Net-(K1-Pad5)*
X132334000Y-84328000D03*
G04 #@! TO.P,RLY-C1,16*
X134874000Y-84328000D03*
G04 #@! TO.P,RLY-C1,8*
G04 #@! TO.N,Net-(K9-Pad1)*
X117094000Y-91948000D03*
G04 #@! TO.P,RLY-C1,6*
G04 #@! TO.N,Net-(K8-Pad1)*
X122174000Y-91948000D03*
G04 #@! TO.P,RLY-C1,4*
G04 #@! TO.N,Net-(RLY-B1-Pad9)*
X127254000Y-91948000D03*
G04 #@! TO.P,RLY-C1,2*
G04 #@! TO.N,Net-(RLY-C1-Pad2)*
X132334000Y-91948000D03*
G04 #@! TO.P,RLY-C1,1*
G04 #@! TO.N,Net-(D1-Pad1)*
X134874000Y-91948000D03*
G04 #@! TD*
D18*
G04 #@! TO.P,REF\002A\002A,1*
G04 #@! TO.N,N/C*
X100330000Y-111760000D03*
G04 #@! TD*
G04 #@! TO.P,REF\002A\002A,1*
G04 #@! TO.N,N/C*
X100330000Y-77978000D03*
G04 #@! TD*
G04 #@! TO.P,REF\002A\002A,1*
G04 #@! TO.N,N/C*
X165354000Y-77978000D03*
G04 #@! TD*
D19*
G04 #@! TO.N,Net-(D1-Pad2)*
X110490000Y-108458000D02*
X110490000Y-109220000D01*
X110490000Y-109220000D02*
X110490000Y-111760000D01*
X106680000Y-113792000D02*
X106172000Y-113284000D01*
X106172000Y-113284000D02*
X106172000Y-112014000D01*
X104140000Y-91440000D02*
X101854000Y-91440000D01*
X101854000Y-91440000D02*
X99822000Y-93472000D01*
X99822000Y-93472000D02*
X99822000Y-102362000D01*
X99822000Y-102362000D02*
X101092000Y-103632000D01*
X101092000Y-103632000D02*
X104902000Y-103632000D01*
X110490000Y-111760000D02*
X110490000Y-113030000D01*
X109728000Y-113792000D02*
X106680000Y-113792000D01*
X110490000Y-113030000D02*
X109728000Y-113792000D01*
X108712000Y-103632000D02*
X108712000Y-103886000D01*
X110490000Y-105664000D02*
X110490000Y-108458000D01*
X108712000Y-103886000D02*
X110490000Y-105664000D01*
X117094000Y-111760000D02*
X114554000Y-109220000D01*
X114554000Y-109220000D02*
X110490000Y-109220000D01*
X118618000Y-111760000D02*
X117094000Y-111760000D01*
X106172000Y-112014000D02*
X106172000Y-104902000D01*
X106172000Y-104902000D02*
X104902000Y-103632000D01*
G04 #@! TO.N,Net-(D1-Pad1)*
X134874000Y-91948000D02*
X134874000Y-93218000D01*
X123444000Y-99060000D02*
X118110000Y-99060000D01*
X124206000Y-98298000D02*
X123444000Y-99060000D01*
X124206000Y-95758000D02*
X124206000Y-98298000D01*
X125730000Y-94234000D02*
X124206000Y-95758000D01*
X133858000Y-94234000D02*
X125730000Y-94234000D01*
X134874000Y-93218000D02*
X133858000Y-94234000D01*
X118110000Y-99060000D02*
X116332000Y-99060000D01*
X113284000Y-96012000D02*
X112522000Y-96012000D01*
X115062000Y-97790000D02*
X113284000Y-96012000D01*
X116332000Y-99060000D02*
X115062000Y-97790000D01*
X108712000Y-96012000D02*
X112522000Y-96012000D01*
G04 #@! TO.N,Net-(D2-Pad2)*
X121158000Y-110998000D02*
X121158000Y-111760000D01*
X121158000Y-111760000D02*
X121158000Y-110998000D01*
X121158000Y-110998000D02*
X119634000Y-109474000D01*
X119634000Y-109474000D02*
X116332000Y-109474000D01*
X116332000Y-109474000D02*
X112522000Y-105664000D01*
X107188000Y-102616000D02*
X107188000Y-102362000D01*
X112522000Y-102616000D02*
X111506000Y-101600000D01*
X111506000Y-101600000D02*
X107950000Y-101600000D01*
X107950000Y-101600000D02*
X107188000Y-102362000D01*
X112522000Y-103632000D02*
X112522000Y-102616000D01*
X104140000Y-93980000D02*
X101854000Y-93980000D01*
X101600000Y-102616000D02*
X107188000Y-102616000D01*
X100838000Y-101854000D02*
X101600000Y-102616000D01*
X100838000Y-94996000D02*
X100838000Y-101854000D01*
X101854000Y-93980000D02*
X100838000Y-94996000D01*
X112522000Y-105664000D02*
X112522000Y-103632000D01*
X107950000Y-111760000D02*
X107950000Y-109474000D01*
X107188000Y-108712000D02*
X107188000Y-102616000D01*
X107950000Y-109474000D02*
X107188000Y-108712000D01*
G04 #@! TO.N,Net-(D3-Pad2)*
X159258000Y-102362000D02*
X159258000Y-104394000D01*
X157734000Y-100838000D02*
X159258000Y-102362000D01*
X145542000Y-100838000D02*
X151130000Y-100838000D01*
X151130000Y-100838000D02*
X155194000Y-100838000D01*
X155194000Y-100838000D02*
X157734000Y-100838000D01*
X144780000Y-101600000D02*
X145542000Y-100838000D01*
X144780000Y-103124000D02*
X144780000Y-101600000D01*
X151130000Y-104394000D02*
X151130000Y-100838000D01*
X155194000Y-96774000D02*
X155194000Y-100838000D01*
X146304000Y-108712000D02*
X146304000Y-107442000D01*
X144780000Y-105918000D02*
X144780000Y-103124000D01*
X146304000Y-107442000D02*
X144780000Y-105918000D01*
G04 #@! TO.N,Net-(D3-Pad1)*
X151130000Y-96774000D02*
X151130000Y-95758000D01*
X157480000Y-94996000D02*
X160528000Y-91948000D01*
X151892000Y-94996000D02*
X157480000Y-94996000D01*
X151130000Y-95758000D02*
X151892000Y-94996000D01*
G04 #@! TO.N,Net-(D4-Pad1)*
X157988000Y-91948000D02*
X155702000Y-91948000D01*
X155702000Y-91948000D02*
X153924000Y-93726000D01*
X153924000Y-93726000D02*
X150622000Y-93726000D01*
X150622000Y-93726000D02*
X148336000Y-96012000D01*
X148336000Y-96012000D02*
X147066000Y-96774000D01*
G04 #@! TO.N,Net-(D4-Pad2)*
X155194000Y-104394000D02*
X155194000Y-104902000D01*
X147066000Y-104394000D02*
X147066000Y-105410000D01*
X147574000Y-105918000D02*
X155194000Y-105918000D01*
X147066000Y-105410000D02*
X147574000Y-105918000D01*
X155194000Y-105918000D02*
X161798000Y-105918000D01*
X162560000Y-106680000D02*
X162560000Y-108712000D01*
X161798000Y-105918000D02*
X162560000Y-106680000D01*
X155194000Y-104394000D02*
X155194000Y-105918000D01*
G04 #@! TO.N,Net-(D5-Pad1)*
X163322000Y-96774000D02*
X163322000Y-100584000D01*
X163322000Y-100584000D02*
X165608000Y-102870000D01*
X165608000Y-102870000D02*
X165608000Y-110236000D01*
X134874000Y-104648000D02*
X135445500Y-104711500D01*
X142494000Y-111760000D02*
X135445500Y-104711500D01*
X165608000Y-110236000D02*
X165608000Y-110744000D01*
X164592000Y-111760000D02*
X142494000Y-111760000D01*
X165608000Y-110744000D02*
X164592000Y-111760000D01*
G04 #@! TO.N,Net-(D5-Pad2)*
X164592000Y-105664000D02*
X163322000Y-104394000D01*
X164592000Y-110236000D02*
X164592000Y-105664000D01*
X153162000Y-108712000D02*
X153162000Y-110236000D01*
X164084000Y-110744000D02*
X164592000Y-110236000D01*
X153670000Y-110744000D02*
X164084000Y-110744000D01*
X153162000Y-110236000D02*
X153670000Y-110744000D01*
D20*
G04 #@! TO.N,Net-(D6-Pad1)*
X132334000Y-105219500D02*
X132334000Y-104648000D01*
X132334000Y-104648000D02*
X132334000Y-105219500D01*
D19*
X159258000Y-96774000D02*
X159258000Y-95504000D01*
X159766000Y-94996000D02*
X163068000Y-94996000D01*
X159258000Y-95504000D02*
X159766000Y-94996000D01*
X166624000Y-103124000D02*
X166624000Y-111252000D01*
X166624000Y-103124000D02*
X166624000Y-102616000D01*
X166624000Y-111506000D02*
X165354000Y-112776000D01*
X165354000Y-112776000D02*
X141986000Y-112776000D01*
X166624000Y-111252000D02*
X166624000Y-111506000D01*
X137160000Y-107950000D02*
X136398000Y-107188000D01*
X141986000Y-112776000D02*
X137160000Y-107950000D01*
X132334000Y-104648000D02*
X132334000Y-105410000D01*
X132334000Y-105410000D02*
X133350000Y-106426000D01*
X133350000Y-106426000D02*
X134112000Y-107188000D01*
X134112000Y-107188000D02*
X135382000Y-107188000D01*
X135382000Y-107188000D02*
X136398000Y-107188000D01*
X136398000Y-107188000D02*
X135382000Y-107188000D01*
X163068000Y-94996000D02*
X165354000Y-94996000D01*
X166624000Y-96266000D02*
X166624000Y-102616000D01*
X165354000Y-94996000D02*
X166624000Y-96266000D01*
G04 #@! TO.N,Net-(K1-Pad1)*
X117602000Y-107442000D02*
X116840000Y-106680000D01*
X129794000Y-108458000D02*
X131826000Y-110490000D01*
X131826000Y-110490000D02*
X131826000Y-111760000D01*
X128270000Y-108458000D02*
X129794000Y-108458000D01*
X119126000Y-107442000D02*
X117602000Y-107442000D01*
X120904000Y-107442000D02*
X119126000Y-107442000D01*
X120904000Y-107442000D02*
X121920000Y-107442000D01*
X122936000Y-108458000D02*
X128270000Y-108458000D01*
X121920000Y-107442000D02*
X122936000Y-108458000D01*
X104140000Y-99060000D02*
X110744000Y-99060000D01*
X112776000Y-99060000D02*
X110744000Y-99060000D01*
X115316000Y-101600000D02*
X112776000Y-99060000D01*
X116840000Y-106680000D02*
X115570000Y-105410000D01*
X115316000Y-105156000D02*
X115316000Y-101600000D01*
X115570000Y-105410000D02*
X115316000Y-105156000D01*
G04 #@! TO.N,Net-(K1-Pad2)*
X119380000Y-108458000D02*
X118618000Y-108458000D01*
X107442000Y-100330000D02*
X106172000Y-101600000D01*
X109220000Y-100330000D02*
X107442000Y-100330000D01*
X128016000Y-109474000D02*
X129286000Y-110744000D01*
X129286000Y-110744000D02*
X129286000Y-111760000D01*
X123952000Y-109474000D02*
X128016000Y-109474000D01*
X114300000Y-102362000D02*
X112268000Y-100330000D01*
X112268000Y-100330000D02*
X109220000Y-100330000D01*
X122428000Y-109474000D02*
X123952000Y-109474000D01*
X121412000Y-108458000D02*
X122428000Y-109474000D01*
X119380000Y-108458000D02*
X121412000Y-108458000D01*
X116840000Y-108458000D02*
X116332000Y-107950000D01*
X118618000Y-108458000D02*
X116840000Y-108458000D01*
X102616000Y-101600000D02*
X106172000Y-101600000D01*
X101854000Y-100838000D02*
X102616000Y-101600000D01*
X101854000Y-97790000D02*
X101854000Y-100838000D01*
X104140000Y-96520000D02*
X102362000Y-96520000D01*
X101854000Y-97028000D02*
X101854000Y-97790000D01*
X102362000Y-96520000D02*
X101854000Y-97028000D01*
X116332000Y-107950000D02*
X114300000Y-105918000D01*
X114300000Y-105918000D02*
X114300000Y-102362000D01*
G04 #@! TO.N,Net-(K2-Pad1)*
X114046000Y-114300000D02*
X120904000Y-114300000D01*
X120904000Y-114300000D02*
X123698000Y-114300000D01*
X123698000Y-114300000D02*
X131064000Y-114300000D01*
X123698000Y-111760000D02*
X123698000Y-114300000D01*
X134366000Y-111760000D02*
X134366000Y-113538000D01*
X133604000Y-114300000D02*
X131064000Y-114300000D01*
X134366000Y-113538000D02*
X133604000Y-114300000D01*
X113030000Y-111760000D02*
X113030000Y-113284000D01*
X113030000Y-113284000D02*
X114046000Y-114300000D01*
D21*
G04 #@! TO.N,Net-(K10-Pad4)*
X113030000Y-76708000D02*
X136144000Y-76708000D01*
X138176000Y-98552000D02*
X138176000Y-105918000D01*
X139192000Y-106934000D02*
X138176000Y-105918000D01*
X140970000Y-106934000D02*
X139192000Y-106934000D01*
X143764000Y-107442000D02*
X143256000Y-106934000D01*
X143256000Y-106934000D02*
X140970000Y-106934000D01*
X143764000Y-108712000D02*
X143764000Y-107442000D01*
D19*
X147066000Y-81280000D02*
X141986000Y-81280000D01*
X141986000Y-81280000D02*
X141478000Y-81280000D01*
X139954000Y-97028000D02*
X139700000Y-97028000D01*
D21*
X139700000Y-97028000D02*
X138176000Y-98552000D01*
D19*
X138176000Y-98552000D02*
X138176000Y-105918000D01*
X138176000Y-105918000D02*
X139192000Y-106934000D01*
D21*
X136144000Y-76708000D02*
X147320000Y-76708000D01*
X148082000Y-80264000D02*
X147066000Y-81280000D01*
X148082000Y-77470000D02*
X148082000Y-80264000D01*
X147320000Y-76708000D02*
X148082000Y-77470000D01*
X147066000Y-81280000D02*
X141478000Y-81280000D01*
X112268000Y-79502000D02*
X112268000Y-77470000D01*
X112268000Y-77470000D02*
X113030000Y-76708000D01*
X141986000Y-81280000D02*
X140462000Y-81280000D01*
X138938000Y-96012000D02*
X139954000Y-97028000D01*
X138938000Y-82804000D02*
X138938000Y-96012000D01*
X140462000Y-81280000D02*
X138938000Y-82804000D01*
D19*
G04 #@! TO.N,Net-(K6-Pad3)*
X142748000Y-84328000D02*
X142748000Y-83820000D01*
X150622000Y-79248000D02*
X152400000Y-79248000D01*
X147574000Y-82296000D02*
X150622000Y-79248000D01*
X144272000Y-82296000D02*
X147574000Y-82296000D01*
X142748000Y-83820000D02*
X144272000Y-82296000D01*
G04 #@! TO.N,Net-(K6-Pad2)*
X147828000Y-84328000D02*
X147828000Y-83566000D01*
X154940000Y-80518000D02*
X154940000Y-79248000D01*
X153924000Y-81534000D02*
X154940000Y-80518000D01*
X149860000Y-81534000D02*
X153924000Y-81534000D01*
X147828000Y-83566000D02*
X149860000Y-81534000D01*
G04 #@! TO.N,Net-(K6-Pad1)*
X152908000Y-84328000D02*
X153924000Y-84328000D01*
X157480000Y-80772000D02*
X157480000Y-79248000D01*
X153924000Y-84328000D02*
X157480000Y-80772000D01*
G04 #@! TO.N,Net-(K7-Pad1)*
X145796000Y-79248000D02*
X143256000Y-79248000D01*
X143256000Y-79248000D02*
X140716000Y-79248000D01*
X140716000Y-79248000D02*
X138176000Y-79248000D01*
X127254000Y-97028000D02*
X129540000Y-99314000D01*
X129540000Y-99314000D02*
X135636000Y-99314000D01*
X135636000Y-99314000D02*
X137922000Y-97028000D01*
X138176000Y-79756000D02*
X138176000Y-79248000D01*
X137922000Y-80010000D02*
X138176000Y-79756000D01*
X137922000Y-80264000D02*
X137922000Y-80010000D01*
X137922000Y-80772000D02*
X137922000Y-80264000D01*
X137922000Y-81788000D02*
X137922000Y-80772000D01*
X137922000Y-90424000D02*
X137922000Y-81788000D01*
X137922000Y-91948000D02*
X137922000Y-90424000D01*
X137922000Y-97028000D02*
X137922000Y-91948000D01*
G04 #@! TO.N,Net-(K8-Pad1)*
X129540000Y-79248000D02*
X132080000Y-79248000D01*
X122174000Y-91948000D02*
X122174000Y-90170000D01*
X127000000Y-79248000D02*
X129540000Y-79248000D01*
X124968000Y-81280000D02*
X127000000Y-79248000D01*
X124968000Y-87376000D02*
X124968000Y-81280000D01*
X122174000Y-90170000D02*
X124968000Y-87376000D01*
G04 #@! TO.N,Net-(K9-Pad1)*
X117094000Y-91948000D02*
X117348000Y-91948000D01*
X117348000Y-80772000D02*
X118872000Y-79248000D01*
X117348000Y-89662000D02*
X117348000Y-80772000D01*
X117348000Y-91948000D02*
X117348000Y-89662000D01*
X118872000Y-79248000D02*
X121412000Y-79248000D01*
G04 #@! TO.N,Net-(K10-Pad3)*
X161290000Y-88646000D02*
X151384000Y-88646000D01*
X151384000Y-88646000D02*
X144780000Y-88646000D01*
X143510000Y-88646000D02*
X144780000Y-88646000D01*
X141986000Y-88646000D02*
X143510000Y-88646000D01*
X140716000Y-89916000D02*
X141986000Y-88646000D01*
X168656000Y-100838000D02*
X168656000Y-112522000D01*
X168656000Y-100838000D02*
X168656000Y-100584000D01*
X168656000Y-112776000D02*
X166624000Y-114808000D01*
X166624000Y-114808000D02*
X140462000Y-114808000D01*
X168656000Y-112522000D02*
X168656000Y-112776000D01*
X132588000Y-109474000D02*
X135128000Y-109474000D01*
X135128000Y-109474000D02*
X135382000Y-109728000D01*
X131064000Y-107950000D02*
X132588000Y-109474000D01*
X130556000Y-107442000D02*
X131064000Y-107950000D01*
X125476000Y-107442000D02*
X130556000Y-107442000D01*
X125476000Y-107442000D02*
X124460000Y-107442000D01*
X124460000Y-107442000D02*
X123444000Y-107442000D01*
X123444000Y-107442000D02*
X122428000Y-106426000D01*
X122428000Y-106426000D02*
X118110000Y-106426000D01*
X118110000Y-106426000D02*
X116395500Y-104711500D01*
X116395500Y-104711500D02*
X117094000Y-104648000D01*
X140462000Y-114808000D02*
X135382000Y-109728000D01*
X141732000Y-94234000D02*
X140716000Y-93218000D01*
X141732000Y-96774000D02*
X141732000Y-94234000D01*
X140716000Y-93218000D02*
X140716000Y-89916000D01*
X141732000Y-99060000D02*
X141732000Y-96774000D01*
X141224000Y-99568000D02*
X141732000Y-99060000D01*
X139954000Y-99568000D02*
X141224000Y-99568000D01*
X161290000Y-88646000D02*
X166370000Y-88646000D01*
X168656000Y-90932000D02*
X168656000Y-100584000D01*
X166370000Y-88646000D02*
X168656000Y-90932000D01*
G04 #@! TO.N,Net-(K10-Pad2)*
X142748000Y-95758000D02*
X146558000Y-91948000D01*
X142748000Y-99822000D02*
X142748000Y-95758000D01*
X142748000Y-101092000D02*
X142748000Y-99822000D01*
X146558000Y-91948000D02*
X147828000Y-91948000D01*
X141732000Y-102108000D02*
X142748000Y-101092000D01*
X139954000Y-102108000D02*
X141732000Y-102108000D01*
G04 #@! TO.N,Net-(K10-Pad1)*
X144780000Y-89916000D02*
X142748000Y-91948000D01*
X146558000Y-93726000D02*
X149098000Y-93726000D01*
X149098000Y-93726000D02*
X150114000Y-92710000D01*
X150114000Y-92710000D02*
X150114000Y-90678000D01*
X150114000Y-90678000D02*
X149352000Y-89916000D01*
X149352000Y-89916000D02*
X144780000Y-89916000D01*
X144526000Y-95758000D02*
X146558000Y-93726000D01*
X143764000Y-96520000D02*
X144526000Y-95758000D01*
X143764000Y-102362000D02*
X143764000Y-96520000D01*
X143764000Y-103886000D02*
X143764000Y-102362000D01*
X143002000Y-104648000D02*
X143764000Y-103886000D01*
X139954000Y-104648000D02*
X143002000Y-104648000D01*
G04 #@! TO.N,Net-(K12-Pad2)*
X151384000Y-106934000D02*
X159258000Y-106934000D01*
X150622000Y-108712000D02*
X150622000Y-107696000D01*
X150622000Y-107696000D02*
X151384000Y-106934000D01*
X160020000Y-108712000D02*
X160020000Y-107696000D01*
X160020000Y-107696000D02*
X159258000Y-106934000D01*
X159258000Y-106934000D02*
X151384000Y-106934000D01*
X151384000Y-106934000D02*
X150622000Y-107696000D01*
X150622000Y-107696000D02*
X150622000Y-108712000D01*
G04 #@! TO.N,Net-(RLY-A1-Pad4)*
X152908000Y-91186000D02*
X154178000Y-89916000D01*
X152908000Y-91948000D02*
X152908000Y-91186000D01*
X154178000Y-89916000D02*
X160782000Y-89916000D01*
X167640000Y-101854000D02*
X167640000Y-111760000D01*
X140716000Y-113284000D02*
X135890000Y-108458000D01*
X122491500Y-104711500D02*
X122174000Y-104648000D01*
X124206000Y-106426000D02*
X122491500Y-104711500D01*
X127000000Y-106426000D02*
X124206000Y-106426000D01*
X127000000Y-106426000D02*
X131318000Y-106426000D01*
X131318000Y-106426000D02*
X132334000Y-107442000D01*
X132334000Y-107442000D02*
X133096000Y-108204000D01*
X135636000Y-108204000D02*
X135890000Y-108458000D01*
X133096000Y-108204000D02*
X135636000Y-108204000D01*
X167640000Y-111760000D02*
X167640000Y-112014000D01*
X165862000Y-113792000D02*
X142240000Y-113792000D01*
X167640000Y-112014000D02*
X165862000Y-113792000D01*
X142240000Y-113792000D02*
X141224000Y-113792000D01*
X141224000Y-113792000D02*
X140716000Y-113284000D01*
X160782000Y-89916000D02*
X165608000Y-89916000D01*
X167640000Y-91948000D02*
X167640000Y-101854000D01*
X165608000Y-89916000D02*
X167640000Y-91948000D01*
G04 #@! TO.N,Net-(RLY-B1-Pad9)*
X117094000Y-97028000D02*
X117094000Y-96266000D01*
X125476000Y-91948000D02*
X127254000Y-91948000D01*
X122936000Y-94488000D02*
X125476000Y-91948000D01*
X118872000Y-94488000D02*
X122936000Y-94488000D01*
X117094000Y-96266000D02*
X118872000Y-94488000D01*
D21*
G04 #@! TO.N,Net-(K1-Pad5)*
X134874000Y-84328000D02*
X132334000Y-84328000D01*
X160528000Y-84328000D02*
X157988000Y-84328000D01*
X108966000Y-75184000D02*
X155956000Y-75184000D01*
X160528000Y-84328000D02*
X160528000Y-76962000D01*
X158750000Y-75184000D02*
X155956000Y-75184000D01*
X160528000Y-76962000D02*
X158750000Y-75184000D01*
X134874000Y-97028000D02*
X132334000Y-97028000D01*
X107188000Y-97790000D02*
X106426000Y-97028000D01*
X106426000Y-97028000D02*
X106426000Y-94488000D01*
X108204000Y-97790000D02*
X107188000Y-97790000D01*
X115570000Y-100076000D02*
X113284000Y-97790000D01*
X113284000Y-97790000D02*
X108204000Y-97790000D01*
X125476000Y-97282000D02*
X125476000Y-100838000D01*
X115570000Y-100076000D02*
X116332000Y-100838000D01*
X116332000Y-100838000D02*
X125476000Y-100838000D01*
X132334000Y-96012000D02*
X132334000Y-97028000D01*
X127762000Y-95250000D02*
X131572000Y-95250000D01*
X131572000Y-95250000D02*
X132334000Y-96012000D01*
X127762000Y-95250000D02*
X126492000Y-95250000D01*
X125476000Y-96266000D02*
X125476000Y-97282000D01*
X126492000Y-95250000D02*
X125476000Y-96266000D01*
X134874000Y-97028000D02*
X136652000Y-95250000D01*
X136652000Y-95250000D02*
X136906000Y-94996000D01*
X136906000Y-94996000D02*
X136906000Y-85598000D01*
X136906000Y-85598000D02*
X135636000Y-84328000D01*
X135636000Y-84328000D02*
X134874000Y-84328000D01*
X107188000Y-79502000D02*
X107188000Y-76962000D01*
X107188000Y-76962000D02*
X108966000Y-75184000D01*
D19*
X127254000Y-104648000D02*
X126746000Y-104648000D01*
D21*
X125476000Y-103378000D02*
X125476000Y-97282000D01*
X126746000Y-104648000D02*
X125476000Y-103378000D01*
X107188000Y-79502000D02*
X107188000Y-88900000D01*
X107188000Y-88900000D02*
X107188000Y-93726000D01*
X107188000Y-93726000D02*
X106426000Y-94488000D01*
X104140000Y-88900000D02*
X107188000Y-88900000D01*
X107188000Y-88900000D02*
X106934000Y-88900000D01*
X106934000Y-88900000D02*
X107188000Y-88900000D01*
G04 #@! TD*
M02*
