M48
;DRILL file {KiCad 5.0.2-bee76a0~70~ubuntu18.04.1} date mar. 21 avril 2020 14:12:55 CEST
;FORMAT={-:-/ absolute / inch / decimal}
FMAT,2
INCH,TZ
T1C0.0300
T2C0.0315
T3C0.0394
T4C0.0598
T5C0.1260
%
G90
G05
T1
X4.61Y-3.82
X4.61Y-4.12
X4.81Y-3.82
X4.81Y-4.12
X5.01Y-3.82
X5.01Y-4.12
X5.21Y-3.82
X5.21Y-4.12
X5.31Y-3.82
X5.31Y-4.12
X5.62Y-3.32
X5.62Y-3.62
X5.82Y-3.32
X5.82Y-3.62
X6.02Y-3.32
X6.02Y-3.62
X6.22Y-3.32
X6.22Y-3.62
X6.32Y-3.32
X6.32Y-3.62
X4.61Y-3.32
X4.61Y-3.62
X4.81Y-3.32
X4.81Y-3.62
X5.01Y-3.32
X5.01Y-3.62
X5.21Y-3.32
X5.21Y-3.62
X5.31Y-3.32
X5.31Y-3.62
T2
X5.95Y-3.81
X5.95Y-4.11
X6.43Y-3.81
X6.43Y-4.11
X6.11Y-3.81
X6.11Y-4.11
X4.43Y-3.78
X4.43Y-4.08
X6.27Y-3.81
X6.27Y-4.11
X4.28Y-3.78
X4.28Y-4.08
X5.79Y-3.81
X5.79Y-4.11
T3
X6.Y-3.12
X6.1Y-3.12
X6.2Y-3.12
X4.25Y-4.4
X4.35Y-4.4
X4.45Y-4.4
X6.3Y-4.28
X6.4Y-4.28
X4.68Y-3.12
X4.78Y-3.12
X5.66Y-4.28
X5.76Y-4.28
X4.1Y-3.5
X4.1Y-3.6
X4.1Y-3.7
X4.1Y-3.8
X4.1Y-3.9
X4.67Y-4.4
X4.77Y-4.4
X4.87Y-4.4
X5.44Y-3.12
X5.54Y-3.12
X5.64Y-3.12
X5.74Y-3.12
X5.51Y-3.82
X5.51Y-3.92
X5.51Y-4.02
X5.51Y-4.12
X5.09Y-4.4
X5.19Y-4.4
X5.29Y-4.4
X5.1Y-3.12
X5.2Y-3.12
X5.93Y-4.28
X6.03Y-4.28
T4
X4.22Y-3.13
X4.42Y-3.13
T5
X3.95Y-4.4
X3.95Y-3.07
X6.51Y-3.07
T0
M30
