G04 #@! TF.GenerationSoftware,KiCad,Pcbnew,5.0.2-bee76a0~70~ubuntu18.04.1*
G04 #@! TF.CreationDate,2020-04-21T14:12:21+02:00*
G04 #@! TF.ProjectId,FeuMontagne,4665754d-6f6e-4746-9167-6e652e6b6963,rev?*
G04 #@! TF.SameCoordinates,Original*
G04 #@! TF.FileFunction,Soldermask,Top*
G04 #@! TF.FilePolarity,Negative*
%FSLAX46Y46*%
G04 Gerber Fmt 4.6, Leading zero omitted, Abs format (unit mm)*
G04 Created by KiCad (PCBNEW 5.0.2-bee76a0~70~ubuntu18.04.1) date mar. 21 avril 2020 14:12:21 CEST*
%MOMM*%
%LPD*%
G01*
G04 APERTURE LIST*
%ADD10C,0.150000*%
G04 APERTURE END LIST*
D10*
X169672000Y-73914000D02*
X96266000Y-73914000D01*
X169672000Y-115824000D02*
X169672000Y-73914000D01*
X96266000Y-115824000D02*
X169672000Y-115824000D01*
X96266000Y-73914000D02*
X96266000Y-115824000D01*
G36*
X101074096Y-109307033D02*
X101074098Y-109307034D01*
X101074099Y-109307034D01*
X101538352Y-109499333D01*
X101954284Y-109777250D01*
X101956171Y-109778511D01*
X102311489Y-110133829D01*
X102311491Y-110133832D01*
X102590667Y-110551648D01*
X102779371Y-111007222D01*
X102782967Y-111015904D01*
X102881000Y-111508747D01*
X102881000Y-112011253D01*
X102862061Y-112106467D01*
X102782966Y-112504099D01*
X102590667Y-112968352D01*
X102312750Y-113384284D01*
X102311489Y-113386171D01*
X101956171Y-113741489D01*
X101956168Y-113741491D01*
X101538352Y-114020667D01*
X101074099Y-114212966D01*
X101074098Y-114212966D01*
X101074096Y-114212967D01*
X100581253Y-114311000D01*
X100078747Y-114311000D01*
X99585904Y-114212967D01*
X99585902Y-114212966D01*
X99585901Y-114212966D01*
X99121648Y-114020667D01*
X98703832Y-113741491D01*
X98703829Y-113741489D01*
X98348511Y-113386171D01*
X98347250Y-113384284D01*
X98069333Y-112968352D01*
X97877034Y-112504099D01*
X97797940Y-112106467D01*
X97779000Y-112011253D01*
X97779000Y-111508747D01*
X97877033Y-111015904D01*
X97880629Y-111007222D01*
X98069333Y-110551648D01*
X98348509Y-110133832D01*
X98348511Y-110133829D01*
X98703829Y-109778511D01*
X98705716Y-109777250D01*
X99121648Y-109499333D01*
X99585901Y-109307034D01*
X99585902Y-109307034D01*
X99585904Y-109307033D01*
X100078747Y-109209000D01*
X100581253Y-109209000D01*
X101074096Y-109307033D01*
X101074096Y-109307033D01*
G37*
G36*
X135267000Y-112661000D02*
X133465000Y-112661000D01*
X133465000Y-110859000D01*
X135267000Y-110859000D01*
X135267000Y-112661000D01*
X135267000Y-112661000D01*
G37*
G36*
X131936442Y-110865518D02*
X132002627Y-110872037D01*
X132115853Y-110906384D01*
X132172467Y-110923557D01*
X132311087Y-110997652D01*
X132328991Y-111007222D01*
X132364729Y-111036552D01*
X132466186Y-111119814D01*
X132549448Y-111221271D01*
X132578778Y-111257009D01*
X132578779Y-111257011D01*
X132662443Y-111413533D01*
X132662443Y-111413534D01*
X132713963Y-111583373D01*
X132731359Y-111760000D01*
X132713963Y-111936627D01*
X132691326Y-112011252D01*
X132662443Y-112106467D01*
X132588348Y-112245087D01*
X132578778Y-112262991D01*
X132549448Y-112298729D01*
X132466186Y-112400186D01*
X132364729Y-112483448D01*
X132328991Y-112512778D01*
X132328989Y-112512779D01*
X132172467Y-112596443D01*
X132115853Y-112613616D01*
X132002627Y-112647963D01*
X131936442Y-112654482D01*
X131870260Y-112661000D01*
X131781740Y-112661000D01*
X131715558Y-112654482D01*
X131649373Y-112647963D01*
X131536147Y-112613616D01*
X131479533Y-112596443D01*
X131323011Y-112512779D01*
X131323009Y-112512778D01*
X131287271Y-112483448D01*
X131185814Y-112400186D01*
X131102552Y-112298729D01*
X131073222Y-112262991D01*
X131063652Y-112245087D01*
X130989557Y-112106467D01*
X130960674Y-112011252D01*
X130938037Y-111936627D01*
X130920641Y-111760000D01*
X130938037Y-111583373D01*
X130989557Y-111413534D01*
X130989557Y-111413533D01*
X131073221Y-111257011D01*
X131073222Y-111257009D01*
X131102552Y-111221271D01*
X131185814Y-111119814D01*
X131287271Y-111036552D01*
X131323009Y-111007222D01*
X131340913Y-110997652D01*
X131479533Y-110923557D01*
X131536147Y-110906384D01*
X131649373Y-110872037D01*
X131715558Y-110865518D01*
X131781740Y-110859000D01*
X131870260Y-110859000D01*
X131936442Y-110865518D01*
X131936442Y-110865518D01*
G37*
G36*
X129396442Y-110865518D02*
X129462627Y-110872037D01*
X129575853Y-110906384D01*
X129632467Y-110923557D01*
X129771087Y-110997652D01*
X129788991Y-111007222D01*
X129824729Y-111036552D01*
X129926186Y-111119814D01*
X130009448Y-111221271D01*
X130038778Y-111257009D01*
X130038779Y-111257011D01*
X130122443Y-111413533D01*
X130122443Y-111413534D01*
X130173963Y-111583373D01*
X130191359Y-111760000D01*
X130173963Y-111936627D01*
X130151326Y-112011252D01*
X130122443Y-112106467D01*
X130048348Y-112245087D01*
X130038778Y-112262991D01*
X130009448Y-112298729D01*
X129926186Y-112400186D01*
X129824729Y-112483448D01*
X129788991Y-112512778D01*
X129788989Y-112512779D01*
X129632467Y-112596443D01*
X129575853Y-112613616D01*
X129462627Y-112647963D01*
X129396442Y-112654482D01*
X129330260Y-112661000D01*
X129241740Y-112661000D01*
X129175558Y-112654482D01*
X129109373Y-112647963D01*
X128996147Y-112613616D01*
X128939533Y-112596443D01*
X128783011Y-112512779D01*
X128783009Y-112512778D01*
X128747271Y-112483448D01*
X128645814Y-112400186D01*
X128562552Y-112298729D01*
X128533222Y-112262991D01*
X128523652Y-112245087D01*
X128449557Y-112106467D01*
X128420674Y-112011252D01*
X128398037Y-111936627D01*
X128380641Y-111760000D01*
X128398037Y-111583373D01*
X128449557Y-111413534D01*
X128449557Y-111413533D01*
X128533221Y-111257011D01*
X128533222Y-111257009D01*
X128562552Y-111221271D01*
X128645814Y-111119814D01*
X128747271Y-111036552D01*
X128783009Y-111007222D01*
X128800913Y-110997652D01*
X128939533Y-110923557D01*
X128996147Y-110906384D01*
X129109373Y-110872037D01*
X129175558Y-110865518D01*
X129241740Y-110859000D01*
X129330260Y-110859000D01*
X129396442Y-110865518D01*
X129396442Y-110865518D01*
G37*
G36*
X118728442Y-110865518D02*
X118794627Y-110872037D01*
X118907853Y-110906384D01*
X118964467Y-110923557D01*
X119103087Y-110997652D01*
X119120991Y-111007222D01*
X119156729Y-111036552D01*
X119258186Y-111119814D01*
X119341448Y-111221271D01*
X119370778Y-111257009D01*
X119370779Y-111257011D01*
X119454443Y-111413533D01*
X119454443Y-111413534D01*
X119505963Y-111583373D01*
X119523359Y-111760000D01*
X119505963Y-111936627D01*
X119483326Y-112011252D01*
X119454443Y-112106467D01*
X119380348Y-112245087D01*
X119370778Y-112262991D01*
X119341448Y-112298729D01*
X119258186Y-112400186D01*
X119156729Y-112483448D01*
X119120991Y-112512778D01*
X119120989Y-112512779D01*
X118964467Y-112596443D01*
X118907853Y-112613616D01*
X118794627Y-112647963D01*
X118728442Y-112654482D01*
X118662260Y-112661000D01*
X118573740Y-112661000D01*
X118507558Y-112654482D01*
X118441373Y-112647963D01*
X118328147Y-112613616D01*
X118271533Y-112596443D01*
X118115011Y-112512779D01*
X118115009Y-112512778D01*
X118079271Y-112483448D01*
X117977814Y-112400186D01*
X117894552Y-112298729D01*
X117865222Y-112262991D01*
X117855652Y-112245087D01*
X117781557Y-112106467D01*
X117752674Y-112011252D01*
X117730037Y-111936627D01*
X117712641Y-111760000D01*
X117730037Y-111583373D01*
X117781557Y-111413534D01*
X117781557Y-111413533D01*
X117865221Y-111257011D01*
X117865222Y-111257009D01*
X117894552Y-111221271D01*
X117977814Y-111119814D01*
X118079271Y-111036552D01*
X118115009Y-111007222D01*
X118132913Y-110997652D01*
X118271533Y-110923557D01*
X118328147Y-110906384D01*
X118441373Y-110872037D01*
X118507558Y-110865518D01*
X118573740Y-110859000D01*
X118662260Y-110859000D01*
X118728442Y-110865518D01*
X118728442Y-110865518D01*
G37*
G36*
X121268442Y-110865518D02*
X121334627Y-110872037D01*
X121447853Y-110906384D01*
X121504467Y-110923557D01*
X121643087Y-110997652D01*
X121660991Y-111007222D01*
X121696729Y-111036552D01*
X121798186Y-111119814D01*
X121881448Y-111221271D01*
X121910778Y-111257009D01*
X121910779Y-111257011D01*
X121994443Y-111413533D01*
X121994443Y-111413534D01*
X122045963Y-111583373D01*
X122063359Y-111760000D01*
X122045963Y-111936627D01*
X122023326Y-112011252D01*
X121994443Y-112106467D01*
X121920348Y-112245087D01*
X121910778Y-112262991D01*
X121881448Y-112298729D01*
X121798186Y-112400186D01*
X121696729Y-112483448D01*
X121660991Y-112512778D01*
X121660989Y-112512779D01*
X121504467Y-112596443D01*
X121447853Y-112613616D01*
X121334627Y-112647963D01*
X121268442Y-112654482D01*
X121202260Y-112661000D01*
X121113740Y-112661000D01*
X121047558Y-112654482D01*
X120981373Y-112647963D01*
X120868147Y-112613616D01*
X120811533Y-112596443D01*
X120655011Y-112512779D01*
X120655009Y-112512778D01*
X120619271Y-112483448D01*
X120517814Y-112400186D01*
X120434552Y-112298729D01*
X120405222Y-112262991D01*
X120395652Y-112245087D01*
X120321557Y-112106467D01*
X120292674Y-112011252D01*
X120270037Y-111936627D01*
X120252641Y-111760000D01*
X120270037Y-111583373D01*
X120321557Y-111413534D01*
X120321557Y-111413533D01*
X120405221Y-111257011D01*
X120405222Y-111257009D01*
X120434552Y-111221271D01*
X120517814Y-111119814D01*
X120619271Y-111036552D01*
X120655009Y-111007222D01*
X120672913Y-110997652D01*
X120811533Y-110923557D01*
X120868147Y-110906384D01*
X120981373Y-110872037D01*
X121047558Y-110865518D01*
X121113740Y-110859000D01*
X121202260Y-110859000D01*
X121268442Y-110865518D01*
X121268442Y-110865518D01*
G37*
G36*
X124599000Y-112661000D02*
X122797000Y-112661000D01*
X122797000Y-110859000D01*
X124599000Y-110859000D01*
X124599000Y-112661000D01*
X124599000Y-112661000D01*
G37*
G36*
X108060442Y-110865518D02*
X108126627Y-110872037D01*
X108239853Y-110906384D01*
X108296467Y-110923557D01*
X108435087Y-110997652D01*
X108452991Y-111007222D01*
X108488729Y-111036552D01*
X108590186Y-111119814D01*
X108673448Y-111221271D01*
X108702778Y-111257009D01*
X108702779Y-111257011D01*
X108786443Y-111413533D01*
X108786443Y-111413534D01*
X108837963Y-111583373D01*
X108855359Y-111760000D01*
X108837963Y-111936627D01*
X108815326Y-112011252D01*
X108786443Y-112106467D01*
X108712348Y-112245087D01*
X108702778Y-112262991D01*
X108673448Y-112298729D01*
X108590186Y-112400186D01*
X108488729Y-112483448D01*
X108452991Y-112512778D01*
X108452989Y-112512779D01*
X108296467Y-112596443D01*
X108239853Y-112613616D01*
X108126627Y-112647963D01*
X108060442Y-112654482D01*
X107994260Y-112661000D01*
X107905740Y-112661000D01*
X107839558Y-112654482D01*
X107773373Y-112647963D01*
X107660147Y-112613616D01*
X107603533Y-112596443D01*
X107447011Y-112512779D01*
X107447009Y-112512778D01*
X107411271Y-112483448D01*
X107309814Y-112400186D01*
X107226552Y-112298729D01*
X107197222Y-112262991D01*
X107187652Y-112245087D01*
X107113557Y-112106467D01*
X107084674Y-112011252D01*
X107062037Y-111936627D01*
X107044641Y-111760000D01*
X107062037Y-111583373D01*
X107113557Y-111413534D01*
X107113557Y-111413533D01*
X107197221Y-111257011D01*
X107197222Y-111257009D01*
X107226552Y-111221271D01*
X107309814Y-111119814D01*
X107411271Y-111036552D01*
X107447009Y-111007222D01*
X107464913Y-110997652D01*
X107603533Y-110923557D01*
X107660147Y-110906384D01*
X107773373Y-110872037D01*
X107839558Y-110865518D01*
X107905740Y-110859000D01*
X107994260Y-110859000D01*
X108060442Y-110865518D01*
X108060442Y-110865518D01*
G37*
G36*
X110600442Y-110865518D02*
X110666627Y-110872037D01*
X110779853Y-110906384D01*
X110836467Y-110923557D01*
X110975087Y-110997652D01*
X110992991Y-111007222D01*
X111028729Y-111036552D01*
X111130186Y-111119814D01*
X111213448Y-111221271D01*
X111242778Y-111257009D01*
X111242779Y-111257011D01*
X111326443Y-111413533D01*
X111326443Y-111413534D01*
X111377963Y-111583373D01*
X111395359Y-111760000D01*
X111377963Y-111936627D01*
X111355326Y-112011252D01*
X111326443Y-112106467D01*
X111252348Y-112245087D01*
X111242778Y-112262991D01*
X111213448Y-112298729D01*
X111130186Y-112400186D01*
X111028729Y-112483448D01*
X110992991Y-112512778D01*
X110992989Y-112512779D01*
X110836467Y-112596443D01*
X110779853Y-112613616D01*
X110666627Y-112647963D01*
X110600442Y-112654482D01*
X110534260Y-112661000D01*
X110445740Y-112661000D01*
X110379558Y-112654482D01*
X110313373Y-112647963D01*
X110200147Y-112613616D01*
X110143533Y-112596443D01*
X109987011Y-112512779D01*
X109987009Y-112512778D01*
X109951271Y-112483448D01*
X109849814Y-112400186D01*
X109766552Y-112298729D01*
X109737222Y-112262991D01*
X109727652Y-112245087D01*
X109653557Y-112106467D01*
X109624674Y-112011252D01*
X109602037Y-111936627D01*
X109584641Y-111760000D01*
X109602037Y-111583373D01*
X109653557Y-111413534D01*
X109653557Y-111413533D01*
X109737221Y-111257011D01*
X109737222Y-111257009D01*
X109766552Y-111221271D01*
X109849814Y-111119814D01*
X109951271Y-111036552D01*
X109987009Y-111007222D01*
X110004913Y-110997652D01*
X110143533Y-110923557D01*
X110200147Y-110906384D01*
X110313373Y-110872037D01*
X110379558Y-110865518D01*
X110445740Y-110859000D01*
X110534260Y-110859000D01*
X110600442Y-110865518D01*
X110600442Y-110865518D01*
G37*
G36*
X113931000Y-112661000D02*
X112129000Y-112661000D01*
X112129000Y-110859000D01*
X113931000Y-110859000D01*
X113931000Y-112661000D01*
X113931000Y-112661000D01*
G37*
G36*
X150732443Y-107817519D02*
X150798627Y-107824037D01*
X150911853Y-107858384D01*
X150968467Y-107875557D01*
X151107087Y-107949652D01*
X151124991Y-107959222D01*
X151160729Y-107988552D01*
X151262186Y-108071814D01*
X151345448Y-108173271D01*
X151374778Y-108209009D01*
X151374779Y-108209011D01*
X151458443Y-108365533D01*
X151458443Y-108365534D01*
X151509963Y-108535373D01*
X151527359Y-108712000D01*
X151509963Y-108888627D01*
X151475616Y-109001853D01*
X151458443Y-109058467D01*
X151384348Y-109197087D01*
X151374778Y-109214991D01*
X151345448Y-109250729D01*
X151262186Y-109352186D01*
X151160729Y-109435448D01*
X151124991Y-109464778D01*
X151124989Y-109464779D01*
X150968467Y-109548443D01*
X150911853Y-109565616D01*
X150798627Y-109599963D01*
X150732442Y-109606482D01*
X150666260Y-109613000D01*
X150577740Y-109613000D01*
X150511558Y-109606482D01*
X150445373Y-109599963D01*
X150332147Y-109565616D01*
X150275533Y-109548443D01*
X150119011Y-109464779D01*
X150119009Y-109464778D01*
X150083271Y-109435448D01*
X149981814Y-109352186D01*
X149898552Y-109250729D01*
X149869222Y-109214991D01*
X149859652Y-109197087D01*
X149785557Y-109058467D01*
X149768384Y-109001853D01*
X149734037Y-108888627D01*
X149716641Y-108712000D01*
X149734037Y-108535373D01*
X149785557Y-108365534D01*
X149785557Y-108365533D01*
X149869221Y-108209011D01*
X149869222Y-108209009D01*
X149898552Y-108173271D01*
X149981814Y-108071814D01*
X150083271Y-107988552D01*
X150119009Y-107959222D01*
X150136913Y-107949652D01*
X150275533Y-107875557D01*
X150332147Y-107858384D01*
X150445373Y-107824037D01*
X150511557Y-107817519D01*
X150577740Y-107811000D01*
X150666260Y-107811000D01*
X150732443Y-107817519D01*
X150732443Y-107817519D01*
G37*
G36*
X163461000Y-109613000D02*
X161659000Y-109613000D01*
X161659000Y-107811000D01*
X163461000Y-107811000D01*
X163461000Y-109613000D01*
X163461000Y-109613000D01*
G37*
G36*
X143874443Y-107817519D02*
X143940627Y-107824037D01*
X144053853Y-107858384D01*
X144110467Y-107875557D01*
X144249087Y-107949652D01*
X144266991Y-107959222D01*
X144302729Y-107988552D01*
X144404186Y-108071814D01*
X144487448Y-108173271D01*
X144516778Y-108209009D01*
X144516779Y-108209011D01*
X144600443Y-108365533D01*
X144600443Y-108365534D01*
X144651963Y-108535373D01*
X144669359Y-108712000D01*
X144651963Y-108888627D01*
X144617616Y-109001853D01*
X144600443Y-109058467D01*
X144526348Y-109197087D01*
X144516778Y-109214991D01*
X144487448Y-109250729D01*
X144404186Y-109352186D01*
X144302729Y-109435448D01*
X144266991Y-109464778D01*
X144266989Y-109464779D01*
X144110467Y-109548443D01*
X144053853Y-109565616D01*
X143940627Y-109599963D01*
X143874442Y-109606482D01*
X143808260Y-109613000D01*
X143719740Y-109613000D01*
X143653558Y-109606482D01*
X143587373Y-109599963D01*
X143474147Y-109565616D01*
X143417533Y-109548443D01*
X143261011Y-109464779D01*
X143261009Y-109464778D01*
X143225271Y-109435448D01*
X143123814Y-109352186D01*
X143040552Y-109250729D01*
X143011222Y-109214991D01*
X143001652Y-109197087D01*
X142927557Y-109058467D01*
X142910384Y-109001853D01*
X142876037Y-108888627D01*
X142858641Y-108712000D01*
X142876037Y-108535373D01*
X142927557Y-108365534D01*
X142927557Y-108365533D01*
X143011221Y-108209011D01*
X143011222Y-108209009D01*
X143040552Y-108173271D01*
X143123814Y-108071814D01*
X143225271Y-107988552D01*
X143261009Y-107959222D01*
X143278913Y-107949652D01*
X143417533Y-107875557D01*
X143474147Y-107858384D01*
X143587373Y-107824037D01*
X143653557Y-107817519D01*
X143719740Y-107811000D01*
X143808260Y-107811000D01*
X143874443Y-107817519D01*
X143874443Y-107817519D01*
G37*
G36*
X147205000Y-109613000D02*
X145403000Y-109613000D01*
X145403000Y-107811000D01*
X147205000Y-107811000D01*
X147205000Y-109613000D01*
X147205000Y-109613000D01*
G37*
G36*
X160130443Y-107817519D02*
X160196627Y-107824037D01*
X160309853Y-107858384D01*
X160366467Y-107875557D01*
X160505087Y-107949652D01*
X160522991Y-107959222D01*
X160558729Y-107988552D01*
X160660186Y-108071814D01*
X160743448Y-108173271D01*
X160772778Y-108209009D01*
X160772779Y-108209011D01*
X160856443Y-108365533D01*
X160856443Y-108365534D01*
X160907963Y-108535373D01*
X160925359Y-108712000D01*
X160907963Y-108888627D01*
X160873616Y-109001853D01*
X160856443Y-109058467D01*
X160782348Y-109197087D01*
X160772778Y-109214991D01*
X160743448Y-109250729D01*
X160660186Y-109352186D01*
X160558729Y-109435448D01*
X160522991Y-109464778D01*
X160522989Y-109464779D01*
X160366467Y-109548443D01*
X160309853Y-109565616D01*
X160196627Y-109599963D01*
X160130442Y-109606482D01*
X160064260Y-109613000D01*
X159975740Y-109613000D01*
X159909558Y-109606482D01*
X159843373Y-109599963D01*
X159730147Y-109565616D01*
X159673533Y-109548443D01*
X159517011Y-109464779D01*
X159517009Y-109464778D01*
X159481271Y-109435448D01*
X159379814Y-109352186D01*
X159296552Y-109250729D01*
X159267222Y-109214991D01*
X159257652Y-109197087D01*
X159183557Y-109058467D01*
X159166384Y-109001853D01*
X159132037Y-108888627D01*
X159114641Y-108712000D01*
X159132037Y-108535373D01*
X159183557Y-108365534D01*
X159183557Y-108365533D01*
X159267221Y-108209011D01*
X159267222Y-108209009D01*
X159296552Y-108173271D01*
X159379814Y-108071814D01*
X159481271Y-107988552D01*
X159517009Y-107959222D01*
X159534913Y-107949652D01*
X159673533Y-107875557D01*
X159730147Y-107858384D01*
X159843373Y-107824037D01*
X159909557Y-107817519D01*
X159975740Y-107811000D01*
X160064260Y-107811000D01*
X160130443Y-107817519D01*
X160130443Y-107817519D01*
G37*
G36*
X154063000Y-109613000D02*
X152261000Y-109613000D01*
X152261000Y-107811000D01*
X154063000Y-107811000D01*
X154063000Y-109613000D01*
X154063000Y-109613000D01*
G37*
G36*
X117371396Y-103733546D02*
X117544466Y-103805234D01*
X117700230Y-103909312D01*
X117832688Y-104041770D01*
X117936766Y-104197534D01*
X118008454Y-104370604D01*
X118045000Y-104554333D01*
X118045000Y-104741667D01*
X118008454Y-104925396D01*
X117936766Y-105098466D01*
X117832688Y-105254230D01*
X117700230Y-105386688D01*
X117544466Y-105490766D01*
X117371396Y-105562454D01*
X117187667Y-105599000D01*
X117000333Y-105599000D01*
X116816604Y-105562454D01*
X116643534Y-105490766D01*
X116487770Y-105386688D01*
X116355312Y-105254230D01*
X116251234Y-105098466D01*
X116179546Y-104925396D01*
X116143000Y-104741667D01*
X116143000Y-104554333D01*
X116179546Y-104370604D01*
X116251234Y-104197534D01*
X116355312Y-104041770D01*
X116487770Y-103909312D01*
X116643534Y-103805234D01*
X116816604Y-103733546D01*
X117000333Y-103697000D01*
X117187667Y-103697000D01*
X117371396Y-103733546D01*
X117371396Y-103733546D01*
G37*
G36*
X122451396Y-103733546D02*
X122624466Y-103805234D01*
X122780230Y-103909312D01*
X122912688Y-104041770D01*
X123016766Y-104197534D01*
X123088454Y-104370604D01*
X123125000Y-104554333D01*
X123125000Y-104741667D01*
X123088454Y-104925396D01*
X123016766Y-105098466D01*
X122912688Y-105254230D01*
X122780230Y-105386688D01*
X122624466Y-105490766D01*
X122451396Y-105562454D01*
X122267667Y-105599000D01*
X122080333Y-105599000D01*
X121896604Y-105562454D01*
X121723534Y-105490766D01*
X121567770Y-105386688D01*
X121435312Y-105254230D01*
X121331234Y-105098466D01*
X121259546Y-104925396D01*
X121223000Y-104741667D01*
X121223000Y-104554333D01*
X121259546Y-104370604D01*
X121331234Y-104197534D01*
X121435312Y-104041770D01*
X121567770Y-103909312D01*
X121723534Y-103805234D01*
X121896604Y-103733546D01*
X122080333Y-103697000D01*
X122267667Y-103697000D01*
X122451396Y-103733546D01*
X122451396Y-103733546D01*
G37*
G36*
X135151396Y-103733546D02*
X135324466Y-103805234D01*
X135480230Y-103909312D01*
X135612688Y-104041770D01*
X135716766Y-104197534D01*
X135788454Y-104370604D01*
X135825000Y-104554333D01*
X135825000Y-104741667D01*
X135788454Y-104925396D01*
X135716766Y-105098466D01*
X135612688Y-105254230D01*
X135480230Y-105386688D01*
X135324466Y-105490766D01*
X135151396Y-105562454D01*
X134967667Y-105599000D01*
X134780333Y-105599000D01*
X134596604Y-105562454D01*
X134423534Y-105490766D01*
X134267770Y-105386688D01*
X134135312Y-105254230D01*
X134031234Y-105098466D01*
X133959546Y-104925396D01*
X133923000Y-104741667D01*
X133923000Y-104554333D01*
X133959546Y-104370604D01*
X134031234Y-104197534D01*
X134135312Y-104041770D01*
X134267770Y-103909312D01*
X134423534Y-103805234D01*
X134596604Y-103733546D01*
X134780333Y-103697000D01*
X134967667Y-103697000D01*
X135151396Y-103733546D01*
X135151396Y-103733546D01*
G37*
G36*
X132611396Y-103733546D02*
X132784466Y-103805234D01*
X132940230Y-103909312D01*
X133072688Y-104041770D01*
X133176766Y-104197534D01*
X133248454Y-104370604D01*
X133285000Y-104554333D01*
X133285000Y-104741667D01*
X133248454Y-104925396D01*
X133176766Y-105098466D01*
X133072688Y-105254230D01*
X132940230Y-105386688D01*
X132784466Y-105490766D01*
X132611396Y-105562454D01*
X132427667Y-105599000D01*
X132240333Y-105599000D01*
X132056604Y-105562454D01*
X131883534Y-105490766D01*
X131727770Y-105386688D01*
X131595312Y-105254230D01*
X131491234Y-105098466D01*
X131419546Y-104925396D01*
X131383000Y-104741667D01*
X131383000Y-104554333D01*
X131419546Y-104370604D01*
X131491234Y-104197534D01*
X131595312Y-104041770D01*
X131727770Y-103909312D01*
X131883534Y-103805234D01*
X132056604Y-103733546D01*
X132240333Y-103697000D01*
X132427667Y-103697000D01*
X132611396Y-103733546D01*
X132611396Y-103733546D01*
G37*
G36*
X127531396Y-103733546D02*
X127704466Y-103805234D01*
X127860230Y-103909312D01*
X127992688Y-104041770D01*
X128096766Y-104197534D01*
X128168454Y-104370604D01*
X128205000Y-104554333D01*
X128205000Y-104741667D01*
X128168454Y-104925396D01*
X128096766Y-105098466D01*
X127992688Y-105254230D01*
X127860230Y-105386688D01*
X127704466Y-105490766D01*
X127531396Y-105562454D01*
X127347667Y-105599000D01*
X127160333Y-105599000D01*
X126976604Y-105562454D01*
X126803534Y-105490766D01*
X126647770Y-105386688D01*
X126515312Y-105254230D01*
X126411234Y-105098466D01*
X126339546Y-104925396D01*
X126303000Y-104741667D01*
X126303000Y-104554333D01*
X126339546Y-104370604D01*
X126411234Y-104197534D01*
X126515312Y-104041770D01*
X126647770Y-103909312D01*
X126803534Y-103805234D01*
X126976604Y-103733546D01*
X127160333Y-103697000D01*
X127347667Y-103697000D01*
X127531396Y-103733546D01*
X127531396Y-103733546D01*
G37*
G36*
X140855000Y-105549000D02*
X139053000Y-105549000D01*
X139053000Y-103747000D01*
X140855000Y-103747000D01*
X140855000Y-105549000D01*
X140855000Y-105549000D01*
G37*
G36*
X151296821Y-103555313D02*
X151296824Y-103555314D01*
X151296825Y-103555314D01*
X151457239Y-103603975D01*
X151457241Y-103603976D01*
X151457244Y-103603977D01*
X151605078Y-103682995D01*
X151734659Y-103789341D01*
X151841005Y-103918922D01*
X151920023Y-104066756D01*
X151920024Y-104066759D01*
X151920025Y-104066761D01*
X151968686Y-104227175D01*
X151968687Y-104227179D01*
X151985117Y-104394000D01*
X151968687Y-104560821D01*
X151920023Y-104721244D01*
X151841005Y-104869078D01*
X151734659Y-104998659D01*
X151605078Y-105105005D01*
X151457244Y-105184023D01*
X151457241Y-105184024D01*
X151457239Y-105184025D01*
X151296825Y-105232686D01*
X151296824Y-105232686D01*
X151296821Y-105232687D01*
X151171804Y-105245000D01*
X151088196Y-105245000D01*
X150963179Y-105232687D01*
X150963176Y-105232686D01*
X150963175Y-105232686D01*
X150802761Y-105184025D01*
X150802759Y-105184024D01*
X150802756Y-105184023D01*
X150654922Y-105105005D01*
X150525341Y-104998659D01*
X150418995Y-104869078D01*
X150339977Y-104721244D01*
X150291313Y-104560821D01*
X150274883Y-104394000D01*
X150291313Y-104227179D01*
X150291314Y-104227175D01*
X150339975Y-104066761D01*
X150339976Y-104066759D01*
X150339977Y-104066756D01*
X150418995Y-103918922D01*
X150525341Y-103789341D01*
X150654922Y-103682995D01*
X150802756Y-103603977D01*
X150802759Y-103603976D01*
X150802761Y-103603975D01*
X150963175Y-103555314D01*
X150963176Y-103555314D01*
X150963179Y-103555313D01*
X151088196Y-103543000D01*
X151171804Y-103543000D01*
X151296821Y-103555313D01*
X151296821Y-103555313D01*
G37*
G36*
X147232821Y-103555313D02*
X147232824Y-103555314D01*
X147232825Y-103555314D01*
X147393239Y-103603975D01*
X147393241Y-103603976D01*
X147393244Y-103603977D01*
X147541078Y-103682995D01*
X147670659Y-103789341D01*
X147777005Y-103918922D01*
X147856023Y-104066756D01*
X147856024Y-104066759D01*
X147856025Y-104066761D01*
X147904686Y-104227175D01*
X147904687Y-104227179D01*
X147921117Y-104394000D01*
X147904687Y-104560821D01*
X147856023Y-104721244D01*
X147777005Y-104869078D01*
X147670659Y-104998659D01*
X147541078Y-105105005D01*
X147393244Y-105184023D01*
X147393241Y-105184024D01*
X147393239Y-105184025D01*
X147232825Y-105232686D01*
X147232824Y-105232686D01*
X147232821Y-105232687D01*
X147107804Y-105245000D01*
X147024196Y-105245000D01*
X146899179Y-105232687D01*
X146899176Y-105232686D01*
X146899175Y-105232686D01*
X146738761Y-105184025D01*
X146738759Y-105184024D01*
X146738756Y-105184023D01*
X146590922Y-105105005D01*
X146461341Y-104998659D01*
X146354995Y-104869078D01*
X146275977Y-104721244D01*
X146227313Y-104560821D01*
X146210883Y-104394000D01*
X146227313Y-104227179D01*
X146227314Y-104227175D01*
X146275975Y-104066761D01*
X146275976Y-104066759D01*
X146275977Y-104066756D01*
X146354995Y-103918922D01*
X146461341Y-103789341D01*
X146590922Y-103682995D01*
X146738756Y-103603977D01*
X146738759Y-103603976D01*
X146738761Y-103603975D01*
X146899175Y-103555314D01*
X146899176Y-103555314D01*
X146899179Y-103555313D01*
X147024196Y-103543000D01*
X147107804Y-103543000D01*
X147232821Y-103555313D01*
X147232821Y-103555313D01*
G37*
G36*
X155360821Y-103555313D02*
X155360824Y-103555314D01*
X155360825Y-103555314D01*
X155521239Y-103603975D01*
X155521241Y-103603976D01*
X155521244Y-103603977D01*
X155669078Y-103682995D01*
X155798659Y-103789341D01*
X155905005Y-103918922D01*
X155984023Y-104066756D01*
X155984024Y-104066759D01*
X155984025Y-104066761D01*
X156032686Y-104227175D01*
X156032687Y-104227179D01*
X156049117Y-104394000D01*
X156032687Y-104560821D01*
X155984023Y-104721244D01*
X155905005Y-104869078D01*
X155798659Y-104998659D01*
X155669078Y-105105005D01*
X155521244Y-105184023D01*
X155521241Y-105184024D01*
X155521239Y-105184025D01*
X155360825Y-105232686D01*
X155360824Y-105232686D01*
X155360821Y-105232687D01*
X155235804Y-105245000D01*
X155152196Y-105245000D01*
X155027179Y-105232687D01*
X155027176Y-105232686D01*
X155027175Y-105232686D01*
X154866761Y-105184025D01*
X154866759Y-105184024D01*
X154866756Y-105184023D01*
X154718922Y-105105005D01*
X154589341Y-104998659D01*
X154482995Y-104869078D01*
X154403977Y-104721244D01*
X154355313Y-104560821D01*
X154338883Y-104394000D01*
X154355313Y-104227179D01*
X154355314Y-104227175D01*
X154403975Y-104066761D01*
X154403976Y-104066759D01*
X154403977Y-104066756D01*
X154482995Y-103918922D01*
X154589341Y-103789341D01*
X154718922Y-103682995D01*
X154866756Y-103603977D01*
X154866759Y-103603976D01*
X154866761Y-103603975D01*
X155027175Y-103555314D01*
X155027176Y-103555314D01*
X155027179Y-103555313D01*
X155152196Y-103543000D01*
X155235804Y-103543000D01*
X155360821Y-103555313D01*
X155360821Y-103555313D01*
G37*
G36*
X159424821Y-103555313D02*
X159424824Y-103555314D01*
X159424825Y-103555314D01*
X159585239Y-103603975D01*
X159585241Y-103603976D01*
X159585244Y-103603977D01*
X159733078Y-103682995D01*
X159862659Y-103789341D01*
X159969005Y-103918922D01*
X160048023Y-104066756D01*
X160048024Y-104066759D01*
X160048025Y-104066761D01*
X160096686Y-104227175D01*
X160096687Y-104227179D01*
X160113117Y-104394000D01*
X160096687Y-104560821D01*
X160048023Y-104721244D01*
X159969005Y-104869078D01*
X159862659Y-104998659D01*
X159733078Y-105105005D01*
X159585244Y-105184023D01*
X159585241Y-105184024D01*
X159585239Y-105184025D01*
X159424825Y-105232686D01*
X159424824Y-105232686D01*
X159424821Y-105232687D01*
X159299804Y-105245000D01*
X159216196Y-105245000D01*
X159091179Y-105232687D01*
X159091176Y-105232686D01*
X159091175Y-105232686D01*
X158930761Y-105184025D01*
X158930759Y-105184024D01*
X158930756Y-105184023D01*
X158782922Y-105105005D01*
X158653341Y-104998659D01*
X158546995Y-104869078D01*
X158467977Y-104721244D01*
X158419313Y-104560821D01*
X158402883Y-104394000D01*
X158419313Y-104227179D01*
X158419314Y-104227175D01*
X158467975Y-104066761D01*
X158467976Y-104066759D01*
X158467977Y-104066756D01*
X158546995Y-103918922D01*
X158653341Y-103789341D01*
X158782922Y-103682995D01*
X158930756Y-103603977D01*
X158930759Y-103603976D01*
X158930761Y-103603975D01*
X159091175Y-103555314D01*
X159091176Y-103555314D01*
X159091179Y-103555313D01*
X159216196Y-103543000D01*
X159299804Y-103543000D01*
X159424821Y-103555313D01*
X159424821Y-103555313D01*
G37*
G36*
X163488821Y-103555313D02*
X163488824Y-103555314D01*
X163488825Y-103555314D01*
X163649239Y-103603975D01*
X163649241Y-103603976D01*
X163649244Y-103603977D01*
X163797078Y-103682995D01*
X163926659Y-103789341D01*
X164033005Y-103918922D01*
X164112023Y-104066756D01*
X164112024Y-104066759D01*
X164112025Y-104066761D01*
X164160686Y-104227175D01*
X164160687Y-104227179D01*
X164177117Y-104394000D01*
X164160687Y-104560821D01*
X164112023Y-104721244D01*
X164033005Y-104869078D01*
X163926659Y-104998659D01*
X163797078Y-105105005D01*
X163649244Y-105184023D01*
X163649241Y-105184024D01*
X163649239Y-105184025D01*
X163488825Y-105232686D01*
X163488824Y-105232686D01*
X163488821Y-105232687D01*
X163363804Y-105245000D01*
X163280196Y-105245000D01*
X163155179Y-105232687D01*
X163155176Y-105232686D01*
X163155175Y-105232686D01*
X162994761Y-105184025D01*
X162994759Y-105184024D01*
X162994756Y-105184023D01*
X162846922Y-105105005D01*
X162717341Y-104998659D01*
X162610995Y-104869078D01*
X162531977Y-104721244D01*
X162483313Y-104560821D01*
X162466883Y-104394000D01*
X162483313Y-104227179D01*
X162483314Y-104227175D01*
X162531975Y-104066761D01*
X162531976Y-104066759D01*
X162531977Y-104066756D01*
X162610995Y-103918922D01*
X162717341Y-103789341D01*
X162846922Y-103682995D01*
X162994756Y-103603977D01*
X162994759Y-103603976D01*
X162994761Y-103603975D01*
X163155175Y-103555314D01*
X163155176Y-103555314D01*
X163155179Y-103555313D01*
X163280196Y-103543000D01*
X163363804Y-103543000D01*
X163488821Y-103555313D01*
X163488821Y-103555313D01*
G37*
G36*
X112688821Y-102793313D02*
X112688824Y-102793314D01*
X112688825Y-102793314D01*
X112849239Y-102841975D01*
X112849241Y-102841976D01*
X112849244Y-102841977D01*
X112997078Y-102920995D01*
X113126659Y-103027341D01*
X113233005Y-103156922D01*
X113312023Y-103304756D01*
X113360687Y-103465179D01*
X113377117Y-103632000D01*
X113360687Y-103798821D01*
X113360686Y-103798824D01*
X113360686Y-103798825D01*
X113327171Y-103909310D01*
X113312023Y-103959244D01*
X113233005Y-104107078D01*
X113126659Y-104236659D01*
X112997078Y-104343005D01*
X112849244Y-104422023D01*
X112849241Y-104422024D01*
X112849239Y-104422025D01*
X112688825Y-104470686D01*
X112688824Y-104470686D01*
X112688821Y-104470687D01*
X112563804Y-104483000D01*
X112480196Y-104483000D01*
X112355179Y-104470687D01*
X112355176Y-104470686D01*
X112355175Y-104470686D01*
X112194761Y-104422025D01*
X112194759Y-104422024D01*
X112194756Y-104422023D01*
X112046922Y-104343005D01*
X111917341Y-104236659D01*
X111810995Y-104107078D01*
X111731977Y-103959244D01*
X111716830Y-103909310D01*
X111683314Y-103798825D01*
X111683314Y-103798824D01*
X111683313Y-103798821D01*
X111666883Y-103632000D01*
X111683313Y-103465179D01*
X111731977Y-103304756D01*
X111810995Y-103156922D01*
X111917341Y-103027341D01*
X112046922Y-102920995D01*
X112194756Y-102841977D01*
X112194759Y-102841976D01*
X112194761Y-102841975D01*
X112355175Y-102793314D01*
X112355176Y-102793314D01*
X112355179Y-102793313D01*
X112480196Y-102781000D01*
X112563804Y-102781000D01*
X112688821Y-102793313D01*
X112688821Y-102793313D01*
G37*
G36*
X108878821Y-102793313D02*
X108878824Y-102793314D01*
X108878825Y-102793314D01*
X109039239Y-102841975D01*
X109039241Y-102841976D01*
X109039244Y-102841977D01*
X109187078Y-102920995D01*
X109316659Y-103027341D01*
X109423005Y-103156922D01*
X109502023Y-103304756D01*
X109550687Y-103465179D01*
X109567117Y-103632000D01*
X109550687Y-103798821D01*
X109550686Y-103798824D01*
X109550686Y-103798825D01*
X109517171Y-103909310D01*
X109502023Y-103959244D01*
X109423005Y-104107078D01*
X109316659Y-104236659D01*
X109187078Y-104343005D01*
X109039244Y-104422023D01*
X109039241Y-104422024D01*
X109039239Y-104422025D01*
X108878825Y-104470686D01*
X108878824Y-104470686D01*
X108878821Y-104470687D01*
X108753804Y-104483000D01*
X108670196Y-104483000D01*
X108545179Y-104470687D01*
X108545176Y-104470686D01*
X108545175Y-104470686D01*
X108384761Y-104422025D01*
X108384759Y-104422024D01*
X108384756Y-104422023D01*
X108236922Y-104343005D01*
X108107341Y-104236659D01*
X108000995Y-104107078D01*
X107921977Y-103959244D01*
X107906830Y-103909310D01*
X107873314Y-103798825D01*
X107873314Y-103798824D01*
X107873313Y-103798821D01*
X107856883Y-103632000D01*
X107873313Y-103465179D01*
X107921977Y-103304756D01*
X108000995Y-103156922D01*
X108107341Y-103027341D01*
X108236922Y-102920995D01*
X108384756Y-102841977D01*
X108384759Y-102841976D01*
X108384761Y-102841975D01*
X108545175Y-102793314D01*
X108545176Y-102793314D01*
X108545179Y-102793313D01*
X108670196Y-102781000D01*
X108753804Y-102781000D01*
X108878821Y-102793313D01*
X108878821Y-102793313D01*
G37*
G36*
X140064442Y-101213518D02*
X140130627Y-101220037D01*
X140243853Y-101254384D01*
X140300467Y-101271557D01*
X140439087Y-101345652D01*
X140456991Y-101355222D01*
X140492729Y-101384552D01*
X140594186Y-101467814D01*
X140677448Y-101569271D01*
X140706778Y-101605009D01*
X140706779Y-101605011D01*
X140790443Y-101761533D01*
X140790443Y-101761534D01*
X140841963Y-101931373D01*
X140859359Y-102108000D01*
X140841963Y-102284627D01*
X140807616Y-102397853D01*
X140790443Y-102454467D01*
X140716348Y-102593087D01*
X140706778Y-102610991D01*
X140677448Y-102646729D01*
X140594186Y-102748186D01*
X140492729Y-102831448D01*
X140456991Y-102860778D01*
X140456989Y-102860779D01*
X140300467Y-102944443D01*
X140243853Y-102961616D01*
X140130627Y-102995963D01*
X140064443Y-103002481D01*
X139998260Y-103009000D01*
X139909740Y-103009000D01*
X139843558Y-103002482D01*
X139777373Y-102995963D01*
X139664147Y-102961616D01*
X139607533Y-102944443D01*
X139451011Y-102860779D01*
X139451009Y-102860778D01*
X139415271Y-102831448D01*
X139313814Y-102748186D01*
X139230552Y-102646729D01*
X139201222Y-102610991D01*
X139191652Y-102593087D01*
X139117557Y-102454467D01*
X139100384Y-102397853D01*
X139066037Y-102284627D01*
X139048641Y-102108000D01*
X139066037Y-101931373D01*
X139117557Y-101761534D01*
X139117557Y-101761533D01*
X139201221Y-101605011D01*
X139201222Y-101605009D01*
X139230552Y-101569271D01*
X139313814Y-101467814D01*
X139415271Y-101384552D01*
X139451009Y-101355222D01*
X139468913Y-101345652D01*
X139607533Y-101271557D01*
X139664147Y-101254384D01*
X139777373Y-101220037D01*
X139843557Y-101213519D01*
X139909740Y-101207000D01*
X139998260Y-101207000D01*
X140064442Y-101213518D01*
X140064442Y-101213518D01*
G37*
G36*
X140064442Y-98673518D02*
X140130627Y-98680037D01*
X140243853Y-98714384D01*
X140300467Y-98731557D01*
X140439087Y-98805652D01*
X140456991Y-98815222D01*
X140492729Y-98844552D01*
X140594186Y-98927814D01*
X140677448Y-99029271D01*
X140706778Y-99065009D01*
X140706779Y-99065011D01*
X140790443Y-99221533D01*
X140790443Y-99221534D01*
X140841963Y-99391373D01*
X140859359Y-99568000D01*
X140841963Y-99744627D01*
X140807616Y-99857853D01*
X140790443Y-99914467D01*
X140765570Y-99961000D01*
X140706778Y-100070991D01*
X140677448Y-100106729D01*
X140594186Y-100208186D01*
X140492729Y-100291448D01*
X140456991Y-100320778D01*
X140456989Y-100320779D01*
X140300467Y-100404443D01*
X140243853Y-100421616D01*
X140130627Y-100455963D01*
X140064442Y-100462482D01*
X139998260Y-100469000D01*
X139909740Y-100469000D01*
X139843557Y-100462481D01*
X139777373Y-100455963D01*
X139664147Y-100421616D01*
X139607533Y-100404443D01*
X139451011Y-100320779D01*
X139451009Y-100320778D01*
X139415271Y-100291448D01*
X139313814Y-100208186D01*
X139230552Y-100106729D01*
X139201222Y-100070991D01*
X139142430Y-99961000D01*
X139117557Y-99914467D01*
X139100384Y-99857853D01*
X139066037Y-99744627D01*
X139048641Y-99568000D01*
X139066037Y-99391373D01*
X139117557Y-99221534D01*
X139117557Y-99221533D01*
X139201221Y-99065011D01*
X139201222Y-99065009D01*
X139230552Y-99029271D01*
X139313814Y-98927814D01*
X139415271Y-98844552D01*
X139451009Y-98815222D01*
X139468913Y-98805652D01*
X139607533Y-98731557D01*
X139664147Y-98714384D01*
X139777373Y-98680037D01*
X139843558Y-98673518D01*
X139909740Y-98667000D01*
X139998260Y-98667000D01*
X140064442Y-98673518D01*
X140064442Y-98673518D01*
G37*
G36*
X105041000Y-99961000D02*
X103239000Y-99961000D01*
X103239000Y-98159000D01*
X105041000Y-98159000D01*
X105041000Y-99961000D01*
X105041000Y-99961000D01*
G37*
G36*
X117371396Y-96113546D02*
X117544466Y-96185234D01*
X117700230Y-96289312D01*
X117832688Y-96421770D01*
X117936766Y-96577534D01*
X118008454Y-96750604D01*
X118045000Y-96934333D01*
X118045000Y-97121667D01*
X118008454Y-97305396D01*
X117936766Y-97478466D01*
X117832688Y-97634230D01*
X117700230Y-97766688D01*
X117544466Y-97870766D01*
X117371396Y-97942454D01*
X117187667Y-97979000D01*
X117000333Y-97979000D01*
X116816604Y-97942454D01*
X116643534Y-97870766D01*
X116487770Y-97766688D01*
X116355312Y-97634230D01*
X116251234Y-97478466D01*
X116179546Y-97305396D01*
X116143000Y-97121667D01*
X116143000Y-96934333D01*
X116179546Y-96750604D01*
X116251234Y-96577534D01*
X116355312Y-96421770D01*
X116487770Y-96289312D01*
X116643534Y-96185234D01*
X116816604Y-96113546D01*
X117000333Y-96077000D01*
X117187667Y-96077000D01*
X117371396Y-96113546D01*
X117371396Y-96113546D01*
G37*
G36*
X135151396Y-96113546D02*
X135324466Y-96185234D01*
X135480230Y-96289312D01*
X135612688Y-96421770D01*
X135716766Y-96577534D01*
X135788454Y-96750604D01*
X135825000Y-96934333D01*
X135825000Y-97121667D01*
X135788454Y-97305396D01*
X135716766Y-97478466D01*
X135612688Y-97634230D01*
X135480230Y-97766688D01*
X135324466Y-97870766D01*
X135151396Y-97942454D01*
X134967667Y-97979000D01*
X134780333Y-97979000D01*
X134596604Y-97942454D01*
X134423534Y-97870766D01*
X134267770Y-97766688D01*
X134135312Y-97634230D01*
X134031234Y-97478466D01*
X133959546Y-97305396D01*
X133923000Y-97121667D01*
X133923000Y-96934333D01*
X133959546Y-96750604D01*
X134031234Y-96577534D01*
X134135312Y-96421770D01*
X134267770Y-96289312D01*
X134423534Y-96185234D01*
X134596604Y-96113546D01*
X134780333Y-96077000D01*
X134967667Y-96077000D01*
X135151396Y-96113546D01*
X135151396Y-96113546D01*
G37*
G36*
X122451396Y-96113546D02*
X122624466Y-96185234D01*
X122780230Y-96289312D01*
X122912688Y-96421770D01*
X123016766Y-96577534D01*
X123088454Y-96750604D01*
X123125000Y-96934333D01*
X123125000Y-97121667D01*
X123088454Y-97305396D01*
X123016766Y-97478466D01*
X122912688Y-97634230D01*
X122780230Y-97766688D01*
X122624466Y-97870766D01*
X122451396Y-97942454D01*
X122267667Y-97979000D01*
X122080333Y-97979000D01*
X121896604Y-97942454D01*
X121723534Y-97870766D01*
X121567770Y-97766688D01*
X121435312Y-97634230D01*
X121331234Y-97478466D01*
X121259546Y-97305396D01*
X121223000Y-97121667D01*
X121223000Y-96934333D01*
X121259546Y-96750604D01*
X121331234Y-96577534D01*
X121435312Y-96421770D01*
X121567770Y-96289312D01*
X121723534Y-96185234D01*
X121896604Y-96113546D01*
X122080333Y-96077000D01*
X122267667Y-96077000D01*
X122451396Y-96113546D01*
X122451396Y-96113546D01*
G37*
G36*
X127531396Y-96113546D02*
X127704466Y-96185234D01*
X127860230Y-96289312D01*
X127992688Y-96421770D01*
X128096766Y-96577534D01*
X128168454Y-96750604D01*
X128205000Y-96934333D01*
X128205000Y-97121667D01*
X128168454Y-97305396D01*
X128096766Y-97478466D01*
X127992688Y-97634230D01*
X127860230Y-97766688D01*
X127704466Y-97870766D01*
X127531396Y-97942454D01*
X127347667Y-97979000D01*
X127160333Y-97979000D01*
X126976604Y-97942454D01*
X126803534Y-97870766D01*
X126647770Y-97766688D01*
X126515312Y-97634230D01*
X126411234Y-97478466D01*
X126339546Y-97305396D01*
X126303000Y-97121667D01*
X126303000Y-96934333D01*
X126339546Y-96750604D01*
X126411234Y-96577534D01*
X126515312Y-96421770D01*
X126647770Y-96289312D01*
X126803534Y-96185234D01*
X126976604Y-96113546D01*
X127160333Y-96077000D01*
X127347667Y-96077000D01*
X127531396Y-96113546D01*
X127531396Y-96113546D01*
G37*
G36*
X132611396Y-96113546D02*
X132784466Y-96185234D01*
X132940230Y-96289312D01*
X133072688Y-96421770D01*
X133176766Y-96577534D01*
X133248454Y-96750604D01*
X133285000Y-96934333D01*
X133285000Y-97121667D01*
X133248454Y-97305396D01*
X133176766Y-97478466D01*
X133072688Y-97634230D01*
X132940230Y-97766688D01*
X132784466Y-97870766D01*
X132611396Y-97942454D01*
X132427667Y-97979000D01*
X132240333Y-97979000D01*
X132056604Y-97942454D01*
X131883534Y-97870766D01*
X131727770Y-97766688D01*
X131595312Y-97634230D01*
X131491234Y-97478466D01*
X131419546Y-97305396D01*
X131383000Y-97121667D01*
X131383000Y-96934333D01*
X131419546Y-96750604D01*
X131491234Y-96577534D01*
X131595312Y-96421770D01*
X131727770Y-96289312D01*
X131883534Y-96185234D01*
X132056604Y-96113546D01*
X132240333Y-96077000D01*
X132427667Y-96077000D01*
X132611396Y-96113546D01*
X132611396Y-96113546D01*
G37*
G36*
X140064443Y-96133519D02*
X140130627Y-96140037D01*
X140241049Y-96173533D01*
X140300467Y-96191557D01*
X140439087Y-96265652D01*
X140456991Y-96275222D01*
X140492729Y-96304552D01*
X140594186Y-96387814D01*
X140677448Y-96489271D01*
X140706778Y-96525009D01*
X140706779Y-96525011D01*
X140790443Y-96681533D01*
X140807616Y-96738147D01*
X140841963Y-96851373D01*
X140859359Y-97028000D01*
X140841963Y-97204627D01*
X140821289Y-97272779D01*
X140790443Y-97374467D01*
X140734853Y-97478467D01*
X140706778Y-97530991D01*
X140677448Y-97566729D01*
X140594186Y-97668186D01*
X140492729Y-97751448D01*
X140456991Y-97780778D01*
X140456989Y-97780779D01*
X140300467Y-97864443D01*
X140279622Y-97870766D01*
X140130627Y-97915963D01*
X140064442Y-97922482D01*
X139998260Y-97929000D01*
X139909740Y-97929000D01*
X139843558Y-97922482D01*
X139777373Y-97915963D01*
X139628378Y-97870766D01*
X139607533Y-97864443D01*
X139451011Y-97780779D01*
X139451009Y-97780778D01*
X139415271Y-97751448D01*
X139313814Y-97668186D01*
X139230552Y-97566729D01*
X139201222Y-97530991D01*
X139173147Y-97478467D01*
X139117557Y-97374467D01*
X139086711Y-97272779D01*
X139066037Y-97204627D01*
X139048641Y-97028000D01*
X139066037Y-96851373D01*
X139100384Y-96738147D01*
X139117557Y-96681533D01*
X139201221Y-96525011D01*
X139201222Y-96525009D01*
X139230552Y-96489271D01*
X139313814Y-96387814D01*
X139415271Y-96304552D01*
X139451009Y-96275222D01*
X139468913Y-96265652D01*
X139607533Y-96191557D01*
X139666951Y-96173533D01*
X139777373Y-96140037D01*
X139843557Y-96133519D01*
X139909740Y-96127000D01*
X139998260Y-96127000D01*
X140064443Y-96133519D01*
X140064443Y-96133519D01*
G37*
G36*
X160109000Y-97625000D02*
X158407000Y-97625000D01*
X158407000Y-95923000D01*
X160109000Y-95923000D01*
X160109000Y-97625000D01*
X160109000Y-97625000D01*
G37*
G36*
X164173000Y-97625000D02*
X162471000Y-97625000D01*
X162471000Y-95923000D01*
X164173000Y-95923000D01*
X164173000Y-97625000D01*
X164173000Y-97625000D01*
G37*
G36*
X147917000Y-97625000D02*
X146215000Y-97625000D01*
X146215000Y-95923000D01*
X147917000Y-95923000D01*
X147917000Y-97625000D01*
X147917000Y-97625000D01*
G37*
G36*
X151981000Y-97625000D02*
X150279000Y-97625000D01*
X150279000Y-95923000D01*
X151981000Y-95923000D01*
X151981000Y-97625000D01*
X151981000Y-97625000D01*
G37*
G36*
X156045000Y-97625000D02*
X154343000Y-97625000D01*
X154343000Y-95923000D01*
X156045000Y-95923000D01*
X156045000Y-97625000D01*
X156045000Y-97625000D01*
G37*
G36*
X104250442Y-95625518D02*
X104316627Y-95632037D01*
X104429853Y-95666384D01*
X104486467Y-95683557D01*
X104625087Y-95757652D01*
X104642991Y-95767222D01*
X104678729Y-95796552D01*
X104780186Y-95879814D01*
X104863448Y-95981271D01*
X104892778Y-96017009D01*
X104892779Y-96017011D01*
X104976443Y-96173533D01*
X104981910Y-96191557D01*
X105027963Y-96343373D01*
X105045359Y-96520000D01*
X105027963Y-96696627D01*
X105011589Y-96750604D01*
X104976443Y-96866467D01*
X104940167Y-96934333D01*
X104892778Y-97022991D01*
X104888667Y-97028000D01*
X104780186Y-97160186D01*
X104678729Y-97243448D01*
X104642991Y-97272778D01*
X104642989Y-97272779D01*
X104486467Y-97356443D01*
X104429853Y-97373616D01*
X104316627Y-97407963D01*
X104250442Y-97414482D01*
X104184260Y-97421000D01*
X104095740Y-97421000D01*
X104029558Y-97414482D01*
X103963373Y-97407963D01*
X103850147Y-97373616D01*
X103793533Y-97356443D01*
X103637011Y-97272779D01*
X103637009Y-97272778D01*
X103601271Y-97243448D01*
X103499814Y-97160186D01*
X103391333Y-97028000D01*
X103387222Y-97022991D01*
X103339833Y-96934333D01*
X103303557Y-96866467D01*
X103268411Y-96750604D01*
X103252037Y-96696627D01*
X103234641Y-96520000D01*
X103252037Y-96343373D01*
X103298090Y-96191557D01*
X103303557Y-96173533D01*
X103387221Y-96017011D01*
X103387222Y-96017009D01*
X103416552Y-95981271D01*
X103499814Y-95879814D01*
X103601271Y-95796552D01*
X103637009Y-95767222D01*
X103654913Y-95757652D01*
X103793533Y-95683557D01*
X103850147Y-95666384D01*
X103963373Y-95632037D01*
X104029558Y-95625518D01*
X104095740Y-95619000D01*
X104184260Y-95619000D01*
X104250442Y-95625518D01*
X104250442Y-95625518D01*
G37*
G36*
X109563000Y-96863000D02*
X107861000Y-96863000D01*
X107861000Y-95161000D01*
X109563000Y-95161000D01*
X109563000Y-96863000D01*
X109563000Y-96863000D01*
G37*
G36*
X113373000Y-96863000D02*
X111671000Y-96863000D01*
X111671000Y-95161000D01*
X113373000Y-95161000D01*
X113373000Y-96863000D01*
X113373000Y-96863000D01*
G37*
G36*
X104250443Y-93085519D02*
X104316627Y-93092037D01*
X104429853Y-93126384D01*
X104486467Y-93143557D01*
X104625087Y-93217652D01*
X104642991Y-93227222D01*
X104678729Y-93256552D01*
X104780186Y-93339814D01*
X104863448Y-93441271D01*
X104892778Y-93477009D01*
X104892779Y-93477011D01*
X104976443Y-93633533D01*
X104976443Y-93633534D01*
X105027963Y-93803373D01*
X105045359Y-93980000D01*
X105027963Y-94156627D01*
X104993616Y-94269853D01*
X104976443Y-94326467D01*
X104902348Y-94465087D01*
X104892778Y-94482991D01*
X104863448Y-94518729D01*
X104780186Y-94620186D01*
X104678729Y-94703448D01*
X104642991Y-94732778D01*
X104642989Y-94732779D01*
X104486467Y-94816443D01*
X104429853Y-94833616D01*
X104316627Y-94867963D01*
X104250443Y-94874481D01*
X104184260Y-94881000D01*
X104095740Y-94881000D01*
X104029557Y-94874481D01*
X103963373Y-94867963D01*
X103850147Y-94833616D01*
X103793533Y-94816443D01*
X103637011Y-94732779D01*
X103637009Y-94732778D01*
X103601271Y-94703448D01*
X103499814Y-94620186D01*
X103416552Y-94518729D01*
X103387222Y-94482991D01*
X103377652Y-94465087D01*
X103303557Y-94326467D01*
X103286384Y-94269853D01*
X103252037Y-94156627D01*
X103234641Y-93980000D01*
X103252037Y-93803373D01*
X103303557Y-93633534D01*
X103303557Y-93633533D01*
X103387221Y-93477011D01*
X103387222Y-93477009D01*
X103416552Y-93441271D01*
X103499814Y-93339814D01*
X103601271Y-93256552D01*
X103637009Y-93227222D01*
X103654913Y-93217652D01*
X103793533Y-93143557D01*
X103850147Y-93126384D01*
X103963373Y-93092037D01*
X104029557Y-93085519D01*
X104095740Y-93079000D01*
X104184260Y-93079000D01*
X104250443Y-93085519D01*
X104250443Y-93085519D01*
G37*
G36*
X148105396Y-91033546D02*
X148278466Y-91105234D01*
X148434230Y-91209312D01*
X148566688Y-91341770D01*
X148670766Y-91497534D01*
X148742454Y-91670604D01*
X148779000Y-91854333D01*
X148779000Y-92041667D01*
X148742454Y-92225396D01*
X148670766Y-92398466D01*
X148566688Y-92554230D01*
X148434230Y-92686688D01*
X148278466Y-92790766D01*
X148105396Y-92862454D01*
X147921667Y-92899000D01*
X147734333Y-92899000D01*
X147550604Y-92862454D01*
X147377534Y-92790766D01*
X147221770Y-92686688D01*
X147089312Y-92554230D01*
X146985234Y-92398466D01*
X146913546Y-92225396D01*
X146877000Y-92041667D01*
X146877000Y-91854333D01*
X146913546Y-91670604D01*
X146985234Y-91497534D01*
X147089312Y-91341770D01*
X147221770Y-91209312D01*
X147377534Y-91105234D01*
X147550604Y-91033546D01*
X147734333Y-90997000D01*
X147921667Y-90997000D01*
X148105396Y-91033546D01*
X148105396Y-91033546D01*
G37*
G36*
X122451396Y-91033546D02*
X122624466Y-91105234D01*
X122780230Y-91209312D01*
X122912688Y-91341770D01*
X123016766Y-91497534D01*
X123088454Y-91670604D01*
X123125000Y-91854333D01*
X123125000Y-92041667D01*
X123088454Y-92225396D01*
X123016766Y-92398466D01*
X122912688Y-92554230D01*
X122780230Y-92686688D01*
X122624466Y-92790766D01*
X122451396Y-92862454D01*
X122267667Y-92899000D01*
X122080333Y-92899000D01*
X121896604Y-92862454D01*
X121723534Y-92790766D01*
X121567770Y-92686688D01*
X121435312Y-92554230D01*
X121331234Y-92398466D01*
X121259546Y-92225396D01*
X121223000Y-92041667D01*
X121223000Y-91854333D01*
X121259546Y-91670604D01*
X121331234Y-91497534D01*
X121435312Y-91341770D01*
X121567770Y-91209312D01*
X121723534Y-91105234D01*
X121896604Y-91033546D01*
X122080333Y-90997000D01*
X122267667Y-90997000D01*
X122451396Y-91033546D01*
X122451396Y-91033546D01*
G37*
G36*
X127531396Y-91033546D02*
X127704466Y-91105234D01*
X127860230Y-91209312D01*
X127992688Y-91341770D01*
X128096766Y-91497534D01*
X128168454Y-91670604D01*
X128205000Y-91854333D01*
X128205000Y-92041667D01*
X128168454Y-92225396D01*
X128096766Y-92398466D01*
X127992688Y-92554230D01*
X127860230Y-92686688D01*
X127704466Y-92790766D01*
X127531396Y-92862454D01*
X127347667Y-92899000D01*
X127160333Y-92899000D01*
X126976604Y-92862454D01*
X126803534Y-92790766D01*
X126647770Y-92686688D01*
X126515312Y-92554230D01*
X126411234Y-92398466D01*
X126339546Y-92225396D01*
X126303000Y-92041667D01*
X126303000Y-91854333D01*
X126339546Y-91670604D01*
X126411234Y-91497534D01*
X126515312Y-91341770D01*
X126647770Y-91209312D01*
X126803534Y-91105234D01*
X126976604Y-91033546D01*
X127160333Y-90997000D01*
X127347667Y-90997000D01*
X127531396Y-91033546D01*
X127531396Y-91033546D01*
G37*
G36*
X132611396Y-91033546D02*
X132784466Y-91105234D01*
X132940230Y-91209312D01*
X133072688Y-91341770D01*
X133176766Y-91497534D01*
X133248454Y-91670604D01*
X133285000Y-91854333D01*
X133285000Y-92041667D01*
X133248454Y-92225396D01*
X133176766Y-92398466D01*
X133072688Y-92554230D01*
X132940230Y-92686688D01*
X132784466Y-92790766D01*
X132611396Y-92862454D01*
X132427667Y-92899000D01*
X132240333Y-92899000D01*
X132056604Y-92862454D01*
X131883534Y-92790766D01*
X131727770Y-92686688D01*
X131595312Y-92554230D01*
X131491234Y-92398466D01*
X131419546Y-92225396D01*
X131383000Y-92041667D01*
X131383000Y-91854333D01*
X131419546Y-91670604D01*
X131491234Y-91497534D01*
X131595312Y-91341770D01*
X131727770Y-91209312D01*
X131883534Y-91105234D01*
X132056604Y-91033546D01*
X132240333Y-90997000D01*
X132427667Y-90997000D01*
X132611396Y-91033546D01*
X132611396Y-91033546D01*
G37*
G36*
X135151396Y-91033546D02*
X135324466Y-91105234D01*
X135480230Y-91209312D01*
X135612688Y-91341770D01*
X135716766Y-91497534D01*
X135788454Y-91670604D01*
X135825000Y-91854333D01*
X135825000Y-92041667D01*
X135788454Y-92225396D01*
X135716766Y-92398466D01*
X135612688Y-92554230D01*
X135480230Y-92686688D01*
X135324466Y-92790766D01*
X135151396Y-92862454D01*
X134967667Y-92899000D01*
X134780333Y-92899000D01*
X134596604Y-92862454D01*
X134423534Y-92790766D01*
X134267770Y-92686688D01*
X134135312Y-92554230D01*
X134031234Y-92398466D01*
X133959546Y-92225396D01*
X133923000Y-92041667D01*
X133923000Y-91854333D01*
X133959546Y-91670604D01*
X134031234Y-91497534D01*
X134135312Y-91341770D01*
X134267770Y-91209312D01*
X134423534Y-91105234D01*
X134596604Y-91033546D01*
X134780333Y-90997000D01*
X134967667Y-90997000D01*
X135151396Y-91033546D01*
X135151396Y-91033546D01*
G37*
G36*
X143025396Y-91033546D02*
X143198466Y-91105234D01*
X143354230Y-91209312D01*
X143486688Y-91341770D01*
X143590766Y-91497534D01*
X143662454Y-91670604D01*
X143699000Y-91854333D01*
X143699000Y-92041667D01*
X143662454Y-92225396D01*
X143590766Y-92398466D01*
X143486688Y-92554230D01*
X143354230Y-92686688D01*
X143198466Y-92790766D01*
X143025396Y-92862454D01*
X142841667Y-92899000D01*
X142654333Y-92899000D01*
X142470604Y-92862454D01*
X142297534Y-92790766D01*
X142141770Y-92686688D01*
X142009312Y-92554230D01*
X141905234Y-92398466D01*
X141833546Y-92225396D01*
X141797000Y-92041667D01*
X141797000Y-91854333D01*
X141833546Y-91670604D01*
X141905234Y-91497534D01*
X142009312Y-91341770D01*
X142141770Y-91209312D01*
X142297534Y-91105234D01*
X142470604Y-91033546D01*
X142654333Y-90997000D01*
X142841667Y-90997000D01*
X143025396Y-91033546D01*
X143025396Y-91033546D01*
G37*
G36*
X153185396Y-91033546D02*
X153358466Y-91105234D01*
X153514230Y-91209312D01*
X153646688Y-91341770D01*
X153750766Y-91497534D01*
X153822454Y-91670604D01*
X153859000Y-91854333D01*
X153859000Y-92041667D01*
X153822454Y-92225396D01*
X153750766Y-92398466D01*
X153646688Y-92554230D01*
X153514230Y-92686688D01*
X153358466Y-92790766D01*
X153185396Y-92862454D01*
X153001667Y-92899000D01*
X152814333Y-92899000D01*
X152630604Y-92862454D01*
X152457534Y-92790766D01*
X152301770Y-92686688D01*
X152169312Y-92554230D01*
X152065234Y-92398466D01*
X151993546Y-92225396D01*
X151957000Y-92041667D01*
X151957000Y-91854333D01*
X151993546Y-91670604D01*
X152065234Y-91497534D01*
X152169312Y-91341770D01*
X152301770Y-91209312D01*
X152457534Y-91105234D01*
X152630604Y-91033546D01*
X152814333Y-90997000D01*
X153001667Y-90997000D01*
X153185396Y-91033546D01*
X153185396Y-91033546D01*
G37*
G36*
X117371396Y-91033546D02*
X117544466Y-91105234D01*
X117700230Y-91209312D01*
X117832688Y-91341770D01*
X117936766Y-91497534D01*
X118008454Y-91670604D01*
X118045000Y-91854333D01*
X118045000Y-92041667D01*
X118008454Y-92225396D01*
X117936766Y-92398466D01*
X117832688Y-92554230D01*
X117700230Y-92686688D01*
X117544466Y-92790766D01*
X117371396Y-92862454D01*
X117187667Y-92899000D01*
X117000333Y-92899000D01*
X116816604Y-92862454D01*
X116643534Y-92790766D01*
X116487770Y-92686688D01*
X116355312Y-92554230D01*
X116251234Y-92398466D01*
X116179546Y-92225396D01*
X116143000Y-92041667D01*
X116143000Y-91854333D01*
X116179546Y-91670604D01*
X116251234Y-91497534D01*
X116355312Y-91341770D01*
X116487770Y-91209312D01*
X116643534Y-91105234D01*
X116816604Y-91033546D01*
X117000333Y-90997000D01*
X117187667Y-90997000D01*
X117371396Y-91033546D01*
X117371396Y-91033546D01*
G37*
G36*
X158265396Y-91033546D02*
X158438466Y-91105234D01*
X158594230Y-91209312D01*
X158726688Y-91341770D01*
X158830766Y-91497534D01*
X158902454Y-91670604D01*
X158939000Y-91854333D01*
X158939000Y-92041667D01*
X158902454Y-92225396D01*
X158830766Y-92398466D01*
X158726688Y-92554230D01*
X158594230Y-92686688D01*
X158438466Y-92790766D01*
X158265396Y-92862454D01*
X158081667Y-92899000D01*
X157894333Y-92899000D01*
X157710604Y-92862454D01*
X157537534Y-92790766D01*
X157381770Y-92686688D01*
X157249312Y-92554230D01*
X157145234Y-92398466D01*
X157073546Y-92225396D01*
X157037000Y-92041667D01*
X157037000Y-91854333D01*
X157073546Y-91670604D01*
X157145234Y-91497534D01*
X157249312Y-91341770D01*
X157381770Y-91209312D01*
X157537534Y-91105234D01*
X157710604Y-91033546D01*
X157894333Y-90997000D01*
X158081667Y-90997000D01*
X158265396Y-91033546D01*
X158265396Y-91033546D01*
G37*
G36*
X160805396Y-91033546D02*
X160978466Y-91105234D01*
X161134230Y-91209312D01*
X161266688Y-91341770D01*
X161370766Y-91497534D01*
X161442454Y-91670604D01*
X161479000Y-91854333D01*
X161479000Y-92041667D01*
X161442454Y-92225396D01*
X161370766Y-92398466D01*
X161266688Y-92554230D01*
X161134230Y-92686688D01*
X160978466Y-92790766D01*
X160805396Y-92862454D01*
X160621667Y-92899000D01*
X160434333Y-92899000D01*
X160250604Y-92862454D01*
X160077534Y-92790766D01*
X159921770Y-92686688D01*
X159789312Y-92554230D01*
X159685234Y-92398466D01*
X159613546Y-92225396D01*
X159577000Y-92041667D01*
X159577000Y-91854333D01*
X159613546Y-91670604D01*
X159685234Y-91497534D01*
X159789312Y-91341770D01*
X159921770Y-91209312D01*
X160077534Y-91105234D01*
X160250604Y-91033546D01*
X160434333Y-90997000D01*
X160621667Y-90997000D01*
X160805396Y-91033546D01*
X160805396Y-91033546D01*
G37*
G36*
X104250443Y-90545519D02*
X104316627Y-90552037D01*
X104429853Y-90586384D01*
X104486467Y-90603557D01*
X104625087Y-90677652D01*
X104642991Y-90687222D01*
X104678729Y-90716552D01*
X104780186Y-90799814D01*
X104863448Y-90901271D01*
X104892778Y-90937009D01*
X104892779Y-90937011D01*
X104976443Y-91093533D01*
X104993616Y-91150147D01*
X105027963Y-91263373D01*
X105045359Y-91440000D01*
X105027963Y-91616627D01*
X105011589Y-91670604D01*
X104976443Y-91786467D01*
X104940167Y-91854333D01*
X104892778Y-91942991D01*
X104863448Y-91978729D01*
X104780186Y-92080186D01*
X104678729Y-92163448D01*
X104642991Y-92192778D01*
X104642989Y-92192779D01*
X104486467Y-92276443D01*
X104429853Y-92293616D01*
X104316627Y-92327963D01*
X104250443Y-92334481D01*
X104184260Y-92341000D01*
X104095740Y-92341000D01*
X104029557Y-92334481D01*
X103963373Y-92327963D01*
X103850147Y-92293616D01*
X103793533Y-92276443D01*
X103637011Y-92192779D01*
X103637009Y-92192778D01*
X103601271Y-92163448D01*
X103499814Y-92080186D01*
X103416552Y-91978729D01*
X103387222Y-91942991D01*
X103339833Y-91854333D01*
X103303557Y-91786467D01*
X103268411Y-91670604D01*
X103252037Y-91616627D01*
X103234641Y-91440000D01*
X103252037Y-91263373D01*
X103286384Y-91150147D01*
X103303557Y-91093533D01*
X103387221Y-90937011D01*
X103387222Y-90937009D01*
X103416552Y-90901271D01*
X103499814Y-90799814D01*
X103601271Y-90716552D01*
X103637009Y-90687222D01*
X103654913Y-90677652D01*
X103793533Y-90603557D01*
X103850147Y-90586384D01*
X103963373Y-90552037D01*
X104029557Y-90545519D01*
X104095740Y-90539000D01*
X104184260Y-90539000D01*
X104250443Y-90545519D01*
X104250443Y-90545519D01*
G37*
G36*
X104250443Y-88005519D02*
X104316627Y-88012037D01*
X104429853Y-88046384D01*
X104486467Y-88063557D01*
X104625087Y-88137652D01*
X104642991Y-88147222D01*
X104678729Y-88176552D01*
X104780186Y-88259814D01*
X104863448Y-88361271D01*
X104892778Y-88397009D01*
X104892779Y-88397011D01*
X104976443Y-88553533D01*
X104976443Y-88553534D01*
X105027963Y-88723373D01*
X105045359Y-88900000D01*
X105027963Y-89076627D01*
X104993616Y-89189853D01*
X104976443Y-89246467D01*
X104902348Y-89385087D01*
X104892778Y-89402991D01*
X104863448Y-89438729D01*
X104780186Y-89540186D01*
X104678729Y-89623448D01*
X104642991Y-89652778D01*
X104642989Y-89652779D01*
X104486467Y-89736443D01*
X104429853Y-89753616D01*
X104316627Y-89787963D01*
X104250443Y-89794481D01*
X104184260Y-89801000D01*
X104095740Y-89801000D01*
X104029557Y-89794481D01*
X103963373Y-89787963D01*
X103850147Y-89753616D01*
X103793533Y-89736443D01*
X103637011Y-89652779D01*
X103637009Y-89652778D01*
X103601271Y-89623448D01*
X103499814Y-89540186D01*
X103416552Y-89438729D01*
X103387222Y-89402991D01*
X103377652Y-89385087D01*
X103303557Y-89246467D01*
X103286384Y-89189853D01*
X103252037Y-89076627D01*
X103234641Y-88900000D01*
X103252037Y-88723373D01*
X103303557Y-88553534D01*
X103303557Y-88553533D01*
X103387221Y-88397011D01*
X103387222Y-88397009D01*
X103416552Y-88361271D01*
X103499814Y-88259814D01*
X103601271Y-88176552D01*
X103637009Y-88147222D01*
X103654913Y-88137652D01*
X103793533Y-88063557D01*
X103850147Y-88046384D01*
X103963373Y-88012037D01*
X104029557Y-88005519D01*
X104095740Y-87999000D01*
X104184260Y-87999000D01*
X104250443Y-88005519D01*
X104250443Y-88005519D01*
G37*
G36*
X153185396Y-83413546D02*
X153358466Y-83485234D01*
X153514230Y-83589312D01*
X153646688Y-83721770D01*
X153750766Y-83877534D01*
X153822454Y-84050604D01*
X153859000Y-84234333D01*
X153859000Y-84421667D01*
X153822454Y-84605396D01*
X153750766Y-84778466D01*
X153646688Y-84934230D01*
X153514230Y-85066688D01*
X153358466Y-85170766D01*
X153185396Y-85242454D01*
X153001667Y-85279000D01*
X152814333Y-85279000D01*
X152630604Y-85242454D01*
X152457534Y-85170766D01*
X152301770Y-85066688D01*
X152169312Y-84934230D01*
X152065234Y-84778466D01*
X151993546Y-84605396D01*
X151957000Y-84421667D01*
X151957000Y-84234333D01*
X151993546Y-84050604D01*
X152065234Y-83877534D01*
X152169312Y-83721770D01*
X152301770Y-83589312D01*
X152457534Y-83485234D01*
X152630604Y-83413546D01*
X152814333Y-83377000D01*
X153001667Y-83377000D01*
X153185396Y-83413546D01*
X153185396Y-83413546D01*
G37*
G36*
X122451396Y-83413546D02*
X122624466Y-83485234D01*
X122780230Y-83589312D01*
X122912688Y-83721770D01*
X123016766Y-83877534D01*
X123088454Y-84050604D01*
X123125000Y-84234333D01*
X123125000Y-84421667D01*
X123088454Y-84605396D01*
X123016766Y-84778466D01*
X122912688Y-84934230D01*
X122780230Y-85066688D01*
X122624466Y-85170766D01*
X122451396Y-85242454D01*
X122267667Y-85279000D01*
X122080333Y-85279000D01*
X121896604Y-85242454D01*
X121723534Y-85170766D01*
X121567770Y-85066688D01*
X121435312Y-84934230D01*
X121331234Y-84778466D01*
X121259546Y-84605396D01*
X121223000Y-84421667D01*
X121223000Y-84234333D01*
X121259546Y-84050604D01*
X121331234Y-83877534D01*
X121435312Y-83721770D01*
X121567770Y-83589312D01*
X121723534Y-83485234D01*
X121896604Y-83413546D01*
X122080333Y-83377000D01*
X122267667Y-83377000D01*
X122451396Y-83413546D01*
X122451396Y-83413546D01*
G37*
G36*
X127531396Y-83413546D02*
X127704466Y-83485234D01*
X127860230Y-83589312D01*
X127992688Y-83721770D01*
X128096766Y-83877534D01*
X128168454Y-84050604D01*
X128205000Y-84234333D01*
X128205000Y-84421667D01*
X128168454Y-84605396D01*
X128096766Y-84778466D01*
X127992688Y-84934230D01*
X127860230Y-85066688D01*
X127704466Y-85170766D01*
X127531396Y-85242454D01*
X127347667Y-85279000D01*
X127160333Y-85279000D01*
X126976604Y-85242454D01*
X126803534Y-85170766D01*
X126647770Y-85066688D01*
X126515312Y-84934230D01*
X126411234Y-84778466D01*
X126339546Y-84605396D01*
X126303000Y-84421667D01*
X126303000Y-84234333D01*
X126339546Y-84050604D01*
X126411234Y-83877534D01*
X126515312Y-83721770D01*
X126647770Y-83589312D01*
X126803534Y-83485234D01*
X126976604Y-83413546D01*
X127160333Y-83377000D01*
X127347667Y-83377000D01*
X127531396Y-83413546D01*
X127531396Y-83413546D01*
G37*
G36*
X132611396Y-83413546D02*
X132784466Y-83485234D01*
X132940230Y-83589312D01*
X133072688Y-83721770D01*
X133176766Y-83877534D01*
X133248454Y-84050604D01*
X133285000Y-84234333D01*
X133285000Y-84421667D01*
X133248454Y-84605396D01*
X133176766Y-84778466D01*
X133072688Y-84934230D01*
X132940230Y-85066688D01*
X132784466Y-85170766D01*
X132611396Y-85242454D01*
X132427667Y-85279000D01*
X132240333Y-85279000D01*
X132056604Y-85242454D01*
X131883534Y-85170766D01*
X131727770Y-85066688D01*
X131595312Y-84934230D01*
X131491234Y-84778466D01*
X131419546Y-84605396D01*
X131383000Y-84421667D01*
X131383000Y-84234333D01*
X131419546Y-84050604D01*
X131491234Y-83877534D01*
X131595312Y-83721770D01*
X131727770Y-83589312D01*
X131883534Y-83485234D01*
X132056604Y-83413546D01*
X132240333Y-83377000D01*
X132427667Y-83377000D01*
X132611396Y-83413546D01*
X132611396Y-83413546D01*
G37*
G36*
X135151396Y-83413546D02*
X135324466Y-83485234D01*
X135480230Y-83589312D01*
X135612688Y-83721770D01*
X135716766Y-83877534D01*
X135788454Y-84050604D01*
X135825000Y-84234333D01*
X135825000Y-84421667D01*
X135788454Y-84605396D01*
X135716766Y-84778466D01*
X135612688Y-84934230D01*
X135480230Y-85066688D01*
X135324466Y-85170766D01*
X135151396Y-85242454D01*
X134967667Y-85279000D01*
X134780333Y-85279000D01*
X134596604Y-85242454D01*
X134423534Y-85170766D01*
X134267770Y-85066688D01*
X134135312Y-84934230D01*
X134031234Y-84778466D01*
X133959546Y-84605396D01*
X133923000Y-84421667D01*
X133923000Y-84234333D01*
X133959546Y-84050604D01*
X134031234Y-83877534D01*
X134135312Y-83721770D01*
X134267770Y-83589312D01*
X134423534Y-83485234D01*
X134596604Y-83413546D01*
X134780333Y-83377000D01*
X134967667Y-83377000D01*
X135151396Y-83413546D01*
X135151396Y-83413546D01*
G37*
G36*
X148105396Y-83413546D02*
X148278466Y-83485234D01*
X148434230Y-83589312D01*
X148566688Y-83721770D01*
X148670766Y-83877534D01*
X148742454Y-84050604D01*
X148779000Y-84234333D01*
X148779000Y-84421667D01*
X148742454Y-84605396D01*
X148670766Y-84778466D01*
X148566688Y-84934230D01*
X148434230Y-85066688D01*
X148278466Y-85170766D01*
X148105396Y-85242454D01*
X147921667Y-85279000D01*
X147734333Y-85279000D01*
X147550604Y-85242454D01*
X147377534Y-85170766D01*
X147221770Y-85066688D01*
X147089312Y-84934230D01*
X146985234Y-84778466D01*
X146913546Y-84605396D01*
X146877000Y-84421667D01*
X146877000Y-84234333D01*
X146913546Y-84050604D01*
X146985234Y-83877534D01*
X147089312Y-83721770D01*
X147221770Y-83589312D01*
X147377534Y-83485234D01*
X147550604Y-83413546D01*
X147734333Y-83377000D01*
X147921667Y-83377000D01*
X148105396Y-83413546D01*
X148105396Y-83413546D01*
G37*
G36*
X158265396Y-83413546D02*
X158438466Y-83485234D01*
X158594230Y-83589312D01*
X158726688Y-83721770D01*
X158830766Y-83877534D01*
X158902454Y-84050604D01*
X158939000Y-84234333D01*
X158939000Y-84421667D01*
X158902454Y-84605396D01*
X158830766Y-84778466D01*
X158726688Y-84934230D01*
X158594230Y-85066688D01*
X158438466Y-85170766D01*
X158265396Y-85242454D01*
X158081667Y-85279000D01*
X157894333Y-85279000D01*
X157710604Y-85242454D01*
X157537534Y-85170766D01*
X157381770Y-85066688D01*
X157249312Y-84934230D01*
X157145234Y-84778466D01*
X157073546Y-84605396D01*
X157037000Y-84421667D01*
X157037000Y-84234333D01*
X157073546Y-84050604D01*
X157145234Y-83877534D01*
X157249312Y-83721770D01*
X157381770Y-83589312D01*
X157537534Y-83485234D01*
X157710604Y-83413546D01*
X157894333Y-83377000D01*
X158081667Y-83377000D01*
X158265396Y-83413546D01*
X158265396Y-83413546D01*
G37*
G36*
X160805396Y-83413546D02*
X160978466Y-83485234D01*
X161134230Y-83589312D01*
X161266688Y-83721770D01*
X161370766Y-83877534D01*
X161442454Y-84050604D01*
X161479000Y-84234333D01*
X161479000Y-84421667D01*
X161442454Y-84605396D01*
X161370766Y-84778466D01*
X161266688Y-84934230D01*
X161134230Y-85066688D01*
X160978466Y-85170766D01*
X160805396Y-85242454D01*
X160621667Y-85279000D01*
X160434333Y-85279000D01*
X160250604Y-85242454D01*
X160077534Y-85170766D01*
X159921770Y-85066688D01*
X159789312Y-84934230D01*
X159685234Y-84778466D01*
X159613546Y-84605396D01*
X159577000Y-84421667D01*
X159577000Y-84234333D01*
X159613546Y-84050604D01*
X159685234Y-83877534D01*
X159789312Y-83721770D01*
X159921770Y-83589312D01*
X160077534Y-83485234D01*
X160250604Y-83413546D01*
X160434333Y-83377000D01*
X160621667Y-83377000D01*
X160805396Y-83413546D01*
X160805396Y-83413546D01*
G37*
G36*
X117371396Y-83413546D02*
X117544466Y-83485234D01*
X117700230Y-83589312D01*
X117832688Y-83721770D01*
X117936766Y-83877534D01*
X118008454Y-84050604D01*
X118045000Y-84234333D01*
X118045000Y-84421667D01*
X118008454Y-84605396D01*
X117936766Y-84778466D01*
X117832688Y-84934230D01*
X117700230Y-85066688D01*
X117544466Y-85170766D01*
X117371396Y-85242454D01*
X117187667Y-85279000D01*
X117000333Y-85279000D01*
X116816604Y-85242454D01*
X116643534Y-85170766D01*
X116487770Y-85066688D01*
X116355312Y-84934230D01*
X116251234Y-84778466D01*
X116179546Y-84605396D01*
X116143000Y-84421667D01*
X116143000Y-84234333D01*
X116179546Y-84050604D01*
X116251234Y-83877534D01*
X116355312Y-83721770D01*
X116487770Y-83589312D01*
X116643534Y-83485234D01*
X116816604Y-83413546D01*
X117000333Y-83377000D01*
X117187667Y-83377000D01*
X117371396Y-83413546D01*
X117371396Y-83413546D01*
G37*
G36*
X143025396Y-83413546D02*
X143198466Y-83485234D01*
X143354230Y-83589312D01*
X143486688Y-83721770D01*
X143590766Y-83877534D01*
X143662454Y-84050604D01*
X143699000Y-84234333D01*
X143699000Y-84421667D01*
X143662454Y-84605396D01*
X143590766Y-84778466D01*
X143486688Y-84934230D01*
X143354230Y-85066688D01*
X143198466Y-85170766D01*
X143025396Y-85242454D01*
X142841667Y-85279000D01*
X142654333Y-85279000D01*
X142470604Y-85242454D01*
X142297534Y-85170766D01*
X142141770Y-85066688D01*
X142009312Y-84934230D01*
X141905234Y-84778466D01*
X141833546Y-84605396D01*
X141797000Y-84421667D01*
X141797000Y-84234333D01*
X141833546Y-84050604D01*
X141905234Y-83877534D01*
X142009312Y-83721770D01*
X142141770Y-83589312D01*
X142297534Y-83485234D01*
X142470604Y-83413546D01*
X142654333Y-83377000D01*
X142841667Y-83377000D01*
X143025396Y-83413546D01*
X143025396Y-83413546D01*
G37*
G36*
X113819000Y-81053000D02*
X110717000Y-81053000D01*
X110717000Y-77951000D01*
X113819000Y-77951000D01*
X113819000Y-81053000D01*
X113819000Y-81053000D01*
G37*
G36*
X107540527Y-77990736D02*
X107640410Y-78010604D01*
X107922674Y-78127521D01*
X108176705Y-78297259D01*
X108392741Y-78513295D01*
X108562479Y-78767326D01*
X108618069Y-78901534D01*
X108679396Y-79049591D01*
X108739000Y-79349238D01*
X108739000Y-79654762D01*
X108699264Y-79854527D01*
X108679396Y-79954410D01*
X108562479Y-80236674D01*
X108392741Y-80490705D01*
X108176705Y-80706741D01*
X107922674Y-80876479D01*
X107640410Y-80993396D01*
X107540527Y-81013264D01*
X107340762Y-81053000D01*
X107035238Y-81053000D01*
X106835473Y-81013264D01*
X106735590Y-80993396D01*
X106453326Y-80876479D01*
X106199295Y-80706741D01*
X105983259Y-80490705D01*
X105813521Y-80236674D01*
X105696604Y-79954410D01*
X105676736Y-79854527D01*
X105637000Y-79654762D01*
X105637000Y-79349238D01*
X105696604Y-79049591D01*
X105757931Y-78901534D01*
X105813521Y-78767326D01*
X105983259Y-78513295D01*
X106199295Y-78297259D01*
X106453326Y-78127521D01*
X106735590Y-78010604D01*
X106835473Y-77990736D01*
X107035238Y-77951000D01*
X107340762Y-77951000D01*
X107540527Y-77990736D01*
X107540527Y-77990736D01*
G37*
G36*
X166098096Y-75525033D02*
X166098098Y-75525034D01*
X166098099Y-75525034D01*
X166562352Y-75717333D01*
X166978284Y-75995250D01*
X166980171Y-75996511D01*
X167335489Y-76351829D01*
X167335491Y-76351832D01*
X167614667Y-76769648D01*
X167806966Y-77233901D01*
X167806967Y-77233904D01*
X167905000Y-77726747D01*
X167905000Y-78229253D01*
X167848501Y-78513293D01*
X167806966Y-78722099D01*
X167614667Y-79186352D01*
X167341974Y-79594466D01*
X167335489Y-79604171D01*
X166980171Y-79959489D01*
X166980168Y-79959491D01*
X166562352Y-80238667D01*
X166098099Y-80430966D01*
X166098098Y-80430966D01*
X166098096Y-80430967D01*
X165605253Y-80529000D01*
X165102747Y-80529000D01*
X164609904Y-80430967D01*
X164609902Y-80430966D01*
X164609901Y-80430966D01*
X164145648Y-80238667D01*
X163727832Y-79959491D01*
X163727829Y-79959489D01*
X163372511Y-79604171D01*
X163366026Y-79594466D01*
X163093333Y-79186352D01*
X162901034Y-78722099D01*
X162859500Y-78513293D01*
X162803000Y-78229253D01*
X162803000Y-77726747D01*
X162901033Y-77233904D01*
X162901034Y-77233901D01*
X163093333Y-76769648D01*
X163372509Y-76351832D01*
X163372511Y-76351829D01*
X163727829Y-75996511D01*
X163729716Y-75995250D01*
X164145648Y-75717333D01*
X164609901Y-75525034D01*
X164609902Y-75525034D01*
X164609904Y-75525033D01*
X165102747Y-75427000D01*
X165605253Y-75427000D01*
X166098096Y-75525033D01*
X166098096Y-75525033D01*
G37*
G36*
X101074096Y-75525033D02*
X101074098Y-75525034D01*
X101074099Y-75525034D01*
X101538352Y-75717333D01*
X101954284Y-75995250D01*
X101956171Y-75996511D01*
X102311489Y-76351829D01*
X102311491Y-76351832D01*
X102590667Y-76769648D01*
X102782966Y-77233901D01*
X102782967Y-77233904D01*
X102881000Y-77726747D01*
X102881000Y-78229253D01*
X102824501Y-78513293D01*
X102782966Y-78722099D01*
X102590667Y-79186352D01*
X102317974Y-79594466D01*
X102311489Y-79604171D01*
X101956171Y-79959489D01*
X101956168Y-79959491D01*
X101538352Y-80238667D01*
X101074099Y-80430966D01*
X101074098Y-80430966D01*
X101074096Y-80430967D01*
X100581253Y-80529000D01*
X100078747Y-80529000D01*
X99585904Y-80430967D01*
X99585902Y-80430966D01*
X99585901Y-80430966D01*
X99121648Y-80238667D01*
X98703832Y-79959491D01*
X98703829Y-79959489D01*
X98348511Y-79604171D01*
X98342026Y-79594466D01*
X98069333Y-79186352D01*
X97877034Y-78722099D01*
X97835500Y-78513293D01*
X97779000Y-78229253D01*
X97779000Y-77726747D01*
X97877033Y-77233904D01*
X97877034Y-77233901D01*
X98069333Y-76769648D01*
X98348509Y-76351832D01*
X98348511Y-76351829D01*
X98703829Y-75996511D01*
X98705716Y-75995250D01*
X99121648Y-75717333D01*
X99585901Y-75525034D01*
X99585902Y-75525034D01*
X99585904Y-75525033D01*
X100078747Y-75427000D01*
X100581253Y-75427000D01*
X101074096Y-75525033D01*
X101074096Y-75525033D01*
G37*
G36*
X122313000Y-80149000D02*
X120511000Y-80149000D01*
X120511000Y-78347000D01*
X122313000Y-78347000D01*
X122313000Y-80149000D01*
X122313000Y-80149000D01*
G37*
G36*
X118982443Y-78353519D02*
X119048627Y-78360037D01*
X119161853Y-78394384D01*
X119218467Y-78411557D01*
X119357087Y-78485652D01*
X119374991Y-78495222D01*
X119397010Y-78513293D01*
X119512186Y-78607814D01*
X119595448Y-78709271D01*
X119624778Y-78745009D01*
X119624779Y-78745011D01*
X119708443Y-78901533D01*
X119708443Y-78901534D01*
X119759963Y-79071373D01*
X119777359Y-79248000D01*
X119759963Y-79424627D01*
X119725616Y-79537853D01*
X119708443Y-79594467D01*
X119703256Y-79604171D01*
X119624778Y-79750991D01*
X119595448Y-79786729D01*
X119512186Y-79888186D01*
X119425299Y-79959491D01*
X119374991Y-80000778D01*
X119374989Y-80000779D01*
X119218467Y-80084443D01*
X119161853Y-80101616D01*
X119048627Y-80135963D01*
X118982443Y-80142481D01*
X118916260Y-80149000D01*
X118827740Y-80149000D01*
X118761557Y-80142481D01*
X118695373Y-80135963D01*
X118582147Y-80101616D01*
X118525533Y-80084443D01*
X118369011Y-80000779D01*
X118369009Y-80000778D01*
X118318701Y-79959491D01*
X118231814Y-79888186D01*
X118148552Y-79786729D01*
X118119222Y-79750991D01*
X118040744Y-79604171D01*
X118035557Y-79594467D01*
X118018384Y-79537853D01*
X117984037Y-79424627D01*
X117966641Y-79248000D01*
X117984037Y-79071373D01*
X118035557Y-78901534D01*
X118035557Y-78901533D01*
X118119221Y-78745011D01*
X118119222Y-78745009D01*
X118148552Y-78709271D01*
X118231814Y-78607814D01*
X118346990Y-78513293D01*
X118369009Y-78495222D01*
X118386913Y-78485652D01*
X118525533Y-78411557D01*
X118582147Y-78394384D01*
X118695373Y-78360037D01*
X118761557Y-78353519D01*
X118827740Y-78347000D01*
X118916260Y-78347000D01*
X118982443Y-78353519D01*
X118982443Y-78353519D01*
G37*
G36*
X132981000Y-80149000D02*
X131179000Y-80149000D01*
X131179000Y-78347000D01*
X132981000Y-78347000D01*
X132981000Y-80149000D01*
X132981000Y-80149000D01*
G37*
G36*
X138286443Y-78353519D02*
X138352627Y-78360037D01*
X138465853Y-78394384D01*
X138522467Y-78411557D01*
X138661087Y-78485652D01*
X138678991Y-78495222D01*
X138701010Y-78513293D01*
X138816186Y-78607814D01*
X138899448Y-78709271D01*
X138928778Y-78745009D01*
X138928779Y-78745011D01*
X139012443Y-78901533D01*
X139012443Y-78901534D01*
X139063963Y-79071373D01*
X139081359Y-79248000D01*
X139063963Y-79424627D01*
X139029616Y-79537853D01*
X139012443Y-79594467D01*
X139007256Y-79604171D01*
X138928778Y-79750991D01*
X138899448Y-79786729D01*
X138816186Y-79888186D01*
X138729299Y-79959491D01*
X138678991Y-80000778D01*
X138678989Y-80000779D01*
X138522467Y-80084443D01*
X138465853Y-80101616D01*
X138352627Y-80135963D01*
X138286443Y-80142481D01*
X138220260Y-80149000D01*
X138131740Y-80149000D01*
X138065557Y-80142481D01*
X137999373Y-80135963D01*
X137886147Y-80101616D01*
X137829533Y-80084443D01*
X137673011Y-80000779D01*
X137673009Y-80000778D01*
X137622701Y-79959491D01*
X137535814Y-79888186D01*
X137452552Y-79786729D01*
X137423222Y-79750991D01*
X137344744Y-79604171D01*
X137339557Y-79594467D01*
X137322384Y-79537853D01*
X137288037Y-79424627D01*
X137270641Y-79248000D01*
X137288037Y-79071373D01*
X137339557Y-78901534D01*
X137339557Y-78901533D01*
X137423221Y-78745011D01*
X137423222Y-78745009D01*
X137452552Y-78709271D01*
X137535814Y-78607814D01*
X137650990Y-78513293D01*
X137673009Y-78495222D01*
X137690913Y-78485652D01*
X137829533Y-78411557D01*
X137886147Y-78394384D01*
X137999373Y-78360037D01*
X138065557Y-78353519D01*
X138131740Y-78347000D01*
X138220260Y-78347000D01*
X138286443Y-78353519D01*
X138286443Y-78353519D01*
G37*
G36*
X140826443Y-78353519D02*
X140892627Y-78360037D01*
X141005853Y-78394384D01*
X141062467Y-78411557D01*
X141201087Y-78485652D01*
X141218991Y-78495222D01*
X141241010Y-78513293D01*
X141356186Y-78607814D01*
X141439448Y-78709271D01*
X141468778Y-78745009D01*
X141468779Y-78745011D01*
X141552443Y-78901533D01*
X141552443Y-78901534D01*
X141603963Y-79071373D01*
X141621359Y-79248000D01*
X141603963Y-79424627D01*
X141569616Y-79537853D01*
X141552443Y-79594467D01*
X141547256Y-79604171D01*
X141468778Y-79750991D01*
X141439448Y-79786729D01*
X141356186Y-79888186D01*
X141269299Y-79959491D01*
X141218991Y-80000778D01*
X141218989Y-80000779D01*
X141062467Y-80084443D01*
X141005853Y-80101616D01*
X140892627Y-80135963D01*
X140826443Y-80142481D01*
X140760260Y-80149000D01*
X140671740Y-80149000D01*
X140605557Y-80142481D01*
X140539373Y-80135963D01*
X140426147Y-80101616D01*
X140369533Y-80084443D01*
X140213011Y-80000779D01*
X140213009Y-80000778D01*
X140162701Y-79959491D01*
X140075814Y-79888186D01*
X139992552Y-79786729D01*
X139963222Y-79750991D01*
X139884744Y-79604171D01*
X139879557Y-79594467D01*
X139862384Y-79537853D01*
X139828037Y-79424627D01*
X139810641Y-79248000D01*
X139828037Y-79071373D01*
X139879557Y-78901534D01*
X139879557Y-78901533D01*
X139963221Y-78745011D01*
X139963222Y-78745009D01*
X139992552Y-78709271D01*
X140075814Y-78607814D01*
X140190990Y-78513293D01*
X140213009Y-78495222D01*
X140230913Y-78485652D01*
X140369533Y-78411557D01*
X140426147Y-78394384D01*
X140539373Y-78360037D01*
X140605557Y-78353519D01*
X140671740Y-78347000D01*
X140760260Y-78347000D01*
X140826443Y-78353519D01*
X140826443Y-78353519D01*
G37*
G36*
X143366443Y-78353519D02*
X143432627Y-78360037D01*
X143545853Y-78394384D01*
X143602467Y-78411557D01*
X143741087Y-78485652D01*
X143758991Y-78495222D01*
X143781010Y-78513293D01*
X143896186Y-78607814D01*
X143979448Y-78709271D01*
X144008778Y-78745009D01*
X144008779Y-78745011D01*
X144092443Y-78901533D01*
X144092443Y-78901534D01*
X144143963Y-79071373D01*
X144161359Y-79248000D01*
X144143963Y-79424627D01*
X144109616Y-79537853D01*
X144092443Y-79594467D01*
X144087256Y-79604171D01*
X144008778Y-79750991D01*
X143979448Y-79786729D01*
X143896186Y-79888186D01*
X143809299Y-79959491D01*
X143758991Y-80000778D01*
X143758989Y-80000779D01*
X143602467Y-80084443D01*
X143545853Y-80101616D01*
X143432627Y-80135963D01*
X143366443Y-80142481D01*
X143300260Y-80149000D01*
X143211740Y-80149000D01*
X143145557Y-80142481D01*
X143079373Y-80135963D01*
X142966147Y-80101616D01*
X142909533Y-80084443D01*
X142753011Y-80000779D01*
X142753009Y-80000778D01*
X142702701Y-79959491D01*
X142615814Y-79888186D01*
X142532552Y-79786729D01*
X142503222Y-79750991D01*
X142424744Y-79604171D01*
X142419557Y-79594467D01*
X142402384Y-79537853D01*
X142368037Y-79424627D01*
X142350641Y-79248000D01*
X142368037Y-79071373D01*
X142419557Y-78901534D01*
X142419557Y-78901533D01*
X142503221Y-78745011D01*
X142503222Y-78745009D01*
X142532552Y-78709271D01*
X142615814Y-78607814D01*
X142730990Y-78513293D01*
X142753009Y-78495222D01*
X142770913Y-78485652D01*
X142909533Y-78411557D01*
X142966147Y-78394384D01*
X143079373Y-78360037D01*
X143145557Y-78353519D01*
X143211740Y-78347000D01*
X143300260Y-78347000D01*
X143366443Y-78353519D01*
X143366443Y-78353519D01*
G37*
G36*
X146697000Y-80149000D02*
X144895000Y-80149000D01*
X144895000Y-78347000D01*
X146697000Y-78347000D01*
X146697000Y-80149000D01*
X146697000Y-80149000D01*
G37*
G36*
X152510443Y-78353519D02*
X152576627Y-78360037D01*
X152689853Y-78394384D01*
X152746467Y-78411557D01*
X152885087Y-78485652D01*
X152902991Y-78495222D01*
X152925010Y-78513293D01*
X153040186Y-78607814D01*
X153123448Y-78709271D01*
X153152778Y-78745009D01*
X153152779Y-78745011D01*
X153236443Y-78901533D01*
X153236443Y-78901534D01*
X153287963Y-79071373D01*
X153305359Y-79248000D01*
X153287963Y-79424627D01*
X153253616Y-79537853D01*
X153236443Y-79594467D01*
X153231256Y-79604171D01*
X153152778Y-79750991D01*
X153123448Y-79786729D01*
X153040186Y-79888186D01*
X152953299Y-79959491D01*
X152902991Y-80000778D01*
X152902989Y-80000779D01*
X152746467Y-80084443D01*
X152689853Y-80101616D01*
X152576627Y-80135963D01*
X152510443Y-80142481D01*
X152444260Y-80149000D01*
X152355740Y-80149000D01*
X152289557Y-80142481D01*
X152223373Y-80135963D01*
X152110147Y-80101616D01*
X152053533Y-80084443D01*
X151897011Y-80000779D01*
X151897009Y-80000778D01*
X151846701Y-79959491D01*
X151759814Y-79888186D01*
X151676552Y-79786729D01*
X151647222Y-79750991D01*
X151568744Y-79604171D01*
X151563557Y-79594467D01*
X151546384Y-79537853D01*
X151512037Y-79424627D01*
X151494641Y-79248000D01*
X151512037Y-79071373D01*
X151563557Y-78901534D01*
X151563557Y-78901533D01*
X151647221Y-78745011D01*
X151647222Y-78745009D01*
X151676552Y-78709271D01*
X151759814Y-78607814D01*
X151874990Y-78513293D01*
X151897009Y-78495222D01*
X151914913Y-78485652D01*
X152053533Y-78411557D01*
X152110147Y-78394384D01*
X152223373Y-78360037D01*
X152289557Y-78353519D01*
X152355740Y-78347000D01*
X152444260Y-78347000D01*
X152510443Y-78353519D01*
X152510443Y-78353519D01*
G37*
G36*
X155050443Y-78353519D02*
X155116627Y-78360037D01*
X155229853Y-78394384D01*
X155286467Y-78411557D01*
X155425087Y-78485652D01*
X155442991Y-78495222D01*
X155465010Y-78513293D01*
X155580186Y-78607814D01*
X155663448Y-78709271D01*
X155692778Y-78745009D01*
X155692779Y-78745011D01*
X155776443Y-78901533D01*
X155776443Y-78901534D01*
X155827963Y-79071373D01*
X155845359Y-79248000D01*
X155827963Y-79424627D01*
X155793616Y-79537853D01*
X155776443Y-79594467D01*
X155771256Y-79604171D01*
X155692778Y-79750991D01*
X155663448Y-79786729D01*
X155580186Y-79888186D01*
X155493299Y-79959491D01*
X155442991Y-80000778D01*
X155442989Y-80000779D01*
X155286467Y-80084443D01*
X155229853Y-80101616D01*
X155116627Y-80135963D01*
X155050443Y-80142481D01*
X154984260Y-80149000D01*
X154895740Y-80149000D01*
X154829557Y-80142481D01*
X154763373Y-80135963D01*
X154650147Y-80101616D01*
X154593533Y-80084443D01*
X154437011Y-80000779D01*
X154437009Y-80000778D01*
X154386701Y-79959491D01*
X154299814Y-79888186D01*
X154216552Y-79786729D01*
X154187222Y-79750991D01*
X154108744Y-79604171D01*
X154103557Y-79594467D01*
X154086384Y-79537853D01*
X154052037Y-79424627D01*
X154034641Y-79248000D01*
X154052037Y-79071373D01*
X154103557Y-78901534D01*
X154103557Y-78901533D01*
X154187221Y-78745011D01*
X154187222Y-78745009D01*
X154216552Y-78709271D01*
X154299814Y-78607814D01*
X154414990Y-78513293D01*
X154437009Y-78495222D01*
X154454913Y-78485652D01*
X154593533Y-78411557D01*
X154650147Y-78394384D01*
X154763373Y-78360037D01*
X154829557Y-78353519D01*
X154895740Y-78347000D01*
X154984260Y-78347000D01*
X155050443Y-78353519D01*
X155050443Y-78353519D01*
G37*
G36*
X158381000Y-80149000D02*
X156579000Y-80149000D01*
X156579000Y-78347000D01*
X158381000Y-78347000D01*
X158381000Y-80149000D01*
X158381000Y-80149000D01*
G37*
G36*
X129650443Y-78353519D02*
X129716627Y-78360037D01*
X129829853Y-78394384D01*
X129886467Y-78411557D01*
X130025087Y-78485652D01*
X130042991Y-78495222D01*
X130065010Y-78513293D01*
X130180186Y-78607814D01*
X130263448Y-78709271D01*
X130292778Y-78745009D01*
X130292779Y-78745011D01*
X130376443Y-78901533D01*
X130376443Y-78901534D01*
X130427963Y-79071373D01*
X130445359Y-79248000D01*
X130427963Y-79424627D01*
X130393616Y-79537853D01*
X130376443Y-79594467D01*
X130371256Y-79604171D01*
X130292778Y-79750991D01*
X130263448Y-79786729D01*
X130180186Y-79888186D01*
X130093299Y-79959491D01*
X130042991Y-80000778D01*
X130042989Y-80000779D01*
X129886467Y-80084443D01*
X129829853Y-80101616D01*
X129716627Y-80135963D01*
X129650443Y-80142481D01*
X129584260Y-80149000D01*
X129495740Y-80149000D01*
X129429557Y-80142481D01*
X129363373Y-80135963D01*
X129250147Y-80101616D01*
X129193533Y-80084443D01*
X129037011Y-80000779D01*
X129037009Y-80000778D01*
X128986701Y-79959491D01*
X128899814Y-79888186D01*
X128816552Y-79786729D01*
X128787222Y-79750991D01*
X128708744Y-79604171D01*
X128703557Y-79594467D01*
X128686384Y-79537853D01*
X128652037Y-79424627D01*
X128634641Y-79248000D01*
X128652037Y-79071373D01*
X128703557Y-78901534D01*
X128703557Y-78901533D01*
X128787221Y-78745011D01*
X128787222Y-78745009D01*
X128816552Y-78709271D01*
X128899814Y-78607814D01*
X129014990Y-78513293D01*
X129037009Y-78495222D01*
X129054913Y-78485652D01*
X129193533Y-78411557D01*
X129250147Y-78394384D01*
X129363373Y-78360037D01*
X129429557Y-78353519D01*
X129495740Y-78347000D01*
X129584260Y-78347000D01*
X129650443Y-78353519D01*
X129650443Y-78353519D01*
G37*
M02*
