G04 #@! TF.GenerationSoftware,KiCad,Pcbnew,5.0.2-bee76a0~70~ubuntu18.04.1*
G04 #@! TF.CreationDate,2020-04-21T14:12:21+02:00*
G04 #@! TF.ProjectId,FeuMontagne,4665754d-6f6e-4746-9167-6e652e6b6963,rev?*
G04 #@! TF.SameCoordinates,Original*
G04 #@! TF.FileFunction,Legend,Top*
G04 #@! TF.FilePolarity,Positive*
%FSLAX46Y46*%
G04 Gerber Fmt 4.6, Leading zero omitted, Abs format (unit mm)*
G04 Created by KiCad (PCBNEW 5.0.2-bee76a0~70~ubuntu18.04.1) date mar. 21 avril 2020 14:12:21 CEST*
%MOMM*%
%LPD*%
G01*
G04 APERTURE LIST*
%ADD10C,0.150000*%
%ADD11C,0.120000*%
G04 APERTURE END LIST*
D10*
X169672000Y-73914000D02*
X96266000Y-73914000D01*
X169672000Y-115824000D02*
X169672000Y-73914000D01*
X96266000Y-115824000D02*
X169672000Y-115824000D01*
X96266000Y-73914000D02*
X96266000Y-115824000D01*
D11*
G04 #@! TO.C,D1*
X109832000Y-98302000D02*
X107592000Y-98302000D01*
X109832000Y-98542000D02*
X107592000Y-98542000D01*
X109832000Y-98422000D02*
X107592000Y-98422000D01*
X108712000Y-102592000D02*
X108712000Y-101942000D01*
X108712000Y-97052000D02*
X108712000Y-97702000D01*
X109832000Y-101942000D02*
X109832000Y-97702000D01*
X107592000Y-101942000D02*
X109832000Y-101942000D01*
X107592000Y-97702000D02*
X107592000Y-101942000D01*
X109832000Y-97702000D02*
X107592000Y-97702000D01*
G04 #@! TO.C,D2*
X113642000Y-98302000D02*
X111402000Y-98302000D01*
X113642000Y-98542000D02*
X111402000Y-98542000D01*
X113642000Y-98422000D02*
X111402000Y-98422000D01*
X112522000Y-102592000D02*
X112522000Y-101942000D01*
X112522000Y-97052000D02*
X112522000Y-97702000D01*
X113642000Y-101942000D02*
X113642000Y-97702000D01*
X111402000Y-101942000D02*
X113642000Y-101942000D01*
X111402000Y-97702000D02*
X111402000Y-101942000D01*
X113642000Y-97702000D02*
X111402000Y-97702000D01*
G04 #@! TO.C,D3*
X152250000Y-99064000D02*
X150010000Y-99064000D01*
X152250000Y-99304000D02*
X150010000Y-99304000D01*
X152250000Y-99184000D02*
X150010000Y-99184000D01*
X151130000Y-103354000D02*
X151130000Y-102704000D01*
X151130000Y-97814000D02*
X151130000Y-98464000D01*
X152250000Y-102704000D02*
X152250000Y-98464000D01*
X150010000Y-102704000D02*
X152250000Y-102704000D01*
X150010000Y-98464000D02*
X150010000Y-102704000D01*
X152250000Y-98464000D02*
X150010000Y-98464000D01*
G04 #@! TO.C,D4*
X148186000Y-98464000D02*
X145946000Y-98464000D01*
X145946000Y-98464000D02*
X145946000Y-102704000D01*
X145946000Y-102704000D02*
X148186000Y-102704000D01*
X148186000Y-102704000D02*
X148186000Y-98464000D01*
X147066000Y-97814000D02*
X147066000Y-98464000D01*
X147066000Y-103354000D02*
X147066000Y-102704000D01*
X148186000Y-99184000D02*
X145946000Y-99184000D01*
X148186000Y-99304000D02*
X145946000Y-99304000D01*
X148186000Y-99064000D02*
X145946000Y-99064000D01*
G04 #@! TO.C,D5*
X164442000Y-98464000D02*
X162202000Y-98464000D01*
X162202000Y-98464000D02*
X162202000Y-102704000D01*
X162202000Y-102704000D02*
X164442000Y-102704000D01*
X164442000Y-102704000D02*
X164442000Y-98464000D01*
X163322000Y-97814000D02*
X163322000Y-98464000D01*
X163322000Y-103354000D02*
X163322000Y-102704000D01*
X164442000Y-99184000D02*
X162202000Y-99184000D01*
X164442000Y-99304000D02*
X162202000Y-99304000D01*
X164442000Y-99064000D02*
X162202000Y-99064000D01*
G04 #@! TO.C,D6*
X160378000Y-98464000D02*
X158138000Y-98464000D01*
X158138000Y-98464000D02*
X158138000Y-102704000D01*
X158138000Y-102704000D02*
X160378000Y-102704000D01*
X160378000Y-102704000D02*
X160378000Y-98464000D01*
X159258000Y-97814000D02*
X159258000Y-98464000D01*
X159258000Y-103354000D02*
X159258000Y-102704000D01*
X160378000Y-99184000D02*
X158138000Y-99184000D01*
X160378000Y-99304000D02*
X158138000Y-99304000D01*
X160378000Y-99064000D02*
X158138000Y-99064000D01*
G04 #@! TO.C,D7*
X156314000Y-98464000D02*
X154074000Y-98464000D01*
X154074000Y-98464000D02*
X154074000Y-102704000D01*
X154074000Y-102704000D02*
X156314000Y-102704000D01*
X156314000Y-102704000D02*
X156314000Y-98464000D01*
X155194000Y-97814000D02*
X155194000Y-98464000D01*
X155194000Y-103354000D02*
X155194000Y-102704000D01*
X156314000Y-99184000D02*
X154074000Y-99184000D01*
X156314000Y-99304000D02*
X154074000Y-99304000D01*
X156314000Y-99064000D02*
X154074000Y-99064000D01*
G04 #@! TO.C,K1*
X105470000Y-87570000D02*
X102810000Y-87570000D01*
X105470000Y-97790000D02*
X105470000Y-87570000D01*
X102810000Y-97790000D02*
X102810000Y-87570000D01*
X105470000Y-97790000D02*
X102810000Y-97790000D01*
X105470000Y-99060000D02*
X105470000Y-100390000D01*
X105470000Y-100390000D02*
X104140000Y-100390000D01*
G04 #@! TO.C,K2*
X106620000Y-110430000D02*
X106620000Y-113090000D01*
X111760000Y-110430000D02*
X106620000Y-110430000D01*
X111760000Y-113090000D02*
X106620000Y-113090000D01*
X111760000Y-110430000D02*
X111760000Y-113090000D01*
X113030000Y-110430000D02*
X114360000Y-110430000D01*
X114360000Y-110430000D02*
X114360000Y-111760000D01*
G04 #@! TO.C,K3*
X117288000Y-110430000D02*
X117288000Y-113090000D01*
X122428000Y-110430000D02*
X117288000Y-110430000D01*
X122428000Y-113090000D02*
X117288000Y-113090000D01*
X122428000Y-110430000D02*
X122428000Y-113090000D01*
X123698000Y-110430000D02*
X125028000Y-110430000D01*
X125028000Y-110430000D02*
X125028000Y-111760000D01*
G04 #@! TO.C,K4*
X135696000Y-110430000D02*
X135696000Y-111760000D01*
X134366000Y-110430000D02*
X135696000Y-110430000D01*
X133096000Y-110430000D02*
X133096000Y-113090000D01*
X133096000Y-113090000D02*
X127956000Y-113090000D01*
X133096000Y-110430000D02*
X127956000Y-110430000D01*
X127956000Y-110430000D02*
X127956000Y-113090000D01*
G04 #@! TO.C,K5*
X104648000Y-76962000D02*
X114808000Y-76962000D01*
X104648000Y-75692000D02*
X104648000Y-83312000D01*
X104648000Y-83312000D02*
X114808000Y-83312000D01*
X114808000Y-83312000D02*
X114808000Y-75692000D01*
X114808000Y-75692000D02*
X104648000Y-75692000D01*
G04 #@! TO.C,K6*
X158810000Y-77918000D02*
X158810000Y-79248000D01*
X157480000Y-77918000D02*
X158810000Y-77918000D01*
X156210000Y-77918000D02*
X156210000Y-80578000D01*
X156210000Y-80578000D02*
X151070000Y-80578000D01*
X156210000Y-77918000D02*
X151070000Y-77918000D01*
X151070000Y-77918000D02*
X151070000Y-80578000D01*
G04 #@! TO.C,K7*
X136846000Y-77918000D02*
X136846000Y-80578000D01*
X144526000Y-77918000D02*
X136846000Y-77918000D01*
X144526000Y-80578000D02*
X136846000Y-80578000D01*
X144526000Y-77918000D02*
X144526000Y-80578000D01*
X145796000Y-77918000D02*
X147126000Y-77918000D01*
X147126000Y-77918000D02*
X147126000Y-79248000D01*
G04 #@! TO.C,K8*
X133410000Y-77918000D02*
X133410000Y-79248000D01*
X132080000Y-77918000D02*
X133410000Y-77918000D01*
X130810000Y-77918000D02*
X130810000Y-80578000D01*
X130810000Y-80578000D02*
X128210000Y-80578000D01*
X130810000Y-77918000D02*
X128210000Y-77918000D01*
X128210000Y-77918000D02*
X128210000Y-80578000D01*
G04 #@! TO.C,K9*
X117542000Y-77918000D02*
X117542000Y-80578000D01*
X120142000Y-77918000D02*
X117542000Y-77918000D01*
X120142000Y-80578000D02*
X117542000Y-80578000D01*
X120142000Y-77918000D02*
X120142000Y-80578000D01*
X121412000Y-77918000D02*
X122742000Y-77918000D01*
X122742000Y-77918000D02*
X122742000Y-79248000D01*
G04 #@! TO.C,K10*
X141284000Y-105978000D02*
X139954000Y-105978000D01*
X141284000Y-104648000D02*
X141284000Y-105978000D01*
X141284000Y-103378000D02*
X138624000Y-103378000D01*
X138624000Y-103378000D02*
X138624000Y-95698000D01*
X141284000Y-103378000D02*
X141284000Y-95698000D01*
X141284000Y-95698000D02*
X138624000Y-95698000D01*
G04 #@! TO.C,K11*
X147634000Y-107382000D02*
X147634000Y-108712000D01*
X146304000Y-107382000D02*
X147634000Y-107382000D01*
X145034000Y-107382000D02*
X145034000Y-110042000D01*
X145034000Y-110042000D02*
X142434000Y-110042000D01*
X145034000Y-107382000D02*
X142434000Y-107382000D01*
X142434000Y-107382000D02*
X142434000Y-110042000D01*
G04 #@! TO.C,K12*
X158690000Y-107382000D02*
X158690000Y-110042000D01*
X161290000Y-107382000D02*
X158690000Y-107382000D01*
X161290000Y-110042000D02*
X158690000Y-110042000D01*
X161290000Y-107382000D02*
X161290000Y-110042000D01*
X162560000Y-107382000D02*
X163890000Y-107382000D01*
X163890000Y-107382000D02*
X163890000Y-108712000D01*
G04 #@! TO.C,K13*
X154492000Y-107382000D02*
X154492000Y-108712000D01*
X153162000Y-107382000D02*
X154492000Y-107382000D01*
X151892000Y-107382000D02*
X151892000Y-110042000D01*
X151892000Y-110042000D02*
X149292000Y-110042000D01*
X151892000Y-107382000D02*
X149292000Y-107382000D01*
X149292000Y-107382000D02*
X149292000Y-110042000D01*
D10*
G04 #@! TO.C,RLY-A1*
X141478000Y-83058000D02*
X141478000Y-93218000D01*
X161798000Y-83058000D02*
X141478000Y-83058000D01*
X161798000Y-93218000D02*
X161798000Y-83058000D01*
X141478000Y-93218000D02*
X161798000Y-93218000D01*
G04 #@! TO.C,RLY-B1*
X115824000Y-105918000D02*
X136144000Y-105918000D01*
X136144000Y-105918000D02*
X136144000Y-95758000D01*
X136144000Y-95758000D02*
X115824000Y-95758000D01*
X115824000Y-95758000D02*
X115824000Y-105918000D01*
G04 #@! TO.C,RLY-C1*
X115824000Y-93218000D02*
X136144000Y-93218000D01*
X136144000Y-93218000D02*
X136144000Y-83058000D01*
X136144000Y-83058000D02*
X115824000Y-83058000D01*
X115824000Y-83058000D02*
X115824000Y-93218000D01*
G04 #@! TD*
G04 #@! TO.C,D1*
X111284380Y-100560095D02*
X110284380Y-100560095D01*
X110284380Y-100322000D01*
X110332000Y-100179142D01*
X110427238Y-100083904D01*
X110522476Y-100036285D01*
X110712952Y-99988666D01*
X110855809Y-99988666D01*
X111046285Y-100036285D01*
X111141523Y-100083904D01*
X111236761Y-100179142D01*
X111284380Y-100322000D01*
X111284380Y-100560095D01*
X111284380Y-99036285D02*
X111284380Y-99607714D01*
X111284380Y-99322000D02*
X110284380Y-99322000D01*
X110427238Y-99417238D01*
X110522476Y-99512476D01*
X110570095Y-99607714D01*
X110964380Y-96273904D02*
X109964380Y-96273904D01*
X110964380Y-95702476D02*
X110392952Y-96131047D01*
X109964380Y-95702476D02*
X110535809Y-96273904D01*
G04 #@! TO.C,D2*
X115094380Y-100560095D02*
X114094380Y-100560095D01*
X114094380Y-100322000D01*
X114142000Y-100179142D01*
X114237238Y-100083904D01*
X114332476Y-100036285D01*
X114522952Y-99988666D01*
X114665809Y-99988666D01*
X114856285Y-100036285D01*
X114951523Y-100083904D01*
X115046761Y-100179142D01*
X115094380Y-100322000D01*
X115094380Y-100560095D01*
X114189619Y-99607714D02*
X114142000Y-99560095D01*
X114094380Y-99464857D01*
X114094380Y-99226761D01*
X114142000Y-99131523D01*
X114189619Y-99083904D01*
X114284857Y-99036285D01*
X114380095Y-99036285D01*
X114522952Y-99083904D01*
X115094380Y-99655333D01*
X115094380Y-99036285D01*
X114774380Y-96273904D02*
X113774380Y-96273904D01*
X114774380Y-95702476D02*
X114202952Y-96131047D01*
X113774380Y-95702476D02*
X114345809Y-96273904D01*
G04 #@! TO.C,D3*
X153702380Y-101322095D02*
X152702380Y-101322095D01*
X152702380Y-101084000D01*
X152750000Y-100941142D01*
X152845238Y-100845904D01*
X152940476Y-100798285D01*
X153130952Y-100750666D01*
X153273809Y-100750666D01*
X153464285Y-100798285D01*
X153559523Y-100845904D01*
X153654761Y-100941142D01*
X153702380Y-101084000D01*
X153702380Y-101322095D01*
X152702380Y-100417333D02*
X152702380Y-99798285D01*
X153083333Y-100131619D01*
X153083333Y-99988761D01*
X153130952Y-99893523D01*
X153178571Y-99845904D01*
X153273809Y-99798285D01*
X153511904Y-99798285D01*
X153607142Y-99845904D01*
X153654761Y-99893523D01*
X153702380Y-99988761D01*
X153702380Y-100274476D01*
X153654761Y-100369714D01*
X153607142Y-100417333D01*
X153382380Y-97035904D02*
X152382380Y-97035904D01*
X153382380Y-96464476D02*
X152810952Y-96893047D01*
X152382380Y-96464476D02*
X152953809Y-97035904D01*
G04 #@! TO.C,D4*
X149638380Y-101322095D02*
X148638380Y-101322095D01*
X148638380Y-101084000D01*
X148686000Y-100941142D01*
X148781238Y-100845904D01*
X148876476Y-100798285D01*
X149066952Y-100750666D01*
X149209809Y-100750666D01*
X149400285Y-100798285D01*
X149495523Y-100845904D01*
X149590761Y-100941142D01*
X149638380Y-101084000D01*
X149638380Y-101322095D01*
X148971714Y-99893523D02*
X149638380Y-99893523D01*
X148590761Y-100131619D02*
X149305047Y-100369714D01*
X149305047Y-99750666D01*
X149318380Y-97035904D02*
X148318380Y-97035904D01*
X149318380Y-96464476D02*
X148746952Y-96893047D01*
X148318380Y-96464476D02*
X148889809Y-97035904D01*
G04 #@! TO.C,D5*
X165894380Y-101322095D02*
X164894380Y-101322095D01*
X164894380Y-101084000D01*
X164942000Y-100941142D01*
X165037238Y-100845904D01*
X165132476Y-100798285D01*
X165322952Y-100750666D01*
X165465809Y-100750666D01*
X165656285Y-100798285D01*
X165751523Y-100845904D01*
X165846761Y-100941142D01*
X165894380Y-101084000D01*
X165894380Y-101322095D01*
X164894380Y-99845904D02*
X164894380Y-100322095D01*
X165370571Y-100369714D01*
X165322952Y-100322095D01*
X165275333Y-100226857D01*
X165275333Y-99988761D01*
X165322952Y-99893523D01*
X165370571Y-99845904D01*
X165465809Y-99798285D01*
X165703904Y-99798285D01*
X165799142Y-99845904D01*
X165846761Y-99893523D01*
X165894380Y-99988761D01*
X165894380Y-100226857D01*
X165846761Y-100322095D01*
X165799142Y-100369714D01*
X165574380Y-97035904D02*
X164574380Y-97035904D01*
X165574380Y-96464476D02*
X165002952Y-96893047D01*
X164574380Y-96464476D02*
X165145809Y-97035904D01*
G04 #@! TO.C,D6*
X161830380Y-101322095D02*
X160830380Y-101322095D01*
X160830380Y-101084000D01*
X160878000Y-100941142D01*
X160973238Y-100845904D01*
X161068476Y-100798285D01*
X161258952Y-100750666D01*
X161401809Y-100750666D01*
X161592285Y-100798285D01*
X161687523Y-100845904D01*
X161782761Y-100941142D01*
X161830380Y-101084000D01*
X161830380Y-101322095D01*
X160830380Y-99893523D02*
X160830380Y-100084000D01*
X160878000Y-100179238D01*
X160925619Y-100226857D01*
X161068476Y-100322095D01*
X161258952Y-100369714D01*
X161639904Y-100369714D01*
X161735142Y-100322095D01*
X161782761Y-100274476D01*
X161830380Y-100179238D01*
X161830380Y-99988761D01*
X161782761Y-99893523D01*
X161735142Y-99845904D01*
X161639904Y-99798285D01*
X161401809Y-99798285D01*
X161306571Y-99845904D01*
X161258952Y-99893523D01*
X161211333Y-99988761D01*
X161211333Y-100179238D01*
X161258952Y-100274476D01*
X161306571Y-100322095D01*
X161401809Y-100369714D01*
X161510380Y-97035904D02*
X160510380Y-97035904D01*
X161510380Y-96464476D02*
X160938952Y-96893047D01*
X160510380Y-96464476D02*
X161081809Y-97035904D01*
G04 #@! TO.C,D7*
X157766380Y-101322095D02*
X156766380Y-101322095D01*
X156766380Y-101084000D01*
X156814000Y-100941142D01*
X156909238Y-100845904D01*
X157004476Y-100798285D01*
X157194952Y-100750666D01*
X157337809Y-100750666D01*
X157528285Y-100798285D01*
X157623523Y-100845904D01*
X157718761Y-100941142D01*
X157766380Y-101084000D01*
X157766380Y-101322095D01*
X156766380Y-100417333D02*
X156766380Y-99750666D01*
X157766380Y-100179238D01*
X157446380Y-97035904D02*
X156446380Y-97035904D01*
X157446380Y-96464476D02*
X156874952Y-96893047D01*
X156446380Y-96464476D02*
X157017809Y-97035904D01*
G04 #@! TO.C,K1*
X103401904Y-101842380D02*
X103401904Y-100842380D01*
X103973333Y-101842380D02*
X103544761Y-101270952D01*
X103973333Y-100842380D02*
X103401904Y-101413809D01*
X104925714Y-101842380D02*
X104354285Y-101842380D01*
X104640000Y-101842380D02*
X104640000Y-100842380D01*
X104544761Y-100985238D01*
X104449523Y-101080476D01*
X104354285Y-101128095D01*
X101703142Y-96646666D02*
X101750761Y-96694285D01*
X101798380Y-96837142D01*
X101798380Y-96932380D01*
X101750761Y-97075238D01*
X101655523Y-97170476D01*
X101560285Y-97218095D01*
X101369809Y-97265714D01*
X101226952Y-97265714D01*
X101036476Y-97218095D01*
X100941238Y-97170476D01*
X100846000Y-97075238D01*
X100798380Y-96932380D01*
X100798380Y-96837142D01*
X100846000Y-96694285D01*
X100893619Y-96646666D01*
X101798380Y-96218095D02*
X100798380Y-96218095D01*
X101512666Y-95884761D01*
X100798380Y-95551428D01*
X101798380Y-95551428D01*
X101798380Y-95075238D02*
X100798380Y-95075238D01*
X100798380Y-94837142D01*
X100846000Y-94694285D01*
X100941238Y-94599047D01*
X101036476Y-94551428D01*
X101226952Y-94503809D01*
X101369809Y-94503809D01*
X101560285Y-94551428D01*
X101655523Y-94599047D01*
X101750761Y-94694285D01*
X101798380Y-94837142D01*
X101798380Y-95075238D01*
X101798380Y-93313333D02*
X100798380Y-93313333D01*
X101512666Y-92980000D01*
X100798380Y-92646666D01*
X101798380Y-92646666D01*
X101512666Y-92218095D02*
X101512666Y-91741904D01*
X101798380Y-92313333D02*
X100798380Y-91980000D01*
X101798380Y-91646666D01*
X101798380Y-91313333D02*
X100798380Y-91313333D01*
X101798380Y-90741904D01*
X100798380Y-90741904D01*
G04 #@! TO.C,K2*
X115812380Y-112498095D02*
X114812380Y-112498095D01*
X115812380Y-111926666D02*
X115240952Y-112355238D01*
X114812380Y-111926666D02*
X115383809Y-112498095D01*
X114907619Y-111545714D02*
X114860000Y-111498095D01*
X114812380Y-111402857D01*
X114812380Y-111164761D01*
X114860000Y-111069523D01*
X114907619Y-111021904D01*
X115002857Y-110974285D01*
X115098095Y-110974285D01*
X115240952Y-111021904D01*
X115812380Y-111593333D01*
X115812380Y-110974285D01*
X109775714Y-114466666D02*
X110251904Y-114466666D01*
X109680476Y-114752380D02*
X110013809Y-113752380D01*
X110347142Y-114752380D01*
X111109047Y-114085714D02*
X111109047Y-114752380D01*
X110870952Y-113704761D02*
X110632857Y-114419047D01*
X111251904Y-114419047D01*
G04 #@! TO.C,K3*
X126480380Y-112498095D02*
X125480380Y-112498095D01*
X126480380Y-111926666D02*
X125908952Y-112355238D01*
X125480380Y-111926666D02*
X126051809Y-112498095D01*
X125480380Y-111593333D02*
X125480380Y-110974285D01*
X125861333Y-111307619D01*
X125861333Y-111164761D01*
X125908952Y-111069523D01*
X125956571Y-111021904D01*
X126051809Y-110974285D01*
X126289904Y-110974285D01*
X126385142Y-111021904D01*
X126432761Y-111069523D01*
X126480380Y-111164761D01*
X126480380Y-111450476D01*
X126432761Y-111545714D01*
X126385142Y-111593333D01*
X120443714Y-114720666D02*
X120919904Y-114720666D01*
X120348476Y-115006380D02*
X120681809Y-114006380D01*
X121015142Y-115006380D01*
X121824666Y-114006380D02*
X121348476Y-114006380D01*
X121300857Y-114482571D01*
X121348476Y-114434952D01*
X121443714Y-114387333D01*
X121681809Y-114387333D01*
X121777047Y-114434952D01*
X121824666Y-114482571D01*
X121872285Y-114577809D01*
X121872285Y-114815904D01*
X121824666Y-114911142D01*
X121777047Y-114958761D01*
X121681809Y-115006380D01*
X121443714Y-115006380D01*
X121348476Y-114958761D01*
X121300857Y-114911142D01*
G04 #@! TO.C,K4*
X137148380Y-112498095D02*
X136148380Y-112498095D01*
X137148380Y-111926666D02*
X136576952Y-112355238D01*
X136148380Y-111926666D02*
X136719809Y-112498095D01*
X136481714Y-111069523D02*
X137148380Y-111069523D01*
X136100761Y-111307619D02*
X136815047Y-111545714D01*
X136815047Y-110926666D01*
X131111714Y-114720666D02*
X131587904Y-114720666D01*
X131016476Y-115006380D02*
X131349809Y-114006380D01*
X131683142Y-115006380D01*
X131921238Y-114006380D02*
X132540285Y-114006380D01*
X132206952Y-114387333D01*
X132349809Y-114387333D01*
X132445047Y-114434952D01*
X132492666Y-114482571D01*
X132540285Y-114577809D01*
X132540285Y-114815904D01*
X132492666Y-114911142D01*
X132445047Y-114958761D01*
X132349809Y-115006380D01*
X132064095Y-115006380D01*
X131968857Y-114958761D01*
X131921238Y-114911142D01*
G04 #@! TO.C,K5*
X108989904Y-85034380D02*
X108989904Y-84034380D01*
X109561333Y-85034380D02*
X109132761Y-84462952D01*
X109561333Y-84034380D02*
X108989904Y-84605809D01*
X110466095Y-84034380D02*
X109989904Y-84034380D01*
X109942285Y-84510571D01*
X109989904Y-84462952D01*
X110085142Y-84415333D01*
X110323238Y-84415333D01*
X110418476Y-84462952D01*
X110466095Y-84510571D01*
X110513714Y-84605809D01*
X110513714Y-84843904D01*
X110466095Y-84939142D01*
X110418476Y-84986761D01*
X110323238Y-85034380D01*
X110085142Y-85034380D01*
X109989904Y-84986761D01*
X109942285Y-84939142D01*
X108180380Y-75128380D02*
X107608952Y-75128380D01*
X107894666Y-75128380D02*
X107894666Y-74128380D01*
X107799428Y-74271238D01*
X107704190Y-74366476D01*
X107608952Y-74414095D01*
X108561333Y-74223619D02*
X108608952Y-74176000D01*
X108704190Y-74128380D01*
X108942285Y-74128380D01*
X109037523Y-74176000D01*
X109085142Y-74223619D01*
X109132761Y-74318857D01*
X109132761Y-74414095D01*
X109085142Y-74556952D01*
X108513714Y-75128380D01*
X109132761Y-75128380D01*
X109418476Y-74128380D02*
X109751809Y-75128380D01*
X110085142Y-74128380D01*
X110370857Y-74842666D02*
X110847047Y-74842666D01*
X110275619Y-75128380D02*
X110608952Y-74128380D01*
X110942285Y-75128380D01*
X111847047Y-75033142D02*
X111799428Y-75080761D01*
X111656571Y-75128380D01*
X111561333Y-75128380D01*
X111418476Y-75080761D01*
X111323238Y-74985523D01*
X111275619Y-74890285D01*
X111228000Y-74699809D01*
X111228000Y-74556952D01*
X111275619Y-74366476D01*
X111323238Y-74271238D01*
X111418476Y-74176000D01*
X111561333Y-74128380D01*
X111656571Y-74128380D01*
X111799428Y-74176000D01*
X111847047Y-74223619D01*
G04 #@! TO.C,K6*
X160262380Y-79986095D02*
X159262380Y-79986095D01*
X160262380Y-79414666D02*
X159690952Y-79843238D01*
X159262380Y-79414666D02*
X159833809Y-79986095D01*
X159262380Y-78557523D02*
X159262380Y-78748000D01*
X159310000Y-78843238D01*
X159357619Y-78890857D01*
X159500476Y-78986095D01*
X159690952Y-79033714D01*
X160071904Y-79033714D01*
X160167142Y-78986095D01*
X160214761Y-78938476D01*
X160262380Y-78843238D01*
X160262380Y-78652761D01*
X160214761Y-78557523D01*
X160167142Y-78509904D01*
X160071904Y-78462285D01*
X159833809Y-78462285D01*
X159738571Y-78509904D01*
X159690952Y-78557523D01*
X159643333Y-78652761D01*
X159643333Y-78843238D01*
X159690952Y-78938476D01*
X159738571Y-78986095D01*
X159833809Y-79033714D01*
X154320952Y-76652380D02*
X153987619Y-76176190D01*
X153749523Y-76652380D02*
X153749523Y-75652380D01*
X154130476Y-75652380D01*
X154225714Y-75700000D01*
X154273333Y-75747619D01*
X154320952Y-75842857D01*
X154320952Y-75985714D01*
X154273333Y-76080952D01*
X154225714Y-76128571D01*
X154130476Y-76176190D01*
X153749523Y-76176190D01*
X154749523Y-76128571D02*
X155082857Y-76128571D01*
X155225714Y-76652380D02*
X154749523Y-76652380D01*
X154749523Y-75652380D01*
X155225714Y-75652380D01*
X155606666Y-76604761D02*
X155749523Y-76652380D01*
X155987619Y-76652380D01*
X156082857Y-76604761D01*
X156130476Y-76557142D01*
X156178095Y-76461904D01*
X156178095Y-76366666D01*
X156130476Y-76271428D01*
X156082857Y-76223809D01*
X155987619Y-76176190D01*
X155797142Y-76128571D01*
X155701904Y-76080952D01*
X155654285Y-76033333D01*
X155606666Y-75938095D01*
X155606666Y-75842857D01*
X155654285Y-75747619D01*
X155701904Y-75700000D01*
X155797142Y-75652380D01*
X156035238Y-75652380D01*
X156178095Y-75700000D01*
G04 #@! TO.C,K7*
X148578380Y-79986095D02*
X147578380Y-79986095D01*
X148578380Y-79414666D02*
X148006952Y-79843238D01*
X147578380Y-79414666D02*
X148149809Y-79986095D01*
X147578380Y-79081333D02*
X147578380Y-78414666D01*
X148578380Y-78843238D01*
X138890761Y-76811142D02*
X138843142Y-76858761D01*
X138700285Y-76906380D01*
X138605047Y-76906380D01*
X138462190Y-76858761D01*
X138366952Y-76763523D01*
X138319333Y-76668285D01*
X138271714Y-76477809D01*
X138271714Y-76334952D01*
X138319333Y-76144476D01*
X138366952Y-76049238D01*
X138462190Y-75954000D01*
X138605047Y-75906380D01*
X138700285Y-75906380D01*
X138843142Y-75954000D01*
X138890761Y-76001619D01*
X139747904Y-76239714D02*
X139747904Y-76906380D01*
X139509809Y-75858761D02*
X139271714Y-76573047D01*
X139890761Y-76573047D01*
X140843142Y-76811142D02*
X140795523Y-76858761D01*
X140652666Y-76906380D01*
X140557428Y-76906380D01*
X140414571Y-76858761D01*
X140319333Y-76763523D01*
X140271714Y-76668285D01*
X140224095Y-76477809D01*
X140224095Y-76334952D01*
X140271714Y-76144476D01*
X140319333Y-76049238D01*
X140414571Y-75954000D01*
X140557428Y-75906380D01*
X140652666Y-75906380D01*
X140795523Y-75954000D01*
X140843142Y-76001619D01*
X141747904Y-75906380D02*
X141271714Y-75906380D01*
X141224095Y-76382571D01*
X141271714Y-76334952D01*
X141366952Y-76287333D01*
X141605047Y-76287333D01*
X141700285Y-76334952D01*
X141747904Y-76382571D01*
X141795523Y-76477809D01*
X141795523Y-76715904D01*
X141747904Y-76811142D01*
X141700285Y-76858761D01*
X141605047Y-76906380D01*
X141366952Y-76906380D01*
X141271714Y-76858761D01*
X141224095Y-76811142D01*
X142795523Y-76811142D02*
X142747904Y-76858761D01*
X142605047Y-76906380D01*
X142509809Y-76906380D01*
X142366952Y-76858761D01*
X142271714Y-76763523D01*
X142224095Y-76668285D01*
X142176476Y-76477809D01*
X142176476Y-76334952D01*
X142224095Y-76144476D01*
X142271714Y-76049238D01*
X142366952Y-75954000D01*
X142509809Y-75906380D01*
X142605047Y-75906380D01*
X142747904Y-75954000D01*
X142795523Y-76001619D01*
X143652666Y-75906380D02*
X143462190Y-75906380D01*
X143366952Y-75954000D01*
X143319333Y-76001619D01*
X143224095Y-76144476D01*
X143176476Y-76334952D01*
X143176476Y-76715904D01*
X143224095Y-76811142D01*
X143271714Y-76858761D01*
X143366952Y-76906380D01*
X143557428Y-76906380D01*
X143652666Y-76858761D01*
X143700285Y-76811142D01*
X143747904Y-76715904D01*
X143747904Y-76477809D01*
X143700285Y-76382571D01*
X143652666Y-76334952D01*
X143557428Y-76287333D01*
X143366952Y-76287333D01*
X143271714Y-76334952D01*
X143224095Y-76382571D01*
X143176476Y-76477809D01*
X144747904Y-76811142D02*
X144700285Y-76858761D01*
X144557428Y-76906380D01*
X144462190Y-76906380D01*
X144319333Y-76858761D01*
X144224095Y-76763523D01*
X144176476Y-76668285D01*
X144128857Y-76477809D01*
X144128857Y-76334952D01*
X144176476Y-76144476D01*
X144224095Y-76049238D01*
X144319333Y-75954000D01*
X144462190Y-75906380D01*
X144557428Y-75906380D01*
X144700285Y-75954000D01*
X144747904Y-76001619D01*
X145081238Y-75906380D02*
X145747904Y-75906380D01*
X145319333Y-76906380D01*
G04 #@! TO.C,K8*
X134862380Y-79986095D02*
X133862380Y-79986095D01*
X134862380Y-79414666D02*
X134290952Y-79843238D01*
X133862380Y-79414666D02*
X134433809Y-79986095D01*
X134290952Y-78843238D02*
X134243333Y-78938476D01*
X134195714Y-78986095D01*
X134100476Y-79033714D01*
X134052857Y-79033714D01*
X133957619Y-78986095D01*
X133910000Y-78938476D01*
X133862380Y-78843238D01*
X133862380Y-78652761D01*
X133910000Y-78557523D01*
X133957619Y-78509904D01*
X134052857Y-78462285D01*
X134100476Y-78462285D01*
X134195714Y-78509904D01*
X134243333Y-78557523D01*
X134290952Y-78652761D01*
X134290952Y-78843238D01*
X134338571Y-78938476D01*
X134386190Y-78986095D01*
X134481428Y-79033714D01*
X134671904Y-79033714D01*
X134767142Y-78986095D01*
X134814761Y-78938476D01*
X134862380Y-78843238D01*
X134862380Y-78652761D01*
X134814761Y-78557523D01*
X134767142Y-78509904D01*
X134671904Y-78462285D01*
X134481428Y-78462285D01*
X134386190Y-78509904D01*
X134338571Y-78557523D01*
X134290952Y-78652761D01*
X129667142Y-76811142D02*
X129619523Y-76858761D01*
X129476666Y-76906380D01*
X129381428Y-76906380D01*
X129238571Y-76858761D01*
X129143333Y-76763523D01*
X129095714Y-76668285D01*
X129048095Y-76477809D01*
X129048095Y-76334952D01*
X129095714Y-76144476D01*
X129143333Y-76049238D01*
X129238571Y-75954000D01*
X129381428Y-75906380D01*
X129476666Y-75906380D01*
X129619523Y-75954000D01*
X129667142Y-76001619D01*
X130524285Y-76239714D02*
X130524285Y-76906380D01*
X130286190Y-75858761D02*
X130048095Y-76573047D01*
X130667142Y-76573047D01*
X131619523Y-76811142D02*
X131571904Y-76858761D01*
X131429047Y-76906380D01*
X131333809Y-76906380D01*
X131190952Y-76858761D01*
X131095714Y-76763523D01*
X131048095Y-76668285D01*
X131000476Y-76477809D01*
X131000476Y-76334952D01*
X131048095Y-76144476D01*
X131095714Y-76049238D01*
X131190952Y-75954000D01*
X131333809Y-75906380D01*
X131429047Y-75906380D01*
X131571904Y-75954000D01*
X131619523Y-76001619D01*
X132476666Y-75906380D02*
X132286190Y-75906380D01*
X132190952Y-75954000D01*
X132143333Y-76001619D01*
X132048095Y-76144476D01*
X132000476Y-76334952D01*
X132000476Y-76715904D01*
X132048095Y-76811142D01*
X132095714Y-76858761D01*
X132190952Y-76906380D01*
X132381428Y-76906380D01*
X132476666Y-76858761D01*
X132524285Y-76811142D01*
X132571904Y-76715904D01*
X132571904Y-76477809D01*
X132524285Y-76382571D01*
X132476666Y-76334952D01*
X132381428Y-76287333D01*
X132190952Y-76287333D01*
X132095714Y-76334952D01*
X132048095Y-76382571D01*
X132000476Y-76477809D01*
G04 #@! TO.C,K9*
X124194380Y-79986095D02*
X123194380Y-79986095D01*
X124194380Y-79414666D02*
X123622952Y-79843238D01*
X123194380Y-79414666D02*
X123765809Y-79986095D01*
X124194380Y-78938476D02*
X124194380Y-78748000D01*
X124146761Y-78652761D01*
X124099142Y-78605142D01*
X123956285Y-78509904D01*
X123765809Y-78462285D01*
X123384857Y-78462285D01*
X123289619Y-78509904D01*
X123242000Y-78557523D01*
X123194380Y-78652761D01*
X123194380Y-78843238D01*
X123242000Y-78938476D01*
X123289619Y-78986095D01*
X123384857Y-79033714D01*
X123622952Y-79033714D01*
X123718190Y-78986095D01*
X123765809Y-78938476D01*
X123813428Y-78843238D01*
X123813428Y-78652761D01*
X123765809Y-78557523D01*
X123718190Y-78509904D01*
X123622952Y-78462285D01*
X118999142Y-76811142D02*
X118951523Y-76858761D01*
X118808666Y-76906380D01*
X118713428Y-76906380D01*
X118570571Y-76858761D01*
X118475333Y-76763523D01*
X118427714Y-76668285D01*
X118380095Y-76477809D01*
X118380095Y-76334952D01*
X118427714Y-76144476D01*
X118475333Y-76049238D01*
X118570571Y-75954000D01*
X118713428Y-75906380D01*
X118808666Y-75906380D01*
X118951523Y-75954000D01*
X118999142Y-76001619D01*
X119903904Y-75906380D02*
X119427714Y-75906380D01*
X119380095Y-76382571D01*
X119427714Y-76334952D01*
X119522952Y-76287333D01*
X119761047Y-76287333D01*
X119856285Y-76334952D01*
X119903904Y-76382571D01*
X119951523Y-76477809D01*
X119951523Y-76715904D01*
X119903904Y-76811142D01*
X119856285Y-76858761D01*
X119761047Y-76906380D01*
X119522952Y-76906380D01*
X119427714Y-76858761D01*
X119380095Y-76811142D01*
X120951523Y-76811142D02*
X120903904Y-76858761D01*
X120761047Y-76906380D01*
X120665809Y-76906380D01*
X120522952Y-76858761D01*
X120427714Y-76763523D01*
X120380095Y-76668285D01*
X120332476Y-76477809D01*
X120332476Y-76334952D01*
X120380095Y-76144476D01*
X120427714Y-76049238D01*
X120522952Y-75954000D01*
X120665809Y-75906380D01*
X120761047Y-75906380D01*
X120903904Y-75954000D01*
X120951523Y-76001619D01*
X121284857Y-75906380D02*
X121951523Y-75906380D01*
X121522952Y-76906380D01*
G04 #@! TO.C,K10*
X138739714Y-107430380D02*
X138739714Y-106430380D01*
X139311142Y-107430380D02*
X138882571Y-106858952D01*
X139311142Y-106430380D02*
X138739714Y-107001809D01*
X140263523Y-107430380D02*
X139692095Y-107430380D01*
X139977809Y-107430380D02*
X139977809Y-106430380D01*
X139882571Y-106573238D01*
X139787333Y-106668476D01*
X139692095Y-106716095D01*
X140882571Y-106430380D02*
X140977809Y-106430380D01*
X141073047Y-106478000D01*
X141120666Y-106525619D01*
X141168285Y-106620857D01*
X141215904Y-106811333D01*
X141215904Y-107049428D01*
X141168285Y-107239904D01*
X141120666Y-107335142D01*
X141073047Y-107382761D01*
X140977809Y-107430380D01*
X140882571Y-107430380D01*
X140787333Y-107382761D01*
X140739714Y-107335142D01*
X140692095Y-107239904D01*
X140644476Y-107049428D01*
X140644476Y-106811333D01*
X140692095Y-106620857D01*
X140739714Y-106525619D01*
X140787333Y-106478000D01*
X140882571Y-106430380D01*
X137342571Y-101171333D02*
X137342571Y-101504666D01*
X137866380Y-101504666D02*
X136866380Y-101504666D01*
X136866380Y-101028476D01*
X136961619Y-100695142D02*
X136914000Y-100647523D01*
X136866380Y-100552285D01*
X136866380Y-100314190D01*
X136914000Y-100218952D01*
X136961619Y-100171333D01*
X137056857Y-100123714D01*
X137152095Y-100123714D01*
X137294952Y-100171333D01*
X137866380Y-100742761D01*
X137866380Y-100123714D01*
G04 #@! TO.C,K11*
X149086380Y-109926285D02*
X148086380Y-109926285D01*
X149086380Y-109354857D02*
X148514952Y-109783428D01*
X148086380Y-109354857D02*
X148657809Y-109926285D01*
X149086380Y-108402476D02*
X149086380Y-108973904D01*
X149086380Y-108688190D02*
X148086380Y-108688190D01*
X148229238Y-108783428D01*
X148324476Y-108878666D01*
X148372095Y-108973904D01*
X149086380Y-107450095D02*
X149086380Y-108021523D01*
X149086380Y-107735809D02*
X148086380Y-107735809D01*
X148229238Y-107831047D01*
X148324476Y-107926285D01*
X148372095Y-108021523D01*
X145121333Y-111958380D02*
X144788000Y-111482190D01*
X144549904Y-111958380D02*
X144549904Y-110958380D01*
X144930857Y-110958380D01*
X145026095Y-111006000D01*
X145073714Y-111053619D01*
X145121333Y-111148857D01*
X145121333Y-111291714D01*
X145073714Y-111386952D01*
X145026095Y-111434571D01*
X144930857Y-111482190D01*
X144549904Y-111482190D01*
X145502285Y-111053619D02*
X145549904Y-111006000D01*
X145645142Y-110958380D01*
X145883238Y-110958380D01*
X145978476Y-111006000D01*
X146026095Y-111053619D01*
X146073714Y-111148857D01*
X146073714Y-111244095D01*
X146026095Y-111386952D01*
X145454666Y-111958380D01*
X146073714Y-111958380D01*
G04 #@! TO.C,K12*
X165342380Y-109926285D02*
X164342380Y-109926285D01*
X165342380Y-109354857D02*
X164770952Y-109783428D01*
X164342380Y-109354857D02*
X164913809Y-109926285D01*
X165342380Y-108402476D02*
X165342380Y-108973904D01*
X165342380Y-108688190D02*
X164342380Y-108688190D01*
X164485238Y-108783428D01*
X164580476Y-108878666D01*
X164628095Y-108973904D01*
X164437619Y-108021523D02*
X164390000Y-107973904D01*
X164342380Y-107878666D01*
X164342380Y-107640571D01*
X164390000Y-107545333D01*
X164437619Y-107497714D01*
X164532857Y-107450095D01*
X164628095Y-107450095D01*
X164770952Y-107497714D01*
X165342380Y-108069142D01*
X165342380Y-107450095D01*
X161123333Y-111958380D02*
X160790000Y-111482190D01*
X160551904Y-111958380D02*
X160551904Y-110958380D01*
X160932857Y-110958380D01*
X161028095Y-111006000D01*
X161075714Y-111053619D01*
X161123333Y-111148857D01*
X161123333Y-111291714D01*
X161075714Y-111386952D01*
X161028095Y-111434571D01*
X160932857Y-111482190D01*
X160551904Y-111482190D01*
X161456666Y-110958380D02*
X162075714Y-110958380D01*
X161742380Y-111339333D01*
X161885238Y-111339333D01*
X161980476Y-111386952D01*
X162028095Y-111434571D01*
X162075714Y-111529809D01*
X162075714Y-111767904D01*
X162028095Y-111863142D01*
X161980476Y-111910761D01*
X161885238Y-111958380D01*
X161599523Y-111958380D01*
X161504285Y-111910761D01*
X161456666Y-111863142D01*
G04 #@! TO.C,K13*
X155944380Y-109926285D02*
X154944380Y-109926285D01*
X155944380Y-109354857D02*
X155372952Y-109783428D01*
X154944380Y-109354857D02*
X155515809Y-109926285D01*
X155944380Y-108402476D02*
X155944380Y-108973904D01*
X155944380Y-108688190D02*
X154944380Y-108688190D01*
X155087238Y-108783428D01*
X155182476Y-108878666D01*
X155230095Y-108973904D01*
X154944380Y-108069142D02*
X154944380Y-107450095D01*
X155325333Y-107783428D01*
X155325333Y-107640571D01*
X155372952Y-107545333D01*
X155420571Y-107497714D01*
X155515809Y-107450095D01*
X155753904Y-107450095D01*
X155849142Y-107497714D01*
X155896761Y-107545333D01*
X155944380Y-107640571D01*
X155944380Y-107926285D01*
X155896761Y-108021523D01*
X155849142Y-108069142D01*
X151979333Y-111958380D02*
X151646000Y-111482190D01*
X151407904Y-111958380D02*
X151407904Y-110958380D01*
X151788857Y-110958380D01*
X151884095Y-111006000D01*
X151931714Y-111053619D01*
X151979333Y-111148857D01*
X151979333Y-111291714D01*
X151931714Y-111386952D01*
X151884095Y-111434571D01*
X151788857Y-111482190D01*
X151407904Y-111482190D01*
X152836476Y-111291714D02*
X152836476Y-111958380D01*
X152598380Y-110910761D02*
X152360285Y-111625047D01*
X152979333Y-111625047D01*
G04 #@! TO.C,RLY-A1*
X149590380Y-90114380D02*
X149257047Y-89638190D01*
X149018952Y-90114380D02*
X149018952Y-89114380D01*
X149399904Y-89114380D01*
X149495142Y-89162000D01*
X149542761Y-89209619D01*
X149590380Y-89304857D01*
X149590380Y-89447714D01*
X149542761Y-89542952D01*
X149495142Y-89590571D01*
X149399904Y-89638190D01*
X149018952Y-89638190D01*
X150495142Y-90114380D02*
X150018952Y-90114380D01*
X150018952Y-89114380D01*
X151018952Y-89638190D02*
X151018952Y-90114380D01*
X150685619Y-89114380D02*
X151018952Y-89638190D01*
X151352285Y-89114380D01*
X151685619Y-89733428D02*
X152447523Y-89733428D01*
X152876095Y-89828666D02*
X153352285Y-89828666D01*
X152780857Y-90114380D02*
X153114190Y-89114380D01*
X153447523Y-90114380D01*
X154304666Y-90114380D02*
X153733238Y-90114380D01*
X154018952Y-90114380D02*
X154018952Y-89114380D01*
X153923714Y-89257238D01*
X153828476Y-89352476D01*
X153733238Y-89400095D01*
X144899904Y-88090380D02*
X144899904Y-87090380D01*
X145138000Y-87090380D01*
X145280857Y-87138000D01*
X145376095Y-87233238D01*
X145423714Y-87328476D01*
X145471333Y-87518952D01*
X145471333Y-87661809D01*
X145423714Y-87852285D01*
X145376095Y-87947523D01*
X145280857Y-88042761D01*
X145138000Y-88090380D01*
X144899904Y-88090380D01*
X145852285Y-88042761D02*
X145995142Y-88090380D01*
X146233238Y-88090380D01*
X146328476Y-88042761D01*
X146376095Y-87995142D01*
X146423714Y-87899904D01*
X146423714Y-87804666D01*
X146376095Y-87709428D01*
X146328476Y-87661809D01*
X146233238Y-87614190D01*
X146042761Y-87566571D01*
X145947523Y-87518952D01*
X145899904Y-87471333D01*
X145852285Y-87376095D01*
X145852285Y-87280857D01*
X145899904Y-87185619D01*
X145947523Y-87138000D01*
X146042761Y-87090380D01*
X146280857Y-87090380D01*
X146423714Y-87138000D01*
X146804666Y-87185619D02*
X146852285Y-87138000D01*
X146947523Y-87090380D01*
X147185619Y-87090380D01*
X147280857Y-87138000D01*
X147328476Y-87185619D01*
X147376095Y-87280857D01*
X147376095Y-87376095D01*
X147328476Y-87518952D01*
X146757047Y-88090380D01*
X147376095Y-88090380D01*
X147804666Y-87566571D02*
X148138000Y-87566571D01*
X148280857Y-88090380D02*
X147804666Y-88090380D01*
X147804666Y-87090380D01*
X148280857Y-87090380D01*
X148709428Y-87709428D02*
X149471333Y-87709428D01*
X149947523Y-88090380D02*
X149947523Y-87090380D01*
X150280857Y-87804666D01*
X150614190Y-87090380D01*
X150614190Y-88090380D01*
X151566571Y-88090380D02*
X151090380Y-88090380D01*
X151090380Y-87090380D01*
X151852285Y-87185619D02*
X151899904Y-87138000D01*
X151995142Y-87090380D01*
X152233238Y-87090380D01*
X152328476Y-87138000D01*
X152376095Y-87185619D01*
X152423714Y-87280857D01*
X152423714Y-87376095D01*
X152376095Y-87518952D01*
X151804666Y-88090380D01*
X152423714Y-88090380D01*
X152852285Y-87709428D02*
X153614190Y-87709428D01*
X154090380Y-88090380D02*
X154090380Y-87090380D01*
X154328476Y-87090380D01*
X154471333Y-87138000D01*
X154566571Y-87233238D01*
X154614190Y-87328476D01*
X154661809Y-87518952D01*
X154661809Y-87661809D01*
X154614190Y-87852285D01*
X154566571Y-87947523D01*
X154471333Y-88042761D01*
X154328476Y-88090380D01*
X154090380Y-88090380D01*
X155661809Y-87995142D02*
X155614190Y-88042761D01*
X155471333Y-88090380D01*
X155376095Y-88090380D01*
X155233238Y-88042761D01*
X155138000Y-87947523D01*
X155090380Y-87852285D01*
X155042761Y-87661809D01*
X155042761Y-87518952D01*
X155090380Y-87328476D01*
X155138000Y-87233238D01*
X155233238Y-87138000D01*
X155376095Y-87090380D01*
X155471333Y-87090380D01*
X155614190Y-87138000D01*
X155661809Y-87185619D01*
X156614190Y-88090380D02*
X156042761Y-88090380D01*
X156328476Y-88090380D02*
X156328476Y-87090380D01*
X156233238Y-87233238D01*
X156138000Y-87328476D01*
X156042761Y-87376095D01*
X156995142Y-87185619D02*
X157042761Y-87138000D01*
X157138000Y-87090380D01*
X157376095Y-87090380D01*
X157471333Y-87138000D01*
X157518952Y-87185619D01*
X157566571Y-87280857D01*
X157566571Y-87376095D01*
X157518952Y-87518952D01*
X156947523Y-88090380D01*
X157566571Y-88090380D01*
X157852285Y-87090380D02*
X158185619Y-88090380D01*
X158518952Y-87090380D01*
G04 #@! TO.C,RLY-B1*
X123864952Y-103068380D02*
X123531619Y-102592190D01*
X123293523Y-103068380D02*
X123293523Y-102068380D01*
X123674476Y-102068380D01*
X123769714Y-102116000D01*
X123817333Y-102163619D01*
X123864952Y-102258857D01*
X123864952Y-102401714D01*
X123817333Y-102496952D01*
X123769714Y-102544571D01*
X123674476Y-102592190D01*
X123293523Y-102592190D01*
X124769714Y-103068380D02*
X124293523Y-103068380D01*
X124293523Y-102068380D01*
X125293523Y-102592190D02*
X125293523Y-103068380D01*
X124960190Y-102068380D02*
X125293523Y-102592190D01*
X125626857Y-102068380D01*
X125960190Y-102687428D02*
X126722095Y-102687428D01*
X127531619Y-102544571D02*
X127674476Y-102592190D01*
X127722095Y-102639809D01*
X127769714Y-102735047D01*
X127769714Y-102877904D01*
X127722095Y-102973142D01*
X127674476Y-103020761D01*
X127579238Y-103068380D01*
X127198285Y-103068380D01*
X127198285Y-102068380D01*
X127531619Y-102068380D01*
X127626857Y-102116000D01*
X127674476Y-102163619D01*
X127722095Y-102258857D01*
X127722095Y-102354095D01*
X127674476Y-102449333D01*
X127626857Y-102496952D01*
X127531619Y-102544571D01*
X127198285Y-102544571D01*
X128722095Y-103068380D02*
X128150666Y-103068380D01*
X128436380Y-103068380D02*
X128436380Y-102068380D01*
X128341142Y-102211238D01*
X128245904Y-102306476D01*
X128150666Y-102354095D01*
X119245904Y-100790380D02*
X119245904Y-99790380D01*
X119484000Y-99790380D01*
X119626857Y-99838000D01*
X119722095Y-99933238D01*
X119769714Y-100028476D01*
X119817333Y-100218952D01*
X119817333Y-100361809D01*
X119769714Y-100552285D01*
X119722095Y-100647523D01*
X119626857Y-100742761D01*
X119484000Y-100790380D01*
X119245904Y-100790380D01*
X120198285Y-100742761D02*
X120341142Y-100790380D01*
X120579238Y-100790380D01*
X120674476Y-100742761D01*
X120722095Y-100695142D01*
X120769714Y-100599904D01*
X120769714Y-100504666D01*
X120722095Y-100409428D01*
X120674476Y-100361809D01*
X120579238Y-100314190D01*
X120388761Y-100266571D01*
X120293523Y-100218952D01*
X120245904Y-100171333D01*
X120198285Y-100076095D01*
X120198285Y-99980857D01*
X120245904Y-99885619D01*
X120293523Y-99838000D01*
X120388761Y-99790380D01*
X120626857Y-99790380D01*
X120769714Y-99838000D01*
X121150666Y-99885619D02*
X121198285Y-99838000D01*
X121293523Y-99790380D01*
X121531619Y-99790380D01*
X121626857Y-99838000D01*
X121674476Y-99885619D01*
X121722095Y-99980857D01*
X121722095Y-100076095D01*
X121674476Y-100218952D01*
X121103047Y-100790380D01*
X121722095Y-100790380D01*
X122150666Y-100266571D02*
X122484000Y-100266571D01*
X122626857Y-100790380D02*
X122150666Y-100790380D01*
X122150666Y-99790380D01*
X122626857Y-99790380D01*
X123055428Y-100409428D02*
X123817333Y-100409428D01*
X124293523Y-100790380D02*
X124293523Y-99790380D01*
X124626857Y-100504666D01*
X124960190Y-99790380D01*
X124960190Y-100790380D01*
X125912571Y-100790380D02*
X125436380Y-100790380D01*
X125436380Y-99790380D01*
X126198285Y-99885619D02*
X126245904Y-99838000D01*
X126341142Y-99790380D01*
X126579238Y-99790380D01*
X126674476Y-99838000D01*
X126722095Y-99885619D01*
X126769714Y-99980857D01*
X126769714Y-100076095D01*
X126722095Y-100218952D01*
X126150666Y-100790380D01*
X126769714Y-100790380D01*
X127198285Y-100409428D02*
X127960190Y-100409428D01*
X128436380Y-100790380D02*
X128436380Y-99790380D01*
X128674476Y-99790380D01*
X128817333Y-99838000D01*
X128912571Y-99933238D01*
X128960190Y-100028476D01*
X129007809Y-100218952D01*
X129007809Y-100361809D01*
X128960190Y-100552285D01*
X128912571Y-100647523D01*
X128817333Y-100742761D01*
X128674476Y-100790380D01*
X128436380Y-100790380D01*
X130007809Y-100695142D02*
X129960190Y-100742761D01*
X129817333Y-100790380D01*
X129722095Y-100790380D01*
X129579238Y-100742761D01*
X129484000Y-100647523D01*
X129436380Y-100552285D01*
X129388761Y-100361809D01*
X129388761Y-100218952D01*
X129436380Y-100028476D01*
X129484000Y-99933238D01*
X129579238Y-99838000D01*
X129722095Y-99790380D01*
X129817333Y-99790380D01*
X129960190Y-99838000D01*
X130007809Y-99885619D01*
X130960190Y-100790380D02*
X130388761Y-100790380D01*
X130674476Y-100790380D02*
X130674476Y-99790380D01*
X130579238Y-99933238D01*
X130484000Y-100028476D01*
X130388761Y-100076095D01*
X131341142Y-99885619D02*
X131388761Y-99838000D01*
X131484000Y-99790380D01*
X131722095Y-99790380D01*
X131817333Y-99838000D01*
X131864952Y-99885619D01*
X131912571Y-99980857D01*
X131912571Y-100076095D01*
X131864952Y-100218952D01*
X131293523Y-100790380D01*
X131912571Y-100790380D01*
X132198285Y-99790380D02*
X132531619Y-100790380D01*
X132864952Y-99790380D01*
G04 #@! TO.C,RLY-C1*
X123864952Y-90114380D02*
X123531619Y-89638190D01*
X123293523Y-90114380D02*
X123293523Y-89114380D01*
X123674476Y-89114380D01*
X123769714Y-89162000D01*
X123817333Y-89209619D01*
X123864952Y-89304857D01*
X123864952Y-89447714D01*
X123817333Y-89542952D01*
X123769714Y-89590571D01*
X123674476Y-89638190D01*
X123293523Y-89638190D01*
X124769714Y-90114380D02*
X124293523Y-90114380D01*
X124293523Y-89114380D01*
X125293523Y-89638190D02*
X125293523Y-90114380D01*
X124960190Y-89114380D02*
X125293523Y-89638190D01*
X125626857Y-89114380D01*
X125960190Y-89733428D02*
X126722095Y-89733428D01*
X127769714Y-90019142D02*
X127722095Y-90066761D01*
X127579238Y-90114380D01*
X127484000Y-90114380D01*
X127341142Y-90066761D01*
X127245904Y-89971523D01*
X127198285Y-89876285D01*
X127150666Y-89685809D01*
X127150666Y-89542952D01*
X127198285Y-89352476D01*
X127245904Y-89257238D01*
X127341142Y-89162000D01*
X127484000Y-89114380D01*
X127579238Y-89114380D01*
X127722095Y-89162000D01*
X127769714Y-89209619D01*
X128722095Y-90114380D02*
X128150666Y-90114380D01*
X128436380Y-90114380D02*
X128436380Y-89114380D01*
X128341142Y-89257238D01*
X128245904Y-89352476D01*
X128150666Y-89400095D01*
X119245904Y-88090380D02*
X119245904Y-87090380D01*
X119484000Y-87090380D01*
X119626857Y-87138000D01*
X119722095Y-87233238D01*
X119769714Y-87328476D01*
X119817333Y-87518952D01*
X119817333Y-87661809D01*
X119769714Y-87852285D01*
X119722095Y-87947523D01*
X119626857Y-88042761D01*
X119484000Y-88090380D01*
X119245904Y-88090380D01*
X120198285Y-88042761D02*
X120341142Y-88090380D01*
X120579238Y-88090380D01*
X120674476Y-88042761D01*
X120722095Y-87995142D01*
X120769714Y-87899904D01*
X120769714Y-87804666D01*
X120722095Y-87709428D01*
X120674476Y-87661809D01*
X120579238Y-87614190D01*
X120388761Y-87566571D01*
X120293523Y-87518952D01*
X120245904Y-87471333D01*
X120198285Y-87376095D01*
X120198285Y-87280857D01*
X120245904Y-87185619D01*
X120293523Y-87138000D01*
X120388761Y-87090380D01*
X120626857Y-87090380D01*
X120769714Y-87138000D01*
X121150666Y-87185619D02*
X121198285Y-87138000D01*
X121293523Y-87090380D01*
X121531619Y-87090380D01*
X121626857Y-87138000D01*
X121674476Y-87185619D01*
X121722095Y-87280857D01*
X121722095Y-87376095D01*
X121674476Y-87518952D01*
X121103047Y-88090380D01*
X121722095Y-88090380D01*
X122150666Y-87566571D02*
X122484000Y-87566571D01*
X122626857Y-88090380D02*
X122150666Y-88090380D01*
X122150666Y-87090380D01*
X122626857Y-87090380D01*
X123055428Y-87709428D02*
X123817333Y-87709428D01*
X124293523Y-88090380D02*
X124293523Y-87090380D01*
X124626857Y-87804666D01*
X124960190Y-87090380D01*
X124960190Y-88090380D01*
X125912571Y-88090380D02*
X125436380Y-88090380D01*
X125436380Y-87090380D01*
X126198285Y-87185619D02*
X126245904Y-87138000D01*
X126341142Y-87090380D01*
X126579238Y-87090380D01*
X126674476Y-87138000D01*
X126722095Y-87185619D01*
X126769714Y-87280857D01*
X126769714Y-87376095D01*
X126722095Y-87518952D01*
X126150666Y-88090380D01*
X126769714Y-88090380D01*
X127198285Y-87709428D02*
X127960190Y-87709428D01*
X128436380Y-88090380D02*
X128436380Y-87090380D01*
X128674476Y-87090380D01*
X128817333Y-87138000D01*
X128912571Y-87233238D01*
X128960190Y-87328476D01*
X129007809Y-87518952D01*
X129007809Y-87661809D01*
X128960190Y-87852285D01*
X128912571Y-87947523D01*
X128817333Y-88042761D01*
X128674476Y-88090380D01*
X128436380Y-88090380D01*
X130007809Y-87995142D02*
X129960190Y-88042761D01*
X129817333Y-88090380D01*
X129722095Y-88090380D01*
X129579238Y-88042761D01*
X129484000Y-87947523D01*
X129436380Y-87852285D01*
X129388761Y-87661809D01*
X129388761Y-87518952D01*
X129436380Y-87328476D01*
X129484000Y-87233238D01*
X129579238Y-87138000D01*
X129722095Y-87090380D01*
X129817333Y-87090380D01*
X129960190Y-87138000D01*
X130007809Y-87185619D01*
X130960190Y-88090380D02*
X130388761Y-88090380D01*
X130674476Y-88090380D02*
X130674476Y-87090380D01*
X130579238Y-87233238D01*
X130484000Y-87328476D01*
X130388761Y-87376095D01*
X131341142Y-87185619D02*
X131388761Y-87138000D01*
X131484000Y-87090380D01*
X131722095Y-87090380D01*
X131817333Y-87138000D01*
X131864952Y-87185619D01*
X131912571Y-87280857D01*
X131912571Y-87376095D01*
X131864952Y-87518952D01*
X131293523Y-88090380D01*
X131912571Y-88090380D01*
X132198285Y-87090380D02*
X132531619Y-88090380D01*
X132864952Y-87090380D01*
G04 #@! TD*
M02*
