G04 #@! TF.GenerationSoftware,KiCad,Pcbnew,5.0.2-bee76a0~70~ubuntu18.04.1*
G04 #@! TF.CreationDate,2020-04-21T14:08:59+02:00*
G04 #@! TF.ProjectId,FeuSignalisation,46657553-6967-46e6-916c-69736174696f,rev?*
G04 #@! TF.SameCoordinates,Original*
G04 #@! TF.FileFunction,Copper,L1,Top*
G04 #@! TF.FilePolarity,Positive*
%FSLAX46Y46*%
G04 Gerber Fmt 4.6, Leading zero omitted, Abs format (unit mm)*
G04 Created by KiCad (PCBNEW 5.0.2-bee76a0~70~ubuntu18.04.1) date mar. 21 avril 2020 14:08:59 CEST*
%MOMM*%
%LPD*%
G01*
G04 APERTURE LIST*
G04 #@! TA.AperFunction,NonConductor*
%ADD10C,0.150000*%
G04 #@! TD*
G04 #@! TA.AperFunction,ComponentPad*
%ADD11R,3.000000X3.000000*%
G04 #@! TD*
G04 #@! TA.AperFunction,ComponentPad*
%ADD12C,3.000000*%
G04 #@! TD*
G04 #@! TA.AperFunction,ComponentPad*
%ADD13R,1.700000X1.700000*%
G04 #@! TD*
G04 #@! TA.AperFunction,ComponentPad*
%ADD14O,1.700000X1.700000*%
G04 #@! TD*
G04 #@! TA.AperFunction,ComponentPad*
%ADD15C,1.800000*%
G04 #@! TD*
G04 #@! TA.AperFunction,ComponentPad*
%ADD16R,1.600000X1.600000*%
G04 #@! TD*
G04 #@! TA.AperFunction,ComponentPad*
%ADD17O,1.600000X1.600000*%
G04 #@! TD*
G04 #@! TA.AperFunction,ComponentPad*
%ADD18C,5.000000*%
G04 #@! TD*
G04 APERTURE END LIST*
D10*
X167640000Y-84582000D02*
X90678000Y-84582000D01*
X167640000Y-48768000D02*
X167640000Y-84582000D01*
X90678000Y-48768000D02*
X167640000Y-48768000D01*
X90678000Y-84582000D02*
X90678000Y-48768000D01*
D11*
G04 #@! TO.P,K1,1*
G04 #@! TO.N,Net-(K1-Pad1)*
X100330000Y-55880000D03*
D12*
G04 #@! TO.P,K1,2*
G04 #@! TO.N,Net-(K1-Pad2)*
X95250000Y-55880000D03*
G04 #@! TD*
D13*
G04 #@! TO.P,K2,1*
G04 #@! TO.N,Net-(D6-Pad2)*
X163576000Y-72898000D03*
D14*
G04 #@! TO.P,K2,2*
G04 #@! TO.N,Net-(D1-Pad2)*
X163576000Y-70358000D03*
G04 #@! TO.P,K2,3*
G04 #@! TO.N,Net-(D2-Pad2)*
X163576000Y-67818000D03*
G04 #@! TO.P,K2,4*
G04 #@! TO.N,Net-(D3-Pad2)*
X163576000Y-65278000D03*
G04 #@! TO.P,K2,5*
G04 #@! TO.N,Net-(D4-Pad2)*
X163576000Y-62738000D03*
G04 #@! TO.P,K2,6*
G04 #@! TO.N,Net-(D5-Pad2)*
X163576000Y-60198000D03*
G04 #@! TD*
G04 #@! TO.P,K3,6*
G04 #@! TO.N,Net-(K3-Pad3)*
X96520000Y-62230000D03*
G04 #@! TO.P,K3,5*
G04 #@! TO.N,Net-(K3-Pad5)*
X96520000Y-64770000D03*
G04 #@! TO.P,K3,4*
G04 #@! TO.N,Net-(K3-Pad4)*
X96520000Y-67310000D03*
G04 #@! TO.P,K3,3*
G04 #@! TO.N,Net-(K3-Pad3)*
X96520000Y-69850000D03*
G04 #@! TO.P,K3,2*
G04 #@! TO.N,Net-(K3-Pad2)*
X96520000Y-72390000D03*
D13*
G04 #@! TO.P,K3,1*
G04 #@! TO.N,Net-(K3-Pad1)*
X96520000Y-74930000D03*
G04 #@! TD*
G04 #@! TO.P,K4,1*
G04 #@! TO.N,Net-(K4-Pad1)*
X101346000Y-77470000D03*
D14*
G04 #@! TO.P,K4,2*
G04 #@! TO.N,Net-(K4-Pad2)*
X101346000Y-74930000D03*
G04 #@! TO.P,K4,3*
G04 #@! TO.N,Net-(K4-Pad3)*
X101346000Y-72390000D03*
G04 #@! TD*
D15*
G04 #@! TO.P,RLY-A1,9*
G04 #@! TO.N,Net-(K3-Pad3)*
X106172000Y-55118000D03*
G04 #@! TO.P,RLY-A1,11*
G04 #@! TO.N,Net-(RLY-A1-Pad11)*
X111252000Y-55118000D03*
G04 #@! TO.P,RLY-A1,13*
G04 #@! TO.N,Net-(RLY-A1-Pad13)*
X116332000Y-55118000D03*
G04 #@! TO.P,RLY-A1,15*
G04 #@! TO.N,Net-(K1-Pad2)*
X121412000Y-55118000D03*
G04 #@! TO.P,RLY-A1,16*
X123952000Y-55118000D03*
G04 #@! TO.P,RLY-A1,8*
G04 #@! TO.N,Net-(K3-Pad1)*
X106172000Y-62738000D03*
G04 #@! TO.P,RLY-A1,6*
G04 #@! TO.N,Net-(RLY-A1-Pad6)*
X111252000Y-62738000D03*
G04 #@! TO.P,RLY-A1,4*
G04 #@! TO.N,Net-(K1-Pad1)*
X116332000Y-62738000D03*
G04 #@! TO.P,RLY-A1,2*
G04 #@! TO.N,Net-(D6-Pad1)*
X121412000Y-62738000D03*
G04 #@! TO.P,RLY-A1,1*
X123952000Y-62738000D03*
G04 #@! TD*
G04 #@! TO.P,RLY-B1,1*
G04 #@! TO.N,Net-(D1-Pad1)*
X123952000Y-77724000D03*
G04 #@! TO.P,RLY-B1,2*
G04 #@! TO.N,Net-(D2-Pad1)*
X121412000Y-77724000D03*
G04 #@! TO.P,RLY-B1,4*
G04 #@! TO.N,Net-(K1-Pad1)*
X116332000Y-77724000D03*
G04 #@! TO.P,RLY-B1,6*
G04 #@! TO.N,Net-(RLY-B1-Pad6)*
X111252000Y-77724000D03*
G04 #@! TO.P,RLY-B1,8*
G04 #@! TO.N,Net-(K3-Pad2)*
X106172000Y-77724000D03*
G04 #@! TO.P,RLY-B1,16*
G04 #@! TO.N,Net-(K1-Pad2)*
X123952000Y-70104000D03*
G04 #@! TO.P,RLY-B1,15*
X121412000Y-70104000D03*
G04 #@! TO.P,RLY-B1,13*
G04 #@! TO.N,Net-(K4-Pad1)*
X116332000Y-70104000D03*
G04 #@! TO.P,RLY-B1,11*
G04 #@! TO.N,Net-(K4-Pad2)*
X111252000Y-70104000D03*
G04 #@! TO.P,RLY-B1,9*
G04 #@! TO.N,Net-(K4-Pad3)*
X106172000Y-70104000D03*
G04 #@! TD*
G04 #@! TO.P,RLY-C1,9*
G04 #@! TO.N,Net-(RLY-C1-Pad4)*
X130302000Y-55118000D03*
G04 #@! TO.P,RLY-C1,11*
G04 #@! TO.N,Net-(RLY-C1-Pad11)*
X135382000Y-55118000D03*
G04 #@! TO.P,RLY-C1,13*
G04 #@! TO.N,Net-(RLY-A1-Pad13)*
X140462000Y-55118000D03*
G04 #@! TO.P,RLY-C1,15*
G04 #@! TO.N,Net-(K1-Pad2)*
X145542000Y-55118000D03*
G04 #@! TO.P,RLY-C1,16*
X148082000Y-55118000D03*
G04 #@! TO.P,RLY-C1,8*
G04 #@! TO.N,Net-(K3-Pad4)*
X130302000Y-62738000D03*
G04 #@! TO.P,RLY-C1,6*
G04 #@! TO.N,Net-(K3-Pad5)*
X135382000Y-62738000D03*
G04 #@! TO.P,RLY-C1,4*
G04 #@! TO.N,Net-(RLY-C1-Pad4)*
X140462000Y-62738000D03*
G04 #@! TO.P,RLY-C1,2*
G04 #@! TO.N,Net-(D4-Pad1)*
X145542000Y-62738000D03*
G04 #@! TO.P,RLY-C1,1*
G04 #@! TO.N,Net-(D3-Pad1)*
X148082000Y-62738000D03*
G04 #@! TD*
G04 #@! TO.P,RLY-D1,1*
G04 #@! TO.N,Net-(D5-Pad1)*
X148082000Y-77724000D03*
G04 #@! TO.P,RLY-D1,2*
X145542000Y-77724000D03*
G04 #@! TO.P,RLY-D1,4*
G04 #@! TO.N,Net-(K1-Pad1)*
X140462000Y-77724000D03*
G04 #@! TO.P,RLY-D1,6*
G04 #@! TO.N,Net-(RLY-A1-Pad13)*
X135382000Y-77724000D03*
G04 #@! TO.P,RLY-D1,8*
G04 #@! TO.N,Net-(RLY-D1-Pad13)*
X130302000Y-77724000D03*
G04 #@! TO.P,RLY-D1,16*
G04 #@! TO.N,Net-(K1-Pad2)*
X148082000Y-70104000D03*
G04 #@! TO.P,RLY-D1,15*
X145542000Y-70104000D03*
G04 #@! TO.P,RLY-D1,13*
G04 #@! TO.N,Net-(RLY-D1-Pad13)*
X140462000Y-70104000D03*
G04 #@! TO.P,RLY-D1,11*
G04 #@! TO.N,Net-(RLY-D1-Pad11)*
X135382000Y-70104000D03*
G04 #@! TO.P,RLY-D1,9*
G04 #@! TO.N,Net-(K3-Pad3)*
X130302000Y-70104000D03*
G04 #@! TD*
D16*
G04 #@! TO.P,D1,1*
G04 #@! TO.N,Net-(D1-Pad1)*
X151892000Y-73406000D03*
D17*
G04 #@! TO.P,D1,2*
G04 #@! TO.N,Net-(D1-Pad2)*
X159512000Y-73406000D03*
G04 #@! TD*
G04 #@! TO.P,D2,2*
G04 #@! TO.N,Net-(D2-Pad2)*
X159512000Y-77470000D03*
D16*
G04 #@! TO.P,D2,1*
G04 #@! TO.N,Net-(D2-Pad1)*
X151892000Y-77470000D03*
G04 #@! TD*
D17*
G04 #@! TO.P,D3,2*
G04 #@! TO.N,Net-(D3-Pad2)*
X159512000Y-60706000D03*
D16*
G04 #@! TO.P,D3,1*
G04 #@! TO.N,Net-(D3-Pad1)*
X151892000Y-60706000D03*
G04 #@! TD*
G04 #@! TO.P,D4,1*
G04 #@! TO.N,Net-(D4-Pad1)*
X151892000Y-56388000D03*
D17*
G04 #@! TO.P,D4,2*
G04 #@! TO.N,Net-(D4-Pad2)*
X159512000Y-56388000D03*
G04 #@! TD*
G04 #@! TO.P,D5,2*
G04 #@! TO.N,Net-(D5-Pad2)*
X159512000Y-69088000D03*
D16*
G04 #@! TO.P,D5,1*
G04 #@! TO.N,Net-(D5-Pad1)*
X151892000Y-69088000D03*
G04 #@! TD*
G04 #@! TO.P,D6,1*
G04 #@! TO.N,Net-(D6-Pad1)*
X151892000Y-64770000D03*
D17*
G04 #@! TO.P,D6,2*
G04 #@! TO.N,Net-(D6-Pad2)*
X159512000Y-64770000D03*
G04 #@! TD*
D18*
G04 #@! TO.P,REF\002A\002A,1*
G04 #@! TO.N,N/C*
X94742000Y-80518000D03*
G04 #@! TD*
G04 #@! TO.P,REF\002A\002A,1*
G04 #@! TO.N,N/C*
X163576000Y-52832000D03*
G04 #@! TD*
G04 #@! TO.P,REF\002A\002A,1*
G04 #@! TO.N,N/C*
X163576000Y-80518000D03*
G04 #@! TD*
M02*
