G04 #@! TF.GenerationSoftware,KiCad,Pcbnew,5.0.2-bee76a0~70~ubuntu18.04.1*
G04 #@! TF.CreationDate,2020-04-21T14:08:59+02:00*
G04 #@! TF.ProjectId,FeuSignalisation,46657553-6967-46e6-916c-69736174696f,rev?*
G04 #@! TF.SameCoordinates,Original*
G04 #@! TF.FileFunction,Legend,Top*
G04 #@! TF.FilePolarity,Positive*
%FSLAX46Y46*%
G04 Gerber Fmt 4.6, Leading zero omitted, Abs format (unit mm)*
G04 Created by KiCad (PCBNEW 5.0.2-bee76a0~70~ubuntu18.04.1) date mar. 21 avril 2020 14:08:59 CEST*
%MOMM*%
%LPD*%
G01*
G04 APERTURE LIST*
%ADD10C,0.150000*%
%ADD11C,0.120000*%
G04 APERTURE END LIST*
D10*
X167640000Y-84582000D02*
X90678000Y-84582000D01*
X167640000Y-48768000D02*
X167640000Y-84582000D01*
X90678000Y-48768000D02*
X167640000Y-48768000D01*
X90678000Y-84582000D02*
X90678000Y-48768000D01*
D11*
G04 #@! TO.C,K1*
X92710000Y-53340000D02*
X102870000Y-53340000D01*
X92710000Y-52070000D02*
X92710000Y-59690000D01*
X92710000Y-59690000D02*
X102870000Y-59690000D01*
X102870000Y-59690000D02*
X102870000Y-52070000D01*
X102870000Y-52070000D02*
X92710000Y-52070000D01*
G04 #@! TO.C,K2*
X164906000Y-58868000D02*
X162246000Y-58868000D01*
X164906000Y-71628000D02*
X164906000Y-58868000D01*
X162246000Y-71628000D02*
X162246000Y-58868000D01*
X164906000Y-71628000D02*
X162246000Y-71628000D01*
X164906000Y-72898000D02*
X164906000Y-74228000D01*
X164906000Y-74228000D02*
X163576000Y-74228000D01*
G04 #@! TO.C,K3*
X97850000Y-76260000D02*
X96520000Y-76260000D01*
X97850000Y-74930000D02*
X97850000Y-76260000D01*
X97850000Y-73660000D02*
X95190000Y-73660000D01*
X95190000Y-73660000D02*
X95190000Y-60900000D01*
X97850000Y-73660000D02*
X97850000Y-60900000D01*
X97850000Y-60900000D02*
X95190000Y-60900000D01*
G04 #@! TO.C,K4*
X102676000Y-71060000D02*
X100016000Y-71060000D01*
X102676000Y-76200000D02*
X102676000Y-71060000D01*
X100016000Y-76200000D02*
X100016000Y-71060000D01*
X102676000Y-76200000D02*
X100016000Y-76200000D01*
X102676000Y-77470000D02*
X102676000Y-78800000D01*
X102676000Y-78800000D02*
X101346000Y-78800000D01*
D10*
G04 #@! TO.C,RLY-A1*
X104902000Y-64008000D02*
X125222000Y-64008000D01*
X125222000Y-64008000D02*
X125222000Y-53848000D01*
X125222000Y-53848000D02*
X104902000Y-53848000D01*
X104902000Y-53848000D02*
X104902000Y-64008000D01*
G04 #@! TO.C,RLY-B1*
X104902000Y-68834000D02*
X104902000Y-78994000D01*
X125222000Y-68834000D02*
X104902000Y-68834000D01*
X125222000Y-78994000D02*
X125222000Y-68834000D01*
X104902000Y-78994000D02*
X125222000Y-78994000D01*
G04 #@! TO.C,RLY-C1*
X129032000Y-64008000D02*
X149352000Y-64008000D01*
X149352000Y-64008000D02*
X149352000Y-53848000D01*
X149352000Y-53848000D02*
X129032000Y-53848000D01*
X129032000Y-53848000D02*
X129032000Y-64008000D01*
G04 #@! TO.C,RLY-D1*
X129032000Y-68834000D02*
X129032000Y-78994000D01*
X149352000Y-68834000D02*
X129032000Y-68834000D01*
X149352000Y-78994000D02*
X149352000Y-68834000D01*
X129032000Y-78994000D02*
X149352000Y-78994000D01*
D11*
G04 #@! TO.C,D1*
X153582000Y-72286000D02*
X153582000Y-74526000D01*
X153582000Y-74526000D02*
X157822000Y-74526000D01*
X157822000Y-74526000D02*
X157822000Y-72286000D01*
X157822000Y-72286000D02*
X153582000Y-72286000D01*
X152932000Y-73406000D02*
X153582000Y-73406000D01*
X158472000Y-73406000D02*
X157822000Y-73406000D01*
X154302000Y-72286000D02*
X154302000Y-74526000D01*
X154422000Y-72286000D02*
X154422000Y-74526000D01*
X154182000Y-72286000D02*
X154182000Y-74526000D01*
G04 #@! TO.C,D2*
X154182000Y-76350000D02*
X154182000Y-78590000D01*
X154422000Y-76350000D02*
X154422000Y-78590000D01*
X154302000Y-76350000D02*
X154302000Y-78590000D01*
X158472000Y-77470000D02*
X157822000Y-77470000D01*
X152932000Y-77470000D02*
X153582000Y-77470000D01*
X157822000Y-76350000D02*
X153582000Y-76350000D01*
X157822000Y-78590000D02*
X157822000Y-76350000D01*
X153582000Y-78590000D02*
X157822000Y-78590000D01*
X153582000Y-76350000D02*
X153582000Y-78590000D01*
G04 #@! TO.C,D3*
X154182000Y-59586000D02*
X154182000Y-61826000D01*
X154422000Y-59586000D02*
X154422000Y-61826000D01*
X154302000Y-59586000D02*
X154302000Y-61826000D01*
X158472000Y-60706000D02*
X157822000Y-60706000D01*
X152932000Y-60706000D02*
X153582000Y-60706000D01*
X157822000Y-59586000D02*
X153582000Y-59586000D01*
X157822000Y-61826000D02*
X157822000Y-59586000D01*
X153582000Y-61826000D02*
X157822000Y-61826000D01*
X153582000Y-59586000D02*
X153582000Y-61826000D01*
G04 #@! TO.C,D4*
X153582000Y-55268000D02*
X153582000Y-57508000D01*
X153582000Y-57508000D02*
X157822000Y-57508000D01*
X157822000Y-57508000D02*
X157822000Y-55268000D01*
X157822000Y-55268000D02*
X153582000Y-55268000D01*
X152932000Y-56388000D02*
X153582000Y-56388000D01*
X158472000Y-56388000D02*
X157822000Y-56388000D01*
X154302000Y-55268000D02*
X154302000Y-57508000D01*
X154422000Y-55268000D02*
X154422000Y-57508000D01*
X154182000Y-55268000D02*
X154182000Y-57508000D01*
G04 #@! TO.C,D5*
X154182000Y-67968000D02*
X154182000Y-70208000D01*
X154422000Y-67968000D02*
X154422000Y-70208000D01*
X154302000Y-67968000D02*
X154302000Y-70208000D01*
X158472000Y-69088000D02*
X157822000Y-69088000D01*
X152932000Y-69088000D02*
X153582000Y-69088000D01*
X157822000Y-67968000D02*
X153582000Y-67968000D01*
X157822000Y-70208000D02*
X157822000Y-67968000D01*
X153582000Y-70208000D02*
X157822000Y-70208000D01*
X153582000Y-67968000D02*
X153582000Y-70208000D01*
G04 #@! TO.C,D6*
X153582000Y-63650000D02*
X153582000Y-65890000D01*
X153582000Y-65890000D02*
X157822000Y-65890000D01*
X157822000Y-65890000D02*
X157822000Y-63650000D01*
X157822000Y-63650000D02*
X153582000Y-63650000D01*
X152932000Y-64770000D02*
X153582000Y-64770000D01*
X158472000Y-64770000D02*
X157822000Y-64770000D01*
X154302000Y-63650000D02*
X154302000Y-65890000D01*
X154422000Y-63650000D02*
X154422000Y-65890000D01*
X154182000Y-63650000D02*
X154182000Y-65890000D01*
G04 #@! TD*
G04 #@! TO.C,K1*
D10*
X101115904Y-61158380D02*
X101115904Y-60158380D01*
X101687333Y-61158380D02*
X101258761Y-60586952D01*
X101687333Y-60158380D02*
X101115904Y-60729809D01*
X102639714Y-61158380D02*
X102068285Y-61158380D01*
X102354000Y-61158380D02*
X102354000Y-60158380D01*
X102258761Y-60301238D01*
X102163523Y-60396476D01*
X102068285Y-60444095D01*
X96242380Y-51252380D02*
X95670952Y-51252380D01*
X95956666Y-51252380D02*
X95956666Y-50252380D01*
X95861428Y-50395238D01*
X95766190Y-50490476D01*
X95670952Y-50538095D01*
X96623333Y-50347619D02*
X96670952Y-50300000D01*
X96766190Y-50252380D01*
X97004285Y-50252380D01*
X97099523Y-50300000D01*
X97147142Y-50347619D01*
X97194761Y-50442857D01*
X97194761Y-50538095D01*
X97147142Y-50680952D01*
X96575714Y-51252380D01*
X97194761Y-51252380D01*
X97480476Y-50252380D02*
X97813809Y-51252380D01*
X98147142Y-50252380D01*
X98432857Y-50966666D02*
X98909047Y-50966666D01*
X98337619Y-51252380D02*
X98670952Y-50252380D01*
X99004285Y-51252380D01*
X99909047Y-51157142D02*
X99861428Y-51204761D01*
X99718571Y-51252380D01*
X99623333Y-51252380D01*
X99480476Y-51204761D01*
X99385238Y-51109523D01*
X99337619Y-51014285D01*
X99290000Y-50823809D01*
X99290000Y-50680952D01*
X99337619Y-50490476D01*
X99385238Y-50395238D01*
X99480476Y-50300000D01*
X99623333Y-50252380D01*
X99718571Y-50252380D01*
X99861428Y-50300000D01*
X99909047Y-50347619D01*
G04 #@! TO.C,K2*
X162837904Y-75890380D02*
X162837904Y-74890380D01*
X163409333Y-75890380D02*
X162980761Y-75318952D01*
X163409333Y-74890380D02*
X162837904Y-75461809D01*
X163790285Y-74985619D02*
X163837904Y-74938000D01*
X163933142Y-74890380D01*
X164171238Y-74890380D01*
X164266476Y-74938000D01*
X164314095Y-74985619D01*
X164361714Y-75080857D01*
X164361714Y-75176095D01*
X164314095Y-75318952D01*
X163742666Y-75890380D01*
X164361714Y-75890380D01*
X166298571Y-69548000D02*
X166298571Y-69214666D01*
X166822380Y-69071809D02*
X166822380Y-69548000D01*
X165822380Y-69548000D01*
X165822380Y-69071809D01*
X166822380Y-68643238D02*
X165822380Y-68643238D01*
X166822380Y-68071809D01*
X165822380Y-68071809D01*
X165822380Y-67738476D02*
X165822380Y-67167047D01*
X166822380Y-67452761D02*
X165822380Y-67452761D01*
X166822380Y-66262285D02*
X166346190Y-66595619D01*
X166822380Y-66833714D02*
X165822380Y-66833714D01*
X165822380Y-66452761D01*
X165870000Y-66357523D01*
X165917619Y-66309904D01*
X166012857Y-66262285D01*
X166155714Y-66262285D01*
X166250952Y-66309904D01*
X166298571Y-66357523D01*
X166346190Y-66452761D01*
X166346190Y-66833714D01*
X166298571Y-65833714D02*
X166298571Y-65500380D01*
X166822380Y-65357523D02*
X166822380Y-65833714D01*
X165822380Y-65833714D01*
X165822380Y-65357523D01*
X166298571Y-64928952D02*
X166298571Y-64595619D01*
X166822380Y-64452761D02*
X166822380Y-64928952D01*
X165822380Y-64928952D01*
X165822380Y-64452761D01*
X166774761Y-64071809D02*
X166822380Y-63928952D01*
X166822380Y-63690857D01*
X166774761Y-63595619D01*
X166727142Y-63548000D01*
X166631904Y-63500380D01*
X166536666Y-63500380D01*
X166441428Y-63548000D01*
X166393809Y-63595619D01*
X166346190Y-63690857D01*
X166298571Y-63881333D01*
X166250952Y-63976571D01*
X166203333Y-64024190D01*
X166108095Y-64071809D01*
X166012857Y-64071809D01*
X165917619Y-64024190D01*
X165870000Y-63976571D01*
X165822380Y-63881333D01*
X165822380Y-63643238D01*
X165870000Y-63500380D01*
G04 #@! TO.C,K3*
X95781904Y-77922380D02*
X95781904Y-76922380D01*
X96353333Y-77922380D02*
X95924761Y-77350952D01*
X96353333Y-76922380D02*
X95781904Y-77493809D01*
X96686666Y-76922380D02*
X97305714Y-76922380D01*
X96972380Y-77303333D01*
X97115238Y-77303333D01*
X97210476Y-77350952D01*
X97258095Y-77398571D01*
X97305714Y-77493809D01*
X97305714Y-77731904D01*
X97258095Y-77827142D01*
X97210476Y-77874761D01*
X97115238Y-77922380D01*
X96829523Y-77922380D01*
X96734285Y-77874761D01*
X96686666Y-77827142D01*
X93876761Y-71437142D02*
X93924380Y-71294285D01*
X93924380Y-71056190D01*
X93876761Y-70960952D01*
X93829142Y-70913333D01*
X93733904Y-70865714D01*
X93638666Y-70865714D01*
X93543428Y-70913333D01*
X93495809Y-70960952D01*
X93448190Y-71056190D01*
X93400571Y-71246666D01*
X93352952Y-71341904D01*
X93305333Y-71389523D01*
X93210095Y-71437142D01*
X93114857Y-71437142D01*
X93019619Y-71389523D01*
X92972000Y-71341904D01*
X92924380Y-71246666D01*
X92924380Y-71008571D01*
X92972000Y-70865714D01*
X92924380Y-70246666D02*
X92924380Y-70056190D01*
X92972000Y-69960952D01*
X93067238Y-69865714D01*
X93257714Y-69818095D01*
X93591047Y-69818095D01*
X93781523Y-69865714D01*
X93876761Y-69960952D01*
X93924380Y-70056190D01*
X93924380Y-70246666D01*
X93876761Y-70341904D01*
X93781523Y-70437142D01*
X93591047Y-70484761D01*
X93257714Y-70484761D01*
X93067238Y-70437142D01*
X92972000Y-70341904D01*
X92924380Y-70246666D01*
X93924380Y-68818095D02*
X93448190Y-69151428D01*
X93924380Y-69389523D02*
X92924380Y-69389523D01*
X92924380Y-69008571D01*
X92972000Y-68913333D01*
X93019619Y-68865714D01*
X93114857Y-68818095D01*
X93257714Y-68818095D01*
X93352952Y-68865714D01*
X93400571Y-68913333D01*
X93448190Y-69008571D01*
X93448190Y-69389523D01*
X92924380Y-68532380D02*
X92924380Y-67960952D01*
X93924380Y-68246666D02*
X92924380Y-68246666D01*
X93924380Y-67627619D02*
X92924380Y-67627619D01*
X93400571Y-67151428D02*
X93400571Y-66818095D01*
X93924380Y-66675238D02*
X93924380Y-67151428D01*
X92924380Y-67151428D01*
X92924380Y-66675238D01*
X93876761Y-66294285D02*
X93924380Y-66151428D01*
X93924380Y-65913333D01*
X93876761Y-65818095D01*
X93829142Y-65770476D01*
X93733904Y-65722857D01*
X93638666Y-65722857D01*
X93543428Y-65770476D01*
X93495809Y-65818095D01*
X93448190Y-65913333D01*
X93400571Y-66103809D01*
X93352952Y-66199047D01*
X93305333Y-66246666D01*
X93210095Y-66294285D01*
X93114857Y-66294285D01*
X93019619Y-66246666D01*
X92972000Y-66199047D01*
X92924380Y-66103809D01*
X92924380Y-65865714D01*
X92972000Y-65722857D01*
G04 #@! TO.C,K4*
X100607904Y-80716380D02*
X100607904Y-79716380D01*
X101179333Y-80716380D02*
X100750761Y-80144952D01*
X101179333Y-79716380D02*
X100607904Y-80287809D01*
X102036476Y-80049714D02*
X102036476Y-80716380D01*
X101798380Y-79668761D02*
X101560285Y-80383047D01*
X102179333Y-80383047D01*
X100726952Y-70048380D02*
X100393619Y-69572190D01*
X100155523Y-70048380D02*
X100155523Y-69048380D01*
X100536476Y-69048380D01*
X100631714Y-69096000D01*
X100679333Y-69143619D01*
X100726952Y-69238857D01*
X100726952Y-69381714D01*
X100679333Y-69476952D01*
X100631714Y-69524571D01*
X100536476Y-69572190D01*
X100155523Y-69572190D01*
X101155523Y-69524571D02*
X101488857Y-69524571D01*
X101631714Y-70048380D02*
X101155523Y-70048380D01*
X101155523Y-69048380D01*
X101631714Y-69048380D01*
X102012666Y-70000761D02*
X102155523Y-70048380D01*
X102393619Y-70048380D01*
X102488857Y-70000761D01*
X102536476Y-69953142D01*
X102584095Y-69857904D01*
X102584095Y-69762666D01*
X102536476Y-69667428D01*
X102488857Y-69619809D01*
X102393619Y-69572190D01*
X102203142Y-69524571D01*
X102107904Y-69476952D01*
X102060285Y-69429333D01*
X102012666Y-69334095D01*
X102012666Y-69238857D01*
X102060285Y-69143619D01*
X102107904Y-69096000D01*
X102203142Y-69048380D01*
X102441238Y-69048380D01*
X102584095Y-69096000D01*
G04 #@! TO.C,RLY-A1*
X113014380Y-60904380D02*
X112681047Y-60428190D01*
X112442952Y-60904380D02*
X112442952Y-59904380D01*
X112823904Y-59904380D01*
X112919142Y-59952000D01*
X112966761Y-59999619D01*
X113014380Y-60094857D01*
X113014380Y-60237714D01*
X112966761Y-60332952D01*
X112919142Y-60380571D01*
X112823904Y-60428190D01*
X112442952Y-60428190D01*
X113919142Y-60904380D02*
X113442952Y-60904380D01*
X113442952Y-59904380D01*
X114442952Y-60428190D02*
X114442952Y-60904380D01*
X114109619Y-59904380D02*
X114442952Y-60428190D01*
X114776285Y-59904380D01*
X115109619Y-60523428D02*
X115871523Y-60523428D01*
X116300095Y-60618666D02*
X116776285Y-60618666D01*
X116204857Y-60904380D02*
X116538190Y-59904380D01*
X116871523Y-60904380D01*
X117728666Y-60904380D02*
X117157238Y-60904380D01*
X117442952Y-60904380D02*
X117442952Y-59904380D01*
X117347714Y-60047238D01*
X117252476Y-60142476D01*
X117157238Y-60190095D01*
X108323904Y-58880380D02*
X108323904Y-57880380D01*
X108562000Y-57880380D01*
X108704857Y-57928000D01*
X108800095Y-58023238D01*
X108847714Y-58118476D01*
X108895333Y-58308952D01*
X108895333Y-58451809D01*
X108847714Y-58642285D01*
X108800095Y-58737523D01*
X108704857Y-58832761D01*
X108562000Y-58880380D01*
X108323904Y-58880380D01*
X109276285Y-58832761D02*
X109419142Y-58880380D01*
X109657238Y-58880380D01*
X109752476Y-58832761D01*
X109800095Y-58785142D01*
X109847714Y-58689904D01*
X109847714Y-58594666D01*
X109800095Y-58499428D01*
X109752476Y-58451809D01*
X109657238Y-58404190D01*
X109466761Y-58356571D01*
X109371523Y-58308952D01*
X109323904Y-58261333D01*
X109276285Y-58166095D01*
X109276285Y-58070857D01*
X109323904Y-57975619D01*
X109371523Y-57928000D01*
X109466761Y-57880380D01*
X109704857Y-57880380D01*
X109847714Y-57928000D01*
X110228666Y-57975619D02*
X110276285Y-57928000D01*
X110371523Y-57880380D01*
X110609619Y-57880380D01*
X110704857Y-57928000D01*
X110752476Y-57975619D01*
X110800095Y-58070857D01*
X110800095Y-58166095D01*
X110752476Y-58308952D01*
X110181047Y-58880380D01*
X110800095Y-58880380D01*
X111228666Y-58356571D02*
X111562000Y-58356571D01*
X111704857Y-58880380D02*
X111228666Y-58880380D01*
X111228666Y-57880380D01*
X111704857Y-57880380D01*
X112133428Y-58499428D02*
X112895333Y-58499428D01*
X113371523Y-58880380D02*
X113371523Y-57880380D01*
X113704857Y-58594666D01*
X114038190Y-57880380D01*
X114038190Y-58880380D01*
X114990571Y-58880380D02*
X114514380Y-58880380D01*
X114514380Y-57880380D01*
X115276285Y-57975619D02*
X115323904Y-57928000D01*
X115419142Y-57880380D01*
X115657238Y-57880380D01*
X115752476Y-57928000D01*
X115800095Y-57975619D01*
X115847714Y-58070857D01*
X115847714Y-58166095D01*
X115800095Y-58308952D01*
X115228666Y-58880380D01*
X115847714Y-58880380D01*
X116276285Y-58499428D02*
X117038190Y-58499428D01*
X117514380Y-58880380D02*
X117514380Y-57880380D01*
X117752476Y-57880380D01*
X117895333Y-57928000D01*
X117990571Y-58023238D01*
X118038190Y-58118476D01*
X118085809Y-58308952D01*
X118085809Y-58451809D01*
X118038190Y-58642285D01*
X117990571Y-58737523D01*
X117895333Y-58832761D01*
X117752476Y-58880380D01*
X117514380Y-58880380D01*
X119085809Y-58785142D02*
X119038190Y-58832761D01*
X118895333Y-58880380D01*
X118800095Y-58880380D01*
X118657238Y-58832761D01*
X118562000Y-58737523D01*
X118514380Y-58642285D01*
X118466761Y-58451809D01*
X118466761Y-58308952D01*
X118514380Y-58118476D01*
X118562000Y-58023238D01*
X118657238Y-57928000D01*
X118800095Y-57880380D01*
X118895333Y-57880380D01*
X119038190Y-57928000D01*
X119085809Y-57975619D01*
X120038190Y-58880380D02*
X119466761Y-58880380D01*
X119752476Y-58880380D02*
X119752476Y-57880380D01*
X119657238Y-58023238D01*
X119562000Y-58118476D01*
X119466761Y-58166095D01*
X120419142Y-57975619D02*
X120466761Y-57928000D01*
X120562000Y-57880380D01*
X120800095Y-57880380D01*
X120895333Y-57928000D01*
X120942952Y-57975619D01*
X120990571Y-58070857D01*
X120990571Y-58166095D01*
X120942952Y-58308952D01*
X120371523Y-58880380D01*
X120990571Y-58880380D01*
X121276285Y-57880380D02*
X121609619Y-58880380D01*
X121942952Y-57880380D01*
G04 #@! TO.C,RLY-B1*
X112942952Y-75890380D02*
X112609619Y-75414190D01*
X112371523Y-75890380D02*
X112371523Y-74890380D01*
X112752476Y-74890380D01*
X112847714Y-74938000D01*
X112895333Y-74985619D01*
X112942952Y-75080857D01*
X112942952Y-75223714D01*
X112895333Y-75318952D01*
X112847714Y-75366571D01*
X112752476Y-75414190D01*
X112371523Y-75414190D01*
X113847714Y-75890380D02*
X113371523Y-75890380D01*
X113371523Y-74890380D01*
X114371523Y-75414190D02*
X114371523Y-75890380D01*
X114038190Y-74890380D02*
X114371523Y-75414190D01*
X114704857Y-74890380D01*
X115038190Y-75509428D02*
X115800095Y-75509428D01*
X116609619Y-75366571D02*
X116752476Y-75414190D01*
X116800095Y-75461809D01*
X116847714Y-75557047D01*
X116847714Y-75699904D01*
X116800095Y-75795142D01*
X116752476Y-75842761D01*
X116657238Y-75890380D01*
X116276285Y-75890380D01*
X116276285Y-74890380D01*
X116609619Y-74890380D01*
X116704857Y-74938000D01*
X116752476Y-74985619D01*
X116800095Y-75080857D01*
X116800095Y-75176095D01*
X116752476Y-75271333D01*
X116704857Y-75318952D01*
X116609619Y-75366571D01*
X116276285Y-75366571D01*
X117800095Y-75890380D02*
X117228666Y-75890380D01*
X117514380Y-75890380D02*
X117514380Y-74890380D01*
X117419142Y-75033238D01*
X117323904Y-75128476D01*
X117228666Y-75176095D01*
X108323904Y-73866380D02*
X108323904Y-72866380D01*
X108562000Y-72866380D01*
X108704857Y-72914000D01*
X108800095Y-73009238D01*
X108847714Y-73104476D01*
X108895333Y-73294952D01*
X108895333Y-73437809D01*
X108847714Y-73628285D01*
X108800095Y-73723523D01*
X108704857Y-73818761D01*
X108562000Y-73866380D01*
X108323904Y-73866380D01*
X109276285Y-73818761D02*
X109419142Y-73866380D01*
X109657238Y-73866380D01*
X109752476Y-73818761D01*
X109800095Y-73771142D01*
X109847714Y-73675904D01*
X109847714Y-73580666D01*
X109800095Y-73485428D01*
X109752476Y-73437809D01*
X109657238Y-73390190D01*
X109466761Y-73342571D01*
X109371523Y-73294952D01*
X109323904Y-73247333D01*
X109276285Y-73152095D01*
X109276285Y-73056857D01*
X109323904Y-72961619D01*
X109371523Y-72914000D01*
X109466761Y-72866380D01*
X109704857Y-72866380D01*
X109847714Y-72914000D01*
X110228666Y-72961619D02*
X110276285Y-72914000D01*
X110371523Y-72866380D01*
X110609619Y-72866380D01*
X110704857Y-72914000D01*
X110752476Y-72961619D01*
X110800095Y-73056857D01*
X110800095Y-73152095D01*
X110752476Y-73294952D01*
X110181047Y-73866380D01*
X110800095Y-73866380D01*
X111228666Y-73342571D02*
X111562000Y-73342571D01*
X111704857Y-73866380D02*
X111228666Y-73866380D01*
X111228666Y-72866380D01*
X111704857Y-72866380D01*
X112133428Y-73485428D02*
X112895333Y-73485428D01*
X113371523Y-73866380D02*
X113371523Y-72866380D01*
X113704857Y-73580666D01*
X114038190Y-72866380D01*
X114038190Y-73866380D01*
X114990571Y-73866380D02*
X114514380Y-73866380D01*
X114514380Y-72866380D01*
X115276285Y-72961619D02*
X115323904Y-72914000D01*
X115419142Y-72866380D01*
X115657238Y-72866380D01*
X115752476Y-72914000D01*
X115800095Y-72961619D01*
X115847714Y-73056857D01*
X115847714Y-73152095D01*
X115800095Y-73294952D01*
X115228666Y-73866380D01*
X115847714Y-73866380D01*
X116276285Y-73485428D02*
X117038190Y-73485428D01*
X117514380Y-73866380D02*
X117514380Y-72866380D01*
X117752476Y-72866380D01*
X117895333Y-72914000D01*
X117990571Y-73009238D01*
X118038190Y-73104476D01*
X118085809Y-73294952D01*
X118085809Y-73437809D01*
X118038190Y-73628285D01*
X117990571Y-73723523D01*
X117895333Y-73818761D01*
X117752476Y-73866380D01*
X117514380Y-73866380D01*
X119085809Y-73771142D02*
X119038190Y-73818761D01*
X118895333Y-73866380D01*
X118800095Y-73866380D01*
X118657238Y-73818761D01*
X118562000Y-73723523D01*
X118514380Y-73628285D01*
X118466761Y-73437809D01*
X118466761Y-73294952D01*
X118514380Y-73104476D01*
X118562000Y-73009238D01*
X118657238Y-72914000D01*
X118800095Y-72866380D01*
X118895333Y-72866380D01*
X119038190Y-72914000D01*
X119085809Y-72961619D01*
X120038190Y-73866380D02*
X119466761Y-73866380D01*
X119752476Y-73866380D02*
X119752476Y-72866380D01*
X119657238Y-73009238D01*
X119562000Y-73104476D01*
X119466761Y-73152095D01*
X120419142Y-72961619D02*
X120466761Y-72914000D01*
X120562000Y-72866380D01*
X120800095Y-72866380D01*
X120895333Y-72914000D01*
X120942952Y-72961619D01*
X120990571Y-73056857D01*
X120990571Y-73152095D01*
X120942952Y-73294952D01*
X120371523Y-73866380D01*
X120990571Y-73866380D01*
X121276285Y-72866380D02*
X121609619Y-73866380D01*
X121942952Y-72866380D01*
G04 #@! TO.C,RLY-C1*
X137072952Y-60904380D02*
X136739619Y-60428190D01*
X136501523Y-60904380D02*
X136501523Y-59904380D01*
X136882476Y-59904380D01*
X136977714Y-59952000D01*
X137025333Y-59999619D01*
X137072952Y-60094857D01*
X137072952Y-60237714D01*
X137025333Y-60332952D01*
X136977714Y-60380571D01*
X136882476Y-60428190D01*
X136501523Y-60428190D01*
X137977714Y-60904380D02*
X137501523Y-60904380D01*
X137501523Y-59904380D01*
X138501523Y-60428190D02*
X138501523Y-60904380D01*
X138168190Y-59904380D02*
X138501523Y-60428190D01*
X138834857Y-59904380D01*
X139168190Y-60523428D02*
X139930095Y-60523428D01*
X140977714Y-60809142D02*
X140930095Y-60856761D01*
X140787238Y-60904380D01*
X140692000Y-60904380D01*
X140549142Y-60856761D01*
X140453904Y-60761523D01*
X140406285Y-60666285D01*
X140358666Y-60475809D01*
X140358666Y-60332952D01*
X140406285Y-60142476D01*
X140453904Y-60047238D01*
X140549142Y-59952000D01*
X140692000Y-59904380D01*
X140787238Y-59904380D01*
X140930095Y-59952000D01*
X140977714Y-59999619D01*
X141930095Y-60904380D02*
X141358666Y-60904380D01*
X141644380Y-60904380D02*
X141644380Y-59904380D01*
X141549142Y-60047238D01*
X141453904Y-60142476D01*
X141358666Y-60190095D01*
X132453904Y-58880380D02*
X132453904Y-57880380D01*
X132692000Y-57880380D01*
X132834857Y-57928000D01*
X132930095Y-58023238D01*
X132977714Y-58118476D01*
X133025333Y-58308952D01*
X133025333Y-58451809D01*
X132977714Y-58642285D01*
X132930095Y-58737523D01*
X132834857Y-58832761D01*
X132692000Y-58880380D01*
X132453904Y-58880380D01*
X133406285Y-58832761D02*
X133549142Y-58880380D01*
X133787238Y-58880380D01*
X133882476Y-58832761D01*
X133930095Y-58785142D01*
X133977714Y-58689904D01*
X133977714Y-58594666D01*
X133930095Y-58499428D01*
X133882476Y-58451809D01*
X133787238Y-58404190D01*
X133596761Y-58356571D01*
X133501523Y-58308952D01*
X133453904Y-58261333D01*
X133406285Y-58166095D01*
X133406285Y-58070857D01*
X133453904Y-57975619D01*
X133501523Y-57928000D01*
X133596761Y-57880380D01*
X133834857Y-57880380D01*
X133977714Y-57928000D01*
X134358666Y-57975619D02*
X134406285Y-57928000D01*
X134501523Y-57880380D01*
X134739619Y-57880380D01*
X134834857Y-57928000D01*
X134882476Y-57975619D01*
X134930095Y-58070857D01*
X134930095Y-58166095D01*
X134882476Y-58308952D01*
X134311047Y-58880380D01*
X134930095Y-58880380D01*
X135358666Y-58356571D02*
X135692000Y-58356571D01*
X135834857Y-58880380D02*
X135358666Y-58880380D01*
X135358666Y-57880380D01*
X135834857Y-57880380D01*
X136263428Y-58499428D02*
X137025333Y-58499428D01*
X137501523Y-58880380D02*
X137501523Y-57880380D01*
X137834857Y-58594666D01*
X138168190Y-57880380D01*
X138168190Y-58880380D01*
X139120571Y-58880380D02*
X138644380Y-58880380D01*
X138644380Y-57880380D01*
X139406285Y-57975619D02*
X139453904Y-57928000D01*
X139549142Y-57880380D01*
X139787238Y-57880380D01*
X139882476Y-57928000D01*
X139930095Y-57975619D01*
X139977714Y-58070857D01*
X139977714Y-58166095D01*
X139930095Y-58308952D01*
X139358666Y-58880380D01*
X139977714Y-58880380D01*
X140406285Y-58499428D02*
X141168190Y-58499428D01*
X141644380Y-58880380D02*
X141644380Y-57880380D01*
X141882476Y-57880380D01*
X142025333Y-57928000D01*
X142120571Y-58023238D01*
X142168190Y-58118476D01*
X142215809Y-58308952D01*
X142215809Y-58451809D01*
X142168190Y-58642285D01*
X142120571Y-58737523D01*
X142025333Y-58832761D01*
X141882476Y-58880380D01*
X141644380Y-58880380D01*
X143215809Y-58785142D02*
X143168190Y-58832761D01*
X143025333Y-58880380D01*
X142930095Y-58880380D01*
X142787238Y-58832761D01*
X142692000Y-58737523D01*
X142644380Y-58642285D01*
X142596761Y-58451809D01*
X142596761Y-58308952D01*
X142644380Y-58118476D01*
X142692000Y-58023238D01*
X142787238Y-57928000D01*
X142930095Y-57880380D01*
X143025333Y-57880380D01*
X143168190Y-57928000D01*
X143215809Y-57975619D01*
X144168190Y-58880380D02*
X143596761Y-58880380D01*
X143882476Y-58880380D02*
X143882476Y-57880380D01*
X143787238Y-58023238D01*
X143692000Y-58118476D01*
X143596761Y-58166095D01*
X144549142Y-57975619D02*
X144596761Y-57928000D01*
X144692000Y-57880380D01*
X144930095Y-57880380D01*
X145025333Y-57928000D01*
X145072952Y-57975619D01*
X145120571Y-58070857D01*
X145120571Y-58166095D01*
X145072952Y-58308952D01*
X144501523Y-58880380D01*
X145120571Y-58880380D01*
X145406285Y-57880380D02*
X145739619Y-58880380D01*
X146072952Y-57880380D01*
G04 #@! TO.C,RLY-D1*
X137072952Y-75890380D02*
X136739619Y-75414190D01*
X136501523Y-75890380D02*
X136501523Y-74890380D01*
X136882476Y-74890380D01*
X136977714Y-74938000D01*
X137025333Y-74985619D01*
X137072952Y-75080857D01*
X137072952Y-75223714D01*
X137025333Y-75318952D01*
X136977714Y-75366571D01*
X136882476Y-75414190D01*
X136501523Y-75414190D01*
X137977714Y-75890380D02*
X137501523Y-75890380D01*
X137501523Y-74890380D01*
X138501523Y-75414190D02*
X138501523Y-75890380D01*
X138168190Y-74890380D02*
X138501523Y-75414190D01*
X138834857Y-74890380D01*
X139168190Y-75509428D02*
X139930095Y-75509428D01*
X140406285Y-75890380D02*
X140406285Y-74890380D01*
X140644380Y-74890380D01*
X140787238Y-74938000D01*
X140882476Y-75033238D01*
X140930095Y-75128476D01*
X140977714Y-75318952D01*
X140977714Y-75461809D01*
X140930095Y-75652285D01*
X140882476Y-75747523D01*
X140787238Y-75842761D01*
X140644380Y-75890380D01*
X140406285Y-75890380D01*
X141930095Y-75890380D02*
X141358666Y-75890380D01*
X141644380Y-75890380D02*
X141644380Y-74890380D01*
X141549142Y-75033238D01*
X141453904Y-75128476D01*
X141358666Y-75176095D01*
X132453904Y-73866380D02*
X132453904Y-72866380D01*
X132692000Y-72866380D01*
X132834857Y-72914000D01*
X132930095Y-73009238D01*
X132977714Y-73104476D01*
X133025333Y-73294952D01*
X133025333Y-73437809D01*
X132977714Y-73628285D01*
X132930095Y-73723523D01*
X132834857Y-73818761D01*
X132692000Y-73866380D01*
X132453904Y-73866380D01*
X133406285Y-73818761D02*
X133549142Y-73866380D01*
X133787238Y-73866380D01*
X133882476Y-73818761D01*
X133930095Y-73771142D01*
X133977714Y-73675904D01*
X133977714Y-73580666D01*
X133930095Y-73485428D01*
X133882476Y-73437809D01*
X133787238Y-73390190D01*
X133596761Y-73342571D01*
X133501523Y-73294952D01*
X133453904Y-73247333D01*
X133406285Y-73152095D01*
X133406285Y-73056857D01*
X133453904Y-72961619D01*
X133501523Y-72914000D01*
X133596761Y-72866380D01*
X133834857Y-72866380D01*
X133977714Y-72914000D01*
X134358666Y-72961619D02*
X134406285Y-72914000D01*
X134501523Y-72866380D01*
X134739619Y-72866380D01*
X134834857Y-72914000D01*
X134882476Y-72961619D01*
X134930095Y-73056857D01*
X134930095Y-73152095D01*
X134882476Y-73294952D01*
X134311047Y-73866380D01*
X134930095Y-73866380D01*
X135358666Y-73342571D02*
X135692000Y-73342571D01*
X135834857Y-73866380D02*
X135358666Y-73866380D01*
X135358666Y-72866380D01*
X135834857Y-72866380D01*
X136263428Y-73485428D02*
X137025333Y-73485428D01*
X137501523Y-73866380D02*
X137501523Y-72866380D01*
X137834857Y-73580666D01*
X138168190Y-72866380D01*
X138168190Y-73866380D01*
X139120571Y-73866380D02*
X138644380Y-73866380D01*
X138644380Y-72866380D01*
X139406285Y-72961619D02*
X139453904Y-72914000D01*
X139549142Y-72866380D01*
X139787238Y-72866380D01*
X139882476Y-72914000D01*
X139930095Y-72961619D01*
X139977714Y-73056857D01*
X139977714Y-73152095D01*
X139930095Y-73294952D01*
X139358666Y-73866380D01*
X139977714Y-73866380D01*
X140406285Y-73485428D02*
X141168190Y-73485428D01*
X141644380Y-73866380D02*
X141644380Y-72866380D01*
X141882476Y-72866380D01*
X142025333Y-72914000D01*
X142120571Y-73009238D01*
X142168190Y-73104476D01*
X142215809Y-73294952D01*
X142215809Y-73437809D01*
X142168190Y-73628285D01*
X142120571Y-73723523D01*
X142025333Y-73818761D01*
X141882476Y-73866380D01*
X141644380Y-73866380D01*
X143215809Y-73771142D02*
X143168190Y-73818761D01*
X143025333Y-73866380D01*
X142930095Y-73866380D01*
X142787238Y-73818761D01*
X142692000Y-73723523D01*
X142644380Y-73628285D01*
X142596761Y-73437809D01*
X142596761Y-73294952D01*
X142644380Y-73104476D01*
X142692000Y-73009238D01*
X142787238Y-72914000D01*
X142930095Y-72866380D01*
X143025333Y-72866380D01*
X143168190Y-72914000D01*
X143215809Y-72961619D01*
X144168190Y-73866380D02*
X143596761Y-73866380D01*
X143882476Y-73866380D02*
X143882476Y-72866380D01*
X143787238Y-73009238D01*
X143692000Y-73104476D01*
X143596761Y-73152095D01*
X144549142Y-72961619D02*
X144596761Y-72914000D01*
X144692000Y-72866380D01*
X144930095Y-72866380D01*
X145025333Y-72914000D01*
X145072952Y-72961619D01*
X145120571Y-73056857D01*
X145120571Y-73152095D01*
X145072952Y-73294952D01*
X144501523Y-73866380D01*
X145120571Y-73866380D01*
X145406285Y-72866380D02*
X145739619Y-73866380D01*
X146072952Y-72866380D01*
G04 #@! TO.C,D1*
X154963904Y-71738380D02*
X154963904Y-70738380D01*
X155202000Y-70738380D01*
X155344857Y-70786000D01*
X155440095Y-70881238D01*
X155487714Y-70976476D01*
X155535333Y-71166952D01*
X155535333Y-71309809D01*
X155487714Y-71500285D01*
X155440095Y-71595523D01*
X155344857Y-71690761D01*
X155202000Y-71738380D01*
X154963904Y-71738380D01*
X156487714Y-71738380D02*
X155916285Y-71738380D01*
X156202000Y-71738380D02*
X156202000Y-70738380D01*
X156106761Y-70881238D01*
X156011523Y-70976476D01*
X155916285Y-71024095D01*
X151630095Y-72058380D02*
X151630095Y-71058380D01*
X152201523Y-72058380D02*
X151772952Y-71486952D01*
X152201523Y-71058380D02*
X151630095Y-71629809D01*
G04 #@! TO.C,D2*
X154963904Y-75802380D02*
X154963904Y-74802380D01*
X155202000Y-74802380D01*
X155344857Y-74850000D01*
X155440095Y-74945238D01*
X155487714Y-75040476D01*
X155535333Y-75230952D01*
X155535333Y-75373809D01*
X155487714Y-75564285D01*
X155440095Y-75659523D01*
X155344857Y-75754761D01*
X155202000Y-75802380D01*
X154963904Y-75802380D01*
X155916285Y-74897619D02*
X155963904Y-74850000D01*
X156059142Y-74802380D01*
X156297238Y-74802380D01*
X156392476Y-74850000D01*
X156440095Y-74897619D01*
X156487714Y-74992857D01*
X156487714Y-75088095D01*
X156440095Y-75230952D01*
X155868666Y-75802380D01*
X156487714Y-75802380D01*
X151630095Y-76122380D02*
X151630095Y-75122380D01*
X152201523Y-76122380D02*
X151772952Y-75550952D01*
X152201523Y-75122380D02*
X151630095Y-75693809D01*
G04 #@! TO.C,D3*
X154963904Y-59038380D02*
X154963904Y-58038380D01*
X155202000Y-58038380D01*
X155344857Y-58086000D01*
X155440095Y-58181238D01*
X155487714Y-58276476D01*
X155535333Y-58466952D01*
X155535333Y-58609809D01*
X155487714Y-58800285D01*
X155440095Y-58895523D01*
X155344857Y-58990761D01*
X155202000Y-59038380D01*
X154963904Y-59038380D01*
X155868666Y-58038380D02*
X156487714Y-58038380D01*
X156154380Y-58419333D01*
X156297238Y-58419333D01*
X156392476Y-58466952D01*
X156440095Y-58514571D01*
X156487714Y-58609809D01*
X156487714Y-58847904D01*
X156440095Y-58943142D01*
X156392476Y-58990761D01*
X156297238Y-59038380D01*
X156011523Y-59038380D01*
X155916285Y-58990761D01*
X155868666Y-58943142D01*
X151630095Y-59358380D02*
X151630095Y-58358380D01*
X152201523Y-59358380D02*
X151772952Y-58786952D01*
X152201523Y-58358380D02*
X151630095Y-58929809D01*
G04 #@! TO.C,D4*
X154963904Y-54720380D02*
X154963904Y-53720380D01*
X155202000Y-53720380D01*
X155344857Y-53768000D01*
X155440095Y-53863238D01*
X155487714Y-53958476D01*
X155535333Y-54148952D01*
X155535333Y-54291809D01*
X155487714Y-54482285D01*
X155440095Y-54577523D01*
X155344857Y-54672761D01*
X155202000Y-54720380D01*
X154963904Y-54720380D01*
X156392476Y-54053714D02*
X156392476Y-54720380D01*
X156154380Y-53672761D02*
X155916285Y-54387047D01*
X156535333Y-54387047D01*
X151630095Y-55040380D02*
X151630095Y-54040380D01*
X152201523Y-55040380D02*
X151772952Y-54468952D01*
X152201523Y-54040380D02*
X151630095Y-54611809D01*
G04 #@! TO.C,D5*
X154963904Y-67420380D02*
X154963904Y-66420380D01*
X155202000Y-66420380D01*
X155344857Y-66468000D01*
X155440095Y-66563238D01*
X155487714Y-66658476D01*
X155535333Y-66848952D01*
X155535333Y-66991809D01*
X155487714Y-67182285D01*
X155440095Y-67277523D01*
X155344857Y-67372761D01*
X155202000Y-67420380D01*
X154963904Y-67420380D01*
X156440095Y-66420380D02*
X155963904Y-66420380D01*
X155916285Y-66896571D01*
X155963904Y-66848952D01*
X156059142Y-66801333D01*
X156297238Y-66801333D01*
X156392476Y-66848952D01*
X156440095Y-66896571D01*
X156487714Y-66991809D01*
X156487714Y-67229904D01*
X156440095Y-67325142D01*
X156392476Y-67372761D01*
X156297238Y-67420380D01*
X156059142Y-67420380D01*
X155963904Y-67372761D01*
X155916285Y-67325142D01*
X151630095Y-67740380D02*
X151630095Y-66740380D01*
X152201523Y-67740380D02*
X151772952Y-67168952D01*
X152201523Y-66740380D02*
X151630095Y-67311809D01*
G04 #@! TO.C,D6*
X154963904Y-63102380D02*
X154963904Y-62102380D01*
X155202000Y-62102380D01*
X155344857Y-62150000D01*
X155440095Y-62245238D01*
X155487714Y-62340476D01*
X155535333Y-62530952D01*
X155535333Y-62673809D01*
X155487714Y-62864285D01*
X155440095Y-62959523D01*
X155344857Y-63054761D01*
X155202000Y-63102380D01*
X154963904Y-63102380D01*
X156392476Y-62102380D02*
X156202000Y-62102380D01*
X156106761Y-62150000D01*
X156059142Y-62197619D01*
X155963904Y-62340476D01*
X155916285Y-62530952D01*
X155916285Y-62911904D01*
X155963904Y-63007142D01*
X156011523Y-63054761D01*
X156106761Y-63102380D01*
X156297238Y-63102380D01*
X156392476Y-63054761D01*
X156440095Y-63007142D01*
X156487714Y-62911904D01*
X156487714Y-62673809D01*
X156440095Y-62578571D01*
X156392476Y-62530952D01*
X156297238Y-62483333D01*
X156106761Y-62483333D01*
X156011523Y-62530952D01*
X155963904Y-62578571D01*
X155916285Y-62673809D01*
X151630095Y-63422380D02*
X151630095Y-62422380D01*
X152201523Y-63422380D02*
X151772952Y-62850952D01*
X152201523Y-62422380D02*
X151630095Y-62993809D01*
G04 #@! TD*
M02*
