G04 #@! TF.GenerationSoftware,KiCad,Pcbnew,5.0.2-bee76a0~70~ubuntu18.04.1*
G04 #@! TF.CreationDate,2020-04-21T14:08:59+02:00*
G04 #@! TF.ProjectId,FeuSignalisation,46657553-6967-46e6-916c-69736174696f,rev?*
G04 #@! TF.SameCoordinates,Original*
G04 #@! TF.FileFunction,Copper,L2,Bot*
G04 #@! TF.FilePolarity,Positive*
%FSLAX46Y46*%
G04 Gerber Fmt 4.6, Leading zero omitted, Abs format (unit mm)*
G04 Created by KiCad (PCBNEW 5.0.2-bee76a0~70~ubuntu18.04.1) date mar. 21 avril 2020 14:08:59 CEST*
%MOMM*%
%LPD*%
G01*
G04 APERTURE LIST*
G04 #@! TA.AperFunction,NonConductor*
%ADD10C,0.150000*%
G04 #@! TD*
G04 #@! TA.AperFunction,ComponentPad*
%ADD11R,3.000000X3.000000*%
G04 #@! TD*
G04 #@! TA.AperFunction,ComponentPad*
%ADD12C,3.000000*%
G04 #@! TD*
G04 #@! TA.AperFunction,ComponentPad*
%ADD13R,1.700000X1.700000*%
G04 #@! TD*
G04 #@! TA.AperFunction,ComponentPad*
%ADD14O,1.700000X1.700000*%
G04 #@! TD*
G04 #@! TA.AperFunction,ComponentPad*
%ADD15C,1.800000*%
G04 #@! TD*
G04 #@! TA.AperFunction,ComponentPad*
%ADD16R,1.600000X1.600000*%
G04 #@! TD*
G04 #@! TA.AperFunction,ComponentPad*
%ADD17O,1.600000X1.600000*%
G04 #@! TD*
G04 #@! TA.AperFunction,ComponentPad*
%ADD18C,5.000000*%
G04 #@! TD*
G04 #@! TA.AperFunction,Conductor*
%ADD19C,0.500000*%
G04 #@! TD*
G04 #@! TA.AperFunction,Conductor*
%ADD20C,0.750000*%
G04 #@! TD*
G04 APERTURE END LIST*
D10*
X167640000Y-84582000D02*
X90678000Y-84582000D01*
X167640000Y-48768000D02*
X167640000Y-84582000D01*
X90678000Y-48768000D02*
X167640000Y-48768000D01*
X90678000Y-84582000D02*
X90678000Y-48768000D01*
D11*
G04 #@! TO.P,K1,1*
G04 #@! TO.N,Net-(K1-Pad1)*
X100330000Y-55880000D03*
D12*
G04 #@! TO.P,K1,2*
G04 #@! TO.N,Net-(K1-Pad2)*
X95250000Y-55880000D03*
G04 #@! TD*
D13*
G04 #@! TO.P,K2,1*
G04 #@! TO.N,Net-(D6-Pad2)*
X163576000Y-72898000D03*
D14*
G04 #@! TO.P,K2,2*
G04 #@! TO.N,Net-(D1-Pad2)*
X163576000Y-70358000D03*
G04 #@! TO.P,K2,3*
G04 #@! TO.N,Net-(D2-Pad2)*
X163576000Y-67818000D03*
G04 #@! TO.P,K2,4*
G04 #@! TO.N,Net-(D3-Pad2)*
X163576000Y-65278000D03*
G04 #@! TO.P,K2,5*
G04 #@! TO.N,Net-(D4-Pad2)*
X163576000Y-62738000D03*
G04 #@! TO.P,K2,6*
G04 #@! TO.N,Net-(D5-Pad2)*
X163576000Y-60198000D03*
G04 #@! TD*
G04 #@! TO.P,K3,6*
G04 #@! TO.N,Net-(K3-Pad3)*
X96520000Y-62230000D03*
G04 #@! TO.P,K3,5*
G04 #@! TO.N,Net-(K3-Pad5)*
X96520000Y-64770000D03*
G04 #@! TO.P,K3,4*
G04 #@! TO.N,Net-(K3-Pad4)*
X96520000Y-67310000D03*
G04 #@! TO.P,K3,3*
G04 #@! TO.N,Net-(K3-Pad3)*
X96520000Y-69850000D03*
G04 #@! TO.P,K3,2*
G04 #@! TO.N,Net-(K3-Pad2)*
X96520000Y-72390000D03*
D13*
G04 #@! TO.P,K3,1*
G04 #@! TO.N,Net-(K3-Pad1)*
X96520000Y-74930000D03*
G04 #@! TD*
G04 #@! TO.P,K4,1*
G04 #@! TO.N,Net-(K4-Pad1)*
X101346000Y-77470000D03*
D14*
G04 #@! TO.P,K4,2*
G04 #@! TO.N,Net-(K4-Pad2)*
X101346000Y-74930000D03*
G04 #@! TO.P,K4,3*
G04 #@! TO.N,Net-(K4-Pad3)*
X101346000Y-72390000D03*
G04 #@! TD*
D15*
G04 #@! TO.P,RLY-A1,9*
G04 #@! TO.N,Net-(K3-Pad3)*
X106172000Y-55118000D03*
G04 #@! TO.P,RLY-A1,11*
G04 #@! TO.N,Net-(RLY-A1-Pad11)*
X111252000Y-55118000D03*
G04 #@! TO.P,RLY-A1,13*
G04 #@! TO.N,Net-(RLY-A1-Pad13)*
X116332000Y-55118000D03*
G04 #@! TO.P,RLY-A1,15*
G04 #@! TO.N,Net-(K1-Pad2)*
X121412000Y-55118000D03*
G04 #@! TO.P,RLY-A1,16*
X123952000Y-55118000D03*
G04 #@! TO.P,RLY-A1,8*
G04 #@! TO.N,Net-(K3-Pad1)*
X106172000Y-62738000D03*
G04 #@! TO.P,RLY-A1,6*
G04 #@! TO.N,Net-(RLY-A1-Pad6)*
X111252000Y-62738000D03*
G04 #@! TO.P,RLY-A1,4*
G04 #@! TO.N,Net-(K1-Pad1)*
X116332000Y-62738000D03*
G04 #@! TO.P,RLY-A1,2*
G04 #@! TO.N,Net-(D6-Pad1)*
X121412000Y-62738000D03*
G04 #@! TO.P,RLY-A1,1*
X123952000Y-62738000D03*
G04 #@! TD*
G04 #@! TO.P,RLY-B1,1*
G04 #@! TO.N,Net-(D1-Pad1)*
X123952000Y-77724000D03*
G04 #@! TO.P,RLY-B1,2*
G04 #@! TO.N,Net-(D2-Pad1)*
X121412000Y-77724000D03*
G04 #@! TO.P,RLY-B1,4*
G04 #@! TO.N,Net-(K1-Pad1)*
X116332000Y-77724000D03*
G04 #@! TO.P,RLY-B1,6*
G04 #@! TO.N,Net-(RLY-B1-Pad6)*
X111252000Y-77724000D03*
G04 #@! TO.P,RLY-B1,8*
G04 #@! TO.N,Net-(K3-Pad2)*
X106172000Y-77724000D03*
G04 #@! TO.P,RLY-B1,16*
G04 #@! TO.N,Net-(K1-Pad2)*
X123952000Y-70104000D03*
G04 #@! TO.P,RLY-B1,15*
X121412000Y-70104000D03*
G04 #@! TO.P,RLY-B1,13*
G04 #@! TO.N,Net-(K4-Pad1)*
X116332000Y-70104000D03*
G04 #@! TO.P,RLY-B1,11*
G04 #@! TO.N,Net-(K4-Pad2)*
X111252000Y-70104000D03*
G04 #@! TO.P,RLY-B1,9*
G04 #@! TO.N,Net-(K4-Pad3)*
X106172000Y-70104000D03*
G04 #@! TD*
G04 #@! TO.P,RLY-C1,9*
G04 #@! TO.N,Net-(RLY-C1-Pad4)*
X130302000Y-55118000D03*
G04 #@! TO.P,RLY-C1,11*
G04 #@! TO.N,Net-(RLY-C1-Pad11)*
X135382000Y-55118000D03*
G04 #@! TO.P,RLY-C1,13*
G04 #@! TO.N,Net-(RLY-A1-Pad13)*
X140462000Y-55118000D03*
G04 #@! TO.P,RLY-C1,15*
G04 #@! TO.N,Net-(K1-Pad2)*
X145542000Y-55118000D03*
G04 #@! TO.P,RLY-C1,16*
X148082000Y-55118000D03*
G04 #@! TO.P,RLY-C1,8*
G04 #@! TO.N,Net-(K3-Pad4)*
X130302000Y-62738000D03*
G04 #@! TO.P,RLY-C1,6*
G04 #@! TO.N,Net-(K3-Pad5)*
X135382000Y-62738000D03*
G04 #@! TO.P,RLY-C1,4*
G04 #@! TO.N,Net-(RLY-C1-Pad4)*
X140462000Y-62738000D03*
G04 #@! TO.P,RLY-C1,2*
G04 #@! TO.N,Net-(D4-Pad1)*
X145542000Y-62738000D03*
G04 #@! TO.P,RLY-C1,1*
G04 #@! TO.N,Net-(D3-Pad1)*
X148082000Y-62738000D03*
G04 #@! TD*
G04 #@! TO.P,RLY-D1,1*
G04 #@! TO.N,Net-(D5-Pad1)*
X148082000Y-77724000D03*
G04 #@! TO.P,RLY-D1,2*
X145542000Y-77724000D03*
G04 #@! TO.P,RLY-D1,4*
G04 #@! TO.N,Net-(K1-Pad1)*
X140462000Y-77724000D03*
G04 #@! TO.P,RLY-D1,6*
G04 #@! TO.N,Net-(RLY-A1-Pad13)*
X135382000Y-77724000D03*
G04 #@! TO.P,RLY-D1,8*
G04 #@! TO.N,Net-(RLY-D1-Pad13)*
X130302000Y-77724000D03*
G04 #@! TO.P,RLY-D1,16*
G04 #@! TO.N,Net-(K1-Pad2)*
X148082000Y-70104000D03*
G04 #@! TO.P,RLY-D1,15*
X145542000Y-70104000D03*
G04 #@! TO.P,RLY-D1,13*
G04 #@! TO.N,Net-(RLY-D1-Pad13)*
X140462000Y-70104000D03*
G04 #@! TO.P,RLY-D1,11*
G04 #@! TO.N,Net-(RLY-D1-Pad11)*
X135382000Y-70104000D03*
G04 #@! TO.P,RLY-D1,9*
G04 #@! TO.N,Net-(K3-Pad3)*
X130302000Y-70104000D03*
G04 #@! TD*
D16*
G04 #@! TO.P,D1,1*
G04 #@! TO.N,Net-(D1-Pad1)*
X151892000Y-73406000D03*
D17*
G04 #@! TO.P,D1,2*
G04 #@! TO.N,Net-(D1-Pad2)*
X159512000Y-73406000D03*
G04 #@! TD*
G04 #@! TO.P,D2,2*
G04 #@! TO.N,Net-(D2-Pad2)*
X159512000Y-77470000D03*
D16*
G04 #@! TO.P,D2,1*
G04 #@! TO.N,Net-(D2-Pad1)*
X151892000Y-77470000D03*
G04 #@! TD*
D17*
G04 #@! TO.P,D3,2*
G04 #@! TO.N,Net-(D3-Pad2)*
X159512000Y-60706000D03*
D16*
G04 #@! TO.P,D3,1*
G04 #@! TO.N,Net-(D3-Pad1)*
X151892000Y-60706000D03*
G04 #@! TD*
G04 #@! TO.P,D4,1*
G04 #@! TO.N,Net-(D4-Pad1)*
X151892000Y-56388000D03*
D17*
G04 #@! TO.P,D4,2*
G04 #@! TO.N,Net-(D4-Pad2)*
X159512000Y-56388000D03*
G04 #@! TD*
G04 #@! TO.P,D5,2*
G04 #@! TO.N,Net-(D5-Pad2)*
X159512000Y-69088000D03*
D16*
G04 #@! TO.P,D5,1*
G04 #@! TO.N,Net-(D5-Pad1)*
X151892000Y-69088000D03*
G04 #@! TD*
G04 #@! TO.P,D6,1*
G04 #@! TO.N,Net-(D6-Pad1)*
X151892000Y-64770000D03*
D17*
G04 #@! TO.P,D6,2*
G04 #@! TO.N,Net-(D6-Pad2)*
X159512000Y-64770000D03*
G04 #@! TD*
D18*
G04 #@! TO.P,REF\002A\002A,1*
G04 #@! TO.N,N/C*
X94742000Y-80518000D03*
G04 #@! TD*
G04 #@! TO.P,REF\002A\002A,1*
G04 #@! TO.N,N/C*
X163576000Y-52832000D03*
G04 #@! TD*
G04 #@! TO.P,REF\002A\002A,1*
G04 #@! TO.N,N/C*
X163576000Y-80518000D03*
G04 #@! TD*
D19*
G04 #@! TO.N,Net-(D1-Pad1)*
X146812000Y-81534000D02*
X128524000Y-81534000D01*
X123952000Y-77724000D02*
X123952000Y-80010000D01*
X125476000Y-81534000D02*
X128524000Y-81534000D01*
X123952000Y-80010000D02*
X125476000Y-81534000D01*
X151892000Y-73406000D02*
X151130000Y-73406000D01*
X148590000Y-81534000D02*
X146812000Y-81534000D01*
X149860000Y-80264000D02*
X148590000Y-81534000D01*
X149860000Y-74676000D02*
X149860000Y-80264000D01*
X151130000Y-73406000D02*
X149860000Y-74676000D01*
G04 #@! TO.N,Net-(D1-Pad2)*
X163576000Y-70358000D02*
X161544000Y-70358000D01*
X159512000Y-72390000D02*
X159512000Y-73406000D01*
X161544000Y-70358000D02*
X159512000Y-72390000D01*
G04 #@! TO.N,Net-(D2-Pad2)*
X164592000Y-67818000D02*
X163576000Y-67818000D01*
X165608000Y-68834000D02*
X164592000Y-67818000D01*
X165608000Y-74676000D02*
X165608000Y-68834000D01*
X161798000Y-75946000D02*
X164338000Y-75946000D01*
X160274000Y-77470000D02*
X161798000Y-75946000D01*
X159512000Y-77470000D02*
X160274000Y-77470000D01*
X165608000Y-74676000D02*
X164338000Y-75946000D01*
G04 #@! TO.N,Net-(D2-Pad1)*
X121412000Y-79756000D02*
X121412000Y-77724000D01*
X124206000Y-82550000D02*
X121412000Y-79756000D01*
X147828000Y-82550000D02*
X124206000Y-82550000D01*
X151892000Y-77470000D02*
X151892000Y-81534000D01*
X150876000Y-82550000D02*
X147828000Y-82550000D01*
X151892000Y-81534000D02*
X150876000Y-82550000D01*
G04 #@! TO.N,Net-(D3-Pad2)*
X159512000Y-60706000D02*
X157988000Y-60706000D01*
X157988000Y-60706000D02*
X157480000Y-60198000D01*
X157480000Y-60198000D02*
X157480000Y-56642000D01*
X165354000Y-65278000D02*
X163576000Y-65278000D01*
X166878000Y-63754000D02*
X165354000Y-65278000D01*
X166878000Y-58674000D02*
X166878000Y-63754000D01*
X165100000Y-56896000D02*
X166878000Y-58674000D01*
X162560000Y-56896000D02*
X165100000Y-56896000D01*
X160274000Y-54610000D02*
X162560000Y-56896000D01*
X158496000Y-54610000D02*
X160274000Y-54610000D01*
X158496000Y-54610000D02*
X157480000Y-55626000D01*
X157480000Y-56642000D02*
X157480000Y-55626000D01*
X157480000Y-55626000D02*
X158496000Y-54610000D01*
G04 #@! TO.N,Net-(D3-Pad1)*
X148082000Y-62738000D02*
X148082000Y-61976000D01*
X149352000Y-60706000D02*
X151892000Y-60706000D01*
X148082000Y-61976000D02*
X149352000Y-60706000D01*
G04 #@! TO.N,Net-(D4-Pad1)*
X145542000Y-62738000D02*
X145542000Y-61468000D01*
X150622000Y-56388000D02*
X151892000Y-56388000D01*
X145542000Y-61468000D02*
X150622000Y-56388000D01*
G04 #@! TO.N,Net-(D4-Pad2)*
X164592000Y-62738000D02*
X163576000Y-62738000D01*
X165862000Y-61468000D02*
X164592000Y-62738000D01*
X165862000Y-59436000D02*
X165862000Y-61468000D01*
X159512000Y-56388000D02*
X159512000Y-56642000D01*
X164592000Y-58166000D02*
X165862000Y-59436000D01*
X161036000Y-58166000D02*
X164592000Y-58166000D01*
X159512000Y-56642000D02*
X161036000Y-58166000D01*
G04 #@! TO.N,Net-(D5-Pad2)*
X163576000Y-60198000D02*
X162814000Y-60198000D01*
X161290000Y-67310000D02*
X159512000Y-69088000D01*
X161290000Y-61722000D02*
X161290000Y-67310000D01*
X162814000Y-60198000D02*
X161290000Y-61722000D01*
G04 #@! TO.N,Net-(D5-Pad1)*
X148082000Y-77724000D02*
X145542000Y-77724000D01*
X151892000Y-69088000D02*
X151892000Y-69088000D01*
X148082000Y-72898000D02*
X148082000Y-77724000D01*
X151892000Y-69088000D02*
X148082000Y-72898000D01*
G04 #@! TO.N,Net-(D6-Pad1)*
X123952000Y-62738000D02*
X121412000Y-62738000D01*
X128778000Y-55880000D02*
X128778000Y-54864000D01*
X124460000Y-62738000D02*
X128270000Y-66548000D01*
X123952000Y-62738000D02*
X124460000Y-62738000D01*
X128270000Y-66548000D02*
X137414000Y-66548000D01*
X137414000Y-66548000D02*
X138684000Y-65278000D01*
X138684000Y-65278000D02*
X138684000Y-59690000D01*
X138684000Y-59690000D02*
X137922000Y-58928000D01*
X128778000Y-55880000D02*
X128778000Y-57658000D01*
X130048000Y-58928000D02*
X137922000Y-58928000D01*
X128778000Y-57658000D02*
X130048000Y-58928000D01*
X128778000Y-54864000D02*
X128778000Y-54102000D01*
X129540000Y-53340000D02*
X153416000Y-53340000D01*
X128778000Y-54102000D02*
X129540000Y-53340000D01*
X151892000Y-64770000D02*
X153416000Y-64770000D01*
X154178000Y-54102000D02*
X153416000Y-53340000D01*
X154178000Y-64008000D02*
X154178000Y-54102000D01*
X153416000Y-64770000D02*
X154178000Y-64008000D01*
G04 #@! TO.N,Net-(D6-Pad2)*
X163576000Y-72898000D02*
X163068000Y-72898000D01*
X158242000Y-64770000D02*
X159512000Y-64770000D01*
X157226000Y-65786000D02*
X158242000Y-64770000D01*
X157226000Y-74168000D02*
X157226000Y-65786000D01*
X158496000Y-75438000D02*
X157226000Y-74168000D01*
X160528000Y-75438000D02*
X158496000Y-75438000D01*
X163068000Y-72898000D02*
X160528000Y-75438000D01*
D20*
G04 #@! TO.N,Net-(K1-Pad1)*
X116332000Y-77724000D02*
X116332000Y-76454000D01*
X116332000Y-76454000D02*
X117348000Y-75438000D01*
X117348000Y-75438000D02*
X118110000Y-75438000D01*
X137668000Y-80518000D02*
X140462000Y-77724000D01*
X128778000Y-80518000D02*
X137668000Y-80518000D01*
X118110000Y-75438000D02*
X124460000Y-75438000D01*
X116332000Y-62738000D02*
X116332000Y-66294000D01*
X116332000Y-66294000D02*
X118110000Y-68072000D01*
X118110000Y-68072000D02*
X118110000Y-75438000D01*
X116332000Y-61722000D02*
X114808000Y-60198000D01*
X116332000Y-62738000D02*
X116332000Y-61722000D01*
D19*
X116332000Y-61722000D02*
X114808000Y-60198000D01*
D20*
X114808000Y-60198000D02*
X102870000Y-60198000D01*
X100330000Y-57658000D02*
X102870000Y-60198000D01*
X100330000Y-55880000D02*
X100330000Y-57658000D01*
X124460000Y-75438000D02*
X124968000Y-75438000D01*
X127254000Y-80518000D02*
X128778000Y-80518000D01*
X126238000Y-79502000D02*
X127254000Y-80518000D01*
X126238000Y-76708000D02*
X126238000Y-79502000D01*
X124968000Y-75438000D02*
X126238000Y-76708000D01*
D19*
G04 #@! TO.N,Net-(K1-Pad2)*
X148082000Y-70104000D02*
X145542000Y-70104000D01*
D20*
X148082000Y-55118000D02*
X145542000Y-55118000D01*
X123952000Y-70104000D02*
X121412000Y-70104000D01*
X123952000Y-55118000D02*
X121412000Y-55118000D01*
X123952000Y-70104000D02*
X123952000Y-69850000D01*
X128016000Y-75946000D02*
X128016000Y-78994000D01*
X128016000Y-78994000D02*
X128524000Y-79502000D01*
X128524000Y-79502000D02*
X136144000Y-79502000D01*
X136144000Y-79502000D02*
X145542000Y-70104000D01*
X129286000Y-74676000D02*
X128016000Y-75946000D01*
X123952000Y-69850000D02*
X125222000Y-68580000D01*
X125222000Y-68580000D02*
X131826000Y-68580000D01*
X131826000Y-68580000D02*
X132842000Y-69596000D01*
X132842000Y-69596000D02*
X132842000Y-71120000D01*
X132842000Y-71120000D02*
X129286000Y-74676000D01*
X145542000Y-70104000D02*
X145542000Y-66040000D01*
X145542000Y-66040000D02*
X143510000Y-64008000D01*
X143510000Y-64008000D02*
X143510000Y-57404000D01*
X151892000Y-67056000D02*
X147574000Y-67056000D01*
X137414000Y-64770000D02*
X137414000Y-61722000D01*
X136652000Y-65532000D02*
X137414000Y-64770000D01*
X130556000Y-65532000D02*
X136652000Y-65532000D01*
X137414000Y-61722000D02*
X137414000Y-61214000D01*
X127762000Y-58928000D02*
X127762000Y-54102000D01*
X129286000Y-60452000D02*
X127762000Y-58928000D01*
X136652000Y-60452000D02*
X129286000Y-60452000D01*
X137414000Y-61214000D02*
X136652000Y-60452000D01*
X127762000Y-54102000D02*
X127762000Y-53594000D01*
X129032000Y-52324000D02*
X153670000Y-52324000D01*
X127762000Y-53594000D02*
X129032000Y-52324000D01*
X123952000Y-55118000D02*
X123952000Y-60452000D01*
X129032000Y-65532000D02*
X130556000Y-65532000D01*
X123952000Y-60452000D02*
X129032000Y-65532000D01*
X147574000Y-67056000D02*
X145542000Y-67056000D01*
X145542000Y-70104000D02*
X145542000Y-67056000D01*
X151892000Y-67056000D02*
X154432000Y-67056000D01*
X154432000Y-52324000D02*
X153670000Y-52324000D01*
X155702000Y-53594000D02*
X154432000Y-52324000D01*
X155702000Y-65786000D02*
X155702000Y-53594000D01*
X154432000Y-67056000D02*
X155702000Y-65786000D01*
D19*
X145542000Y-55118000D02*
X145288000Y-55118000D01*
D20*
X143510000Y-56896000D02*
X143510000Y-57404000D01*
X145288000Y-55118000D02*
X143510000Y-56896000D01*
X95250000Y-55880000D02*
X95250000Y-53340000D01*
X95250000Y-53340000D02*
X96774000Y-51816000D01*
X96774000Y-51816000D02*
X122682000Y-51816000D01*
X122682000Y-51816000D02*
X123952000Y-53086000D01*
X123952000Y-53086000D02*
X123952000Y-55118000D01*
D19*
G04 #@! TO.N,Net-(K3-Pad3)*
X106172000Y-55118000D02*
X106172000Y-55372000D01*
X128270000Y-72136000D02*
X130302000Y-70104000D01*
X120142000Y-72136000D02*
X128270000Y-72136000D01*
X119380000Y-71374000D02*
X120142000Y-72136000D01*
X119380000Y-67564000D02*
X119380000Y-71374000D01*
X118364000Y-66548000D02*
X119380000Y-67564000D01*
X118364000Y-59944000D02*
X118364000Y-66548000D01*
X116586000Y-58166000D02*
X118364000Y-59944000D01*
X108966000Y-58166000D02*
X116586000Y-58166000D01*
X106172000Y-55372000D02*
X108966000Y-58166000D01*
X106172000Y-54102000D02*
X104902000Y-52832000D01*
X97790000Y-57150000D02*
X97790000Y-58166000D01*
X106172000Y-55118000D02*
X106172000Y-54102000D01*
X97790000Y-53594000D02*
X97790000Y-57150000D01*
X98552000Y-52832000D02*
X97790000Y-53594000D01*
X104902000Y-52832000D02*
X98552000Y-52832000D01*
X96520000Y-69850000D02*
X96520000Y-69850000D01*
X96520000Y-69850000D02*
X97028000Y-69850000D01*
X97028000Y-69850000D02*
X99060000Y-67818000D01*
X99060000Y-67818000D02*
X99060000Y-62230000D01*
X99060000Y-59436000D02*
X97790000Y-58166000D01*
X99060000Y-62230000D02*
X99060000Y-59436000D01*
X96520000Y-62230000D02*
X99060000Y-62230000D01*
G04 #@! TO.N,Net-(K3-Pad5)*
X125730000Y-60960000D02*
X125730000Y-53848000D01*
X126365000Y-61595000D02*
X125730000Y-60960000D01*
X129286000Y-64516000D02*
X133604000Y-64516000D01*
X133604000Y-64516000D02*
X135382000Y-62738000D01*
X126365000Y-61595000D02*
X129286000Y-64516000D01*
X92710000Y-55118000D02*
X92710000Y-63246000D01*
X92710000Y-55118000D02*
X92710000Y-52578000D01*
X125730000Y-51816000D02*
X125730000Y-53848000D01*
X124714000Y-50800000D02*
X125730000Y-51816000D01*
X94488000Y-50800000D02*
X124714000Y-50800000D01*
X92710000Y-52578000D02*
X94488000Y-50800000D01*
X96520000Y-64770000D02*
X94234000Y-64770000D01*
X94234000Y-64770000D02*
X92710000Y-63246000D01*
G04 #@! TO.N,Net-(K3-Pad4)*
X129540000Y-62738000D02*
X126746000Y-59944000D01*
X126746000Y-59944000D02*
X126746000Y-53848000D01*
X130302000Y-62738000D02*
X129540000Y-62738000D01*
X91694000Y-65024000D02*
X91694000Y-55118000D01*
X91694000Y-55118000D02*
X91694000Y-51308000D01*
X126746000Y-51054000D02*
X126746000Y-53848000D01*
X125476000Y-49784000D02*
X126746000Y-51054000D01*
X93218000Y-49784000D02*
X125476000Y-49784000D01*
X91694000Y-51308000D02*
X93218000Y-49784000D01*
X93980000Y-67310000D02*
X91694000Y-65024000D01*
X96520000Y-67310000D02*
X93980000Y-67310000D01*
X93980000Y-67310000D02*
X91694000Y-65024000D01*
G04 #@! TO.N,Net-(K3-Pad2)*
X104394000Y-79502000D02*
X106172000Y-77724000D01*
X99568000Y-79502000D02*
X104394000Y-79502000D01*
X96520000Y-72390000D02*
X95250000Y-72390000D01*
X94488000Y-73152000D02*
X94488000Y-74676000D01*
X95250000Y-72390000D02*
X94488000Y-73152000D01*
X94488000Y-74676000D02*
X94488000Y-76200000D01*
X94488000Y-76200000D02*
X95250000Y-76962000D01*
X95250000Y-76962000D02*
X97028000Y-76962000D01*
X97028000Y-76962000D02*
X99568000Y-79502000D01*
G04 #@! TO.N,Net-(K3-Pad1)*
X96520000Y-74930000D02*
X98552000Y-74930000D01*
X106172000Y-66548000D02*
X106172000Y-62738000D01*
X105410000Y-67310000D02*
X106172000Y-66548000D01*
X101600000Y-67310000D02*
X105410000Y-67310000D01*
X99314000Y-69596000D02*
X101600000Y-67310000D01*
X99314000Y-74168000D02*
X99314000Y-69596000D01*
X98552000Y-74930000D02*
X99314000Y-74168000D01*
G04 #@! TO.N,Net-(K4-Pad1)*
X111252000Y-75184000D02*
X116332000Y-70104000D01*
X104902000Y-75184000D02*
X111252000Y-75184000D01*
X101346000Y-77470000D02*
X102616000Y-77470000D01*
X102616000Y-77470000D02*
X104902000Y-75184000D01*
G04 #@! TO.N,Net-(K4-Pad2)*
X108204000Y-73152000D02*
X111252000Y-70104000D01*
X104394000Y-73152000D02*
X108204000Y-73152000D01*
X101346000Y-74930000D02*
X102616000Y-74930000D01*
X102616000Y-74930000D02*
X104394000Y-73152000D01*
G04 #@! TO.N,Net-(K4-Pad3)*
X101346000Y-72390000D02*
X101346000Y-71628000D01*
X102870000Y-70104000D02*
X106172000Y-70104000D01*
X101346000Y-71628000D02*
X102870000Y-70104000D01*
G04 #@! TO.N,Net-(RLY-A1-Pad13)*
X122428000Y-67564000D02*
X140970000Y-67564000D01*
X119634000Y-64770000D02*
X122428000Y-67564000D01*
X135382000Y-77724000D02*
X135636000Y-77724000D01*
X135636000Y-77724000D02*
X142748000Y-70612000D01*
X142748000Y-70612000D02*
X142748000Y-67564000D01*
X142240000Y-56896000D02*
X140462000Y-55118000D01*
X142748000Y-67564000D02*
X142748000Y-66294000D01*
X142748000Y-66294000D02*
X142240000Y-65786000D01*
X142240000Y-65786000D02*
X142240000Y-56896000D01*
X140970000Y-67564000D02*
X142748000Y-67564000D01*
X119634000Y-64770000D02*
X119634000Y-58420000D01*
X119634000Y-58420000D02*
X116332000Y-55118000D01*
G04 #@! TO.N,Net-(RLY-C1-Pad4)*
X130302000Y-55118000D02*
X130302000Y-55626000D01*
X140462000Y-58674000D02*
X140462000Y-62738000D01*
X139446000Y-57658000D02*
X140462000Y-58674000D01*
X132334000Y-57658000D02*
X139446000Y-57658000D01*
X130302000Y-55626000D02*
X132334000Y-57658000D01*
G04 #@! TO.N,Net-(RLY-D1-Pad13)*
X130302000Y-77724000D02*
X130810000Y-77724000D01*
X138430000Y-70104000D02*
X140462000Y-70104000D01*
X130810000Y-77724000D02*
X138430000Y-70104000D01*
G04 #@! TD*
M02*
