M48
;DRILL file {KiCad 5.0.2-bee76a0~70~ubuntu18.04.1} date mar. 21 avril 2020 14:10:14 CEST
;FORMAT={-:-/ absolute / inch / decimal}
FMAT,2
INCH,TZ
T1C0.0300
T2C0.0315
T3C0.0394
T4C0.0598
T5C0.1260
%
G90
G05
T1
X5.13Y-2.17
X5.13Y-2.47
X5.33Y-2.17
X5.33Y-2.47
X5.53Y-2.17
X5.53Y-2.47
X5.73Y-2.17
X5.73Y-2.47
X5.83Y-2.17
X5.83Y-2.47
X4.18Y-2.17
X4.18Y-2.47
X4.38Y-2.17
X4.38Y-2.47
X4.58Y-2.17
X4.58Y-2.47
X4.78Y-2.17
X4.78Y-2.47
X4.88Y-2.17
X4.88Y-2.47
X5.13Y-2.76
X5.13Y-3.06
X5.33Y-2.76
X5.33Y-3.06
X5.53Y-2.76
X5.53Y-3.06
X5.73Y-2.76
X5.73Y-3.06
X5.83Y-2.76
X5.83Y-3.06
X4.18Y-2.76
X4.18Y-3.06
X4.38Y-2.76
X4.38Y-3.06
X4.58Y-2.76
X4.58Y-3.06
X4.78Y-2.76
X4.78Y-3.06
X4.88Y-2.76
X4.88Y-3.06
T2
X5.98Y-2.72
X6.28Y-2.72
X5.98Y-3.05
X6.28Y-3.05
X5.98Y-2.22
X6.28Y-2.22
X5.98Y-2.55
X6.28Y-2.55
X5.98Y-2.89
X6.28Y-2.89
X5.98Y-2.39
X6.28Y-2.39
T3
X3.99Y-2.85
X3.99Y-2.95
X3.99Y-3.05
X3.8Y-2.45
X3.8Y-2.55
X3.8Y-2.65
X3.8Y-2.75
X3.8Y-2.85
X3.8Y-2.95
X6.44Y-2.37
X6.44Y-2.47
X6.44Y-2.57
X6.44Y-2.67
X6.44Y-2.77
X6.44Y-2.87
T4
X3.75Y-2.2
X3.95Y-2.2
T5
X6.44Y-2.08
X3.73Y-3.17
X6.44Y-3.17
T0
M30
