G04 #@! TF.GenerationSoftware,KiCad,Pcbnew,5.0.2-bee76a0~70~ubuntu18.04.1*
G04 #@! TF.CreationDate,2020-04-21T14:08:59+02:00*
G04 #@! TF.ProjectId,FeuSignalisation,46657553-6967-46e6-916c-69736174696f,rev?*
G04 #@! TF.SameCoordinates,Original*
G04 #@! TF.FileFunction,Soldermask,Bot*
G04 #@! TF.FilePolarity,Negative*
%FSLAX46Y46*%
G04 Gerber Fmt 4.6, Leading zero omitted, Abs format (unit mm)*
G04 Created by KiCad (PCBNEW 5.0.2-bee76a0~70~ubuntu18.04.1) date mar. 21 avril 2020 14:08:59 CEST*
%MOMM*%
%LPD*%
G01*
G04 APERTURE LIST*
%ADD10C,0.150000*%
G04 APERTURE END LIST*
D10*
X167640000Y-84582000D02*
X90678000Y-84582000D01*
X167640000Y-48768000D02*
X167640000Y-84582000D01*
X90678000Y-48768000D02*
X167640000Y-48768000D01*
X90678000Y-84582000D02*
X90678000Y-48768000D01*
G36*
X164320096Y-78065033D02*
X164320098Y-78065034D01*
X164320099Y-78065034D01*
X164784352Y-78257333D01*
X165091687Y-78462688D01*
X165202171Y-78536511D01*
X165557489Y-78891829D01*
X165557491Y-78891832D01*
X165836667Y-79309648D01*
X166028966Y-79773901D01*
X166127000Y-80266748D01*
X166127000Y-80769252D01*
X166028966Y-81262099D01*
X165836667Y-81726352D01*
X165558750Y-82142284D01*
X165557489Y-82144171D01*
X165202171Y-82499489D01*
X165202168Y-82499491D01*
X164784352Y-82778667D01*
X164320099Y-82970966D01*
X164320098Y-82970966D01*
X164320096Y-82970967D01*
X163827253Y-83069000D01*
X163324747Y-83069000D01*
X162831904Y-82970967D01*
X162831902Y-82970966D01*
X162831901Y-82970966D01*
X162367648Y-82778667D01*
X161949832Y-82499491D01*
X161949829Y-82499489D01*
X161594511Y-82144171D01*
X161593250Y-82142284D01*
X161315333Y-81726352D01*
X161123034Y-81262099D01*
X161025000Y-80769252D01*
X161025000Y-80266748D01*
X161123034Y-79773901D01*
X161315333Y-79309648D01*
X161594509Y-78891832D01*
X161594511Y-78891829D01*
X161949829Y-78536511D01*
X162060313Y-78462688D01*
X162367648Y-78257333D01*
X162831901Y-78065034D01*
X162831902Y-78065034D01*
X162831904Y-78065033D01*
X163324747Y-77967000D01*
X163827253Y-77967000D01*
X164320096Y-78065033D01*
X164320096Y-78065033D01*
G37*
G36*
X95486096Y-78065033D02*
X95486098Y-78065034D01*
X95486099Y-78065034D01*
X95950352Y-78257333D01*
X96257687Y-78462688D01*
X96368171Y-78536511D01*
X96723489Y-78891829D01*
X96723491Y-78891832D01*
X97002667Y-79309648D01*
X97194966Y-79773901D01*
X97293000Y-80266748D01*
X97293000Y-80769252D01*
X97194966Y-81262099D01*
X97002667Y-81726352D01*
X96724750Y-82142284D01*
X96723489Y-82144171D01*
X96368171Y-82499489D01*
X96368168Y-82499491D01*
X95950352Y-82778667D01*
X95486099Y-82970966D01*
X95486098Y-82970966D01*
X95486096Y-82970967D01*
X94993253Y-83069000D01*
X94490747Y-83069000D01*
X93997904Y-82970967D01*
X93997902Y-82970966D01*
X93997901Y-82970966D01*
X93533648Y-82778667D01*
X93115832Y-82499491D01*
X93115829Y-82499489D01*
X92760511Y-82144171D01*
X92759250Y-82142284D01*
X92481333Y-81726352D01*
X92289034Y-81262099D01*
X92191000Y-80769252D01*
X92191000Y-80266748D01*
X92289034Y-79773901D01*
X92481333Y-79309648D01*
X92760509Y-78891832D01*
X92760511Y-78891829D01*
X93115829Y-78536511D01*
X93226313Y-78462688D01*
X93533648Y-78257333D01*
X93997901Y-78065034D01*
X93997902Y-78065034D01*
X93997904Y-78065033D01*
X94490747Y-77967000D01*
X94993253Y-77967000D01*
X95486096Y-78065033D01*
X95486096Y-78065033D01*
G37*
G36*
X124229396Y-76809546D02*
X124402466Y-76881234D01*
X124558230Y-76985312D01*
X124690688Y-77117770D01*
X124794766Y-77273534D01*
X124866454Y-77446604D01*
X124903000Y-77630333D01*
X124903000Y-77817667D01*
X124866454Y-78001396D01*
X124794766Y-78174466D01*
X124690688Y-78330230D01*
X124558230Y-78462688D01*
X124402466Y-78566766D01*
X124229396Y-78638454D01*
X124045667Y-78675000D01*
X123858333Y-78675000D01*
X123674604Y-78638454D01*
X123501534Y-78566766D01*
X123345770Y-78462688D01*
X123213312Y-78330230D01*
X123109234Y-78174466D01*
X123037546Y-78001396D01*
X123001000Y-77817667D01*
X123001000Y-77630333D01*
X123037546Y-77446604D01*
X123109234Y-77273534D01*
X123213312Y-77117770D01*
X123345770Y-76985312D01*
X123501534Y-76881234D01*
X123674604Y-76809546D01*
X123858333Y-76773000D01*
X124045667Y-76773000D01*
X124229396Y-76809546D01*
X124229396Y-76809546D01*
G37*
G36*
X140739396Y-76809546D02*
X140912466Y-76881234D01*
X141068230Y-76985312D01*
X141200688Y-77117770D01*
X141304766Y-77273534D01*
X141376454Y-77446604D01*
X141413000Y-77630333D01*
X141413000Y-77817667D01*
X141376454Y-78001396D01*
X141304766Y-78174466D01*
X141200688Y-78330230D01*
X141068230Y-78462688D01*
X140912466Y-78566766D01*
X140739396Y-78638454D01*
X140555667Y-78675000D01*
X140368333Y-78675000D01*
X140184604Y-78638454D01*
X140011534Y-78566766D01*
X139855770Y-78462688D01*
X139723312Y-78330230D01*
X139619234Y-78174466D01*
X139547546Y-78001396D01*
X139511000Y-77817667D01*
X139511000Y-77630333D01*
X139547546Y-77446604D01*
X139619234Y-77273534D01*
X139723312Y-77117770D01*
X139855770Y-76985312D01*
X140011534Y-76881234D01*
X140184604Y-76809546D01*
X140368333Y-76773000D01*
X140555667Y-76773000D01*
X140739396Y-76809546D01*
X140739396Y-76809546D01*
G37*
G36*
X121689396Y-76809546D02*
X121862466Y-76881234D01*
X122018230Y-76985312D01*
X122150688Y-77117770D01*
X122254766Y-77273534D01*
X122326454Y-77446604D01*
X122363000Y-77630333D01*
X122363000Y-77817667D01*
X122326454Y-78001396D01*
X122254766Y-78174466D01*
X122150688Y-78330230D01*
X122018230Y-78462688D01*
X121862466Y-78566766D01*
X121689396Y-78638454D01*
X121505667Y-78675000D01*
X121318333Y-78675000D01*
X121134604Y-78638454D01*
X120961534Y-78566766D01*
X120805770Y-78462688D01*
X120673312Y-78330230D01*
X120569234Y-78174466D01*
X120497546Y-78001396D01*
X120461000Y-77817667D01*
X120461000Y-77630333D01*
X120497546Y-77446604D01*
X120569234Y-77273534D01*
X120673312Y-77117770D01*
X120805770Y-76985312D01*
X120961534Y-76881234D01*
X121134604Y-76809546D01*
X121318333Y-76773000D01*
X121505667Y-76773000D01*
X121689396Y-76809546D01*
X121689396Y-76809546D01*
G37*
G36*
X116609396Y-76809546D02*
X116782466Y-76881234D01*
X116938230Y-76985312D01*
X117070688Y-77117770D01*
X117174766Y-77273534D01*
X117246454Y-77446604D01*
X117283000Y-77630333D01*
X117283000Y-77817667D01*
X117246454Y-78001396D01*
X117174766Y-78174466D01*
X117070688Y-78330230D01*
X116938230Y-78462688D01*
X116782466Y-78566766D01*
X116609396Y-78638454D01*
X116425667Y-78675000D01*
X116238333Y-78675000D01*
X116054604Y-78638454D01*
X115881534Y-78566766D01*
X115725770Y-78462688D01*
X115593312Y-78330230D01*
X115489234Y-78174466D01*
X115417546Y-78001396D01*
X115381000Y-77817667D01*
X115381000Y-77630333D01*
X115417546Y-77446604D01*
X115489234Y-77273534D01*
X115593312Y-77117770D01*
X115725770Y-76985312D01*
X115881534Y-76881234D01*
X116054604Y-76809546D01*
X116238333Y-76773000D01*
X116425667Y-76773000D01*
X116609396Y-76809546D01*
X116609396Y-76809546D01*
G37*
G36*
X111529396Y-76809546D02*
X111702466Y-76881234D01*
X111858230Y-76985312D01*
X111990688Y-77117770D01*
X112094766Y-77273534D01*
X112166454Y-77446604D01*
X112203000Y-77630333D01*
X112203000Y-77817667D01*
X112166454Y-78001396D01*
X112094766Y-78174466D01*
X111990688Y-78330230D01*
X111858230Y-78462688D01*
X111702466Y-78566766D01*
X111529396Y-78638454D01*
X111345667Y-78675000D01*
X111158333Y-78675000D01*
X110974604Y-78638454D01*
X110801534Y-78566766D01*
X110645770Y-78462688D01*
X110513312Y-78330230D01*
X110409234Y-78174466D01*
X110337546Y-78001396D01*
X110301000Y-77817667D01*
X110301000Y-77630333D01*
X110337546Y-77446604D01*
X110409234Y-77273534D01*
X110513312Y-77117770D01*
X110645770Y-76985312D01*
X110801534Y-76881234D01*
X110974604Y-76809546D01*
X111158333Y-76773000D01*
X111345667Y-76773000D01*
X111529396Y-76809546D01*
X111529396Y-76809546D01*
G37*
G36*
X106449396Y-76809546D02*
X106622466Y-76881234D01*
X106778230Y-76985312D01*
X106910688Y-77117770D01*
X107014766Y-77273534D01*
X107086454Y-77446604D01*
X107123000Y-77630333D01*
X107123000Y-77817667D01*
X107086454Y-78001396D01*
X107014766Y-78174466D01*
X106910688Y-78330230D01*
X106778230Y-78462688D01*
X106622466Y-78566766D01*
X106449396Y-78638454D01*
X106265667Y-78675000D01*
X106078333Y-78675000D01*
X105894604Y-78638454D01*
X105721534Y-78566766D01*
X105565770Y-78462688D01*
X105433312Y-78330230D01*
X105329234Y-78174466D01*
X105257546Y-78001396D01*
X105221000Y-77817667D01*
X105221000Y-77630333D01*
X105257546Y-77446604D01*
X105329234Y-77273534D01*
X105433312Y-77117770D01*
X105565770Y-76985312D01*
X105721534Y-76881234D01*
X105894604Y-76809546D01*
X106078333Y-76773000D01*
X106265667Y-76773000D01*
X106449396Y-76809546D01*
X106449396Y-76809546D01*
G37*
G36*
X145819396Y-76809546D02*
X145992466Y-76881234D01*
X146148230Y-76985312D01*
X146280688Y-77117770D01*
X146384766Y-77273534D01*
X146456454Y-77446604D01*
X146493000Y-77630333D01*
X146493000Y-77817667D01*
X146456454Y-78001396D01*
X146384766Y-78174466D01*
X146280688Y-78330230D01*
X146148230Y-78462688D01*
X145992466Y-78566766D01*
X145819396Y-78638454D01*
X145635667Y-78675000D01*
X145448333Y-78675000D01*
X145264604Y-78638454D01*
X145091534Y-78566766D01*
X144935770Y-78462688D01*
X144803312Y-78330230D01*
X144699234Y-78174466D01*
X144627546Y-78001396D01*
X144591000Y-77817667D01*
X144591000Y-77630333D01*
X144627546Y-77446604D01*
X144699234Y-77273534D01*
X144803312Y-77117770D01*
X144935770Y-76985312D01*
X145091534Y-76881234D01*
X145264604Y-76809546D01*
X145448333Y-76773000D01*
X145635667Y-76773000D01*
X145819396Y-76809546D01*
X145819396Y-76809546D01*
G37*
G36*
X135659396Y-76809546D02*
X135832466Y-76881234D01*
X135988230Y-76985312D01*
X136120688Y-77117770D01*
X136224766Y-77273534D01*
X136296454Y-77446604D01*
X136333000Y-77630333D01*
X136333000Y-77817667D01*
X136296454Y-78001396D01*
X136224766Y-78174466D01*
X136120688Y-78330230D01*
X135988230Y-78462688D01*
X135832466Y-78566766D01*
X135659396Y-78638454D01*
X135475667Y-78675000D01*
X135288333Y-78675000D01*
X135104604Y-78638454D01*
X134931534Y-78566766D01*
X134775770Y-78462688D01*
X134643312Y-78330230D01*
X134539234Y-78174466D01*
X134467546Y-78001396D01*
X134431000Y-77817667D01*
X134431000Y-77630333D01*
X134467546Y-77446604D01*
X134539234Y-77273534D01*
X134643312Y-77117770D01*
X134775770Y-76985312D01*
X134931534Y-76881234D01*
X135104604Y-76809546D01*
X135288333Y-76773000D01*
X135475667Y-76773000D01*
X135659396Y-76809546D01*
X135659396Y-76809546D01*
G37*
G36*
X130579396Y-76809546D02*
X130752466Y-76881234D01*
X130908230Y-76985312D01*
X131040688Y-77117770D01*
X131144766Y-77273534D01*
X131216454Y-77446604D01*
X131253000Y-77630333D01*
X131253000Y-77817667D01*
X131216454Y-78001396D01*
X131144766Y-78174466D01*
X131040688Y-78330230D01*
X130908230Y-78462688D01*
X130752466Y-78566766D01*
X130579396Y-78638454D01*
X130395667Y-78675000D01*
X130208333Y-78675000D01*
X130024604Y-78638454D01*
X129851534Y-78566766D01*
X129695770Y-78462688D01*
X129563312Y-78330230D01*
X129459234Y-78174466D01*
X129387546Y-78001396D01*
X129351000Y-77817667D01*
X129351000Y-77630333D01*
X129387546Y-77446604D01*
X129459234Y-77273534D01*
X129563312Y-77117770D01*
X129695770Y-76985312D01*
X129851534Y-76881234D01*
X130024604Y-76809546D01*
X130208333Y-76773000D01*
X130395667Y-76773000D01*
X130579396Y-76809546D01*
X130579396Y-76809546D01*
G37*
G36*
X148359396Y-76809546D02*
X148532466Y-76881234D01*
X148688230Y-76985312D01*
X148820688Y-77117770D01*
X148924766Y-77273534D01*
X148996454Y-77446604D01*
X149033000Y-77630333D01*
X149033000Y-77817667D01*
X148996454Y-78001396D01*
X148924766Y-78174466D01*
X148820688Y-78330230D01*
X148688230Y-78462688D01*
X148532466Y-78566766D01*
X148359396Y-78638454D01*
X148175667Y-78675000D01*
X147988333Y-78675000D01*
X147804604Y-78638454D01*
X147631534Y-78566766D01*
X147475770Y-78462688D01*
X147343312Y-78330230D01*
X147239234Y-78174466D01*
X147167546Y-78001396D01*
X147131000Y-77817667D01*
X147131000Y-77630333D01*
X147167546Y-77446604D01*
X147239234Y-77273534D01*
X147343312Y-77117770D01*
X147475770Y-76985312D01*
X147631534Y-76881234D01*
X147804604Y-76809546D01*
X147988333Y-76773000D01*
X148175667Y-76773000D01*
X148359396Y-76809546D01*
X148359396Y-76809546D01*
G37*
G36*
X102247000Y-78371000D02*
X100445000Y-78371000D01*
X100445000Y-76569000D01*
X102247000Y-76569000D01*
X102247000Y-78371000D01*
X102247000Y-78371000D01*
G37*
G36*
X159678821Y-76631313D02*
X159678824Y-76631314D01*
X159678825Y-76631314D01*
X159839239Y-76679975D01*
X159839241Y-76679976D01*
X159839244Y-76679977D01*
X159987078Y-76758995D01*
X160116659Y-76865341D01*
X160223005Y-76994922D01*
X160302023Y-77142756D01*
X160302024Y-77142759D01*
X160302025Y-77142761D01*
X160350686Y-77303175D01*
X160350687Y-77303179D01*
X160367117Y-77470000D01*
X160350687Y-77636821D01*
X160302023Y-77797244D01*
X160223005Y-77945078D01*
X160116659Y-78074659D01*
X159987078Y-78181005D01*
X159839244Y-78260023D01*
X159839241Y-78260024D01*
X159839239Y-78260025D01*
X159678825Y-78308686D01*
X159678824Y-78308686D01*
X159678821Y-78308687D01*
X159553804Y-78321000D01*
X159470196Y-78321000D01*
X159345179Y-78308687D01*
X159345176Y-78308686D01*
X159345175Y-78308686D01*
X159184761Y-78260025D01*
X159184759Y-78260024D01*
X159184756Y-78260023D01*
X159036922Y-78181005D01*
X158907341Y-78074659D01*
X158800995Y-77945078D01*
X158721977Y-77797244D01*
X158673313Y-77636821D01*
X158656883Y-77470000D01*
X158673313Y-77303179D01*
X158673314Y-77303175D01*
X158721975Y-77142761D01*
X158721976Y-77142759D01*
X158721977Y-77142756D01*
X158800995Y-76994922D01*
X158907341Y-76865341D01*
X159036922Y-76758995D01*
X159184756Y-76679977D01*
X159184759Y-76679976D01*
X159184761Y-76679975D01*
X159345175Y-76631314D01*
X159345176Y-76631314D01*
X159345179Y-76631313D01*
X159470196Y-76619000D01*
X159553804Y-76619000D01*
X159678821Y-76631313D01*
X159678821Y-76631313D01*
G37*
G36*
X152743000Y-78321000D02*
X151041000Y-78321000D01*
X151041000Y-76619000D01*
X152743000Y-76619000D01*
X152743000Y-78321000D01*
X152743000Y-78321000D01*
G37*
G36*
X101456442Y-74035518D02*
X101522627Y-74042037D01*
X101635853Y-74076384D01*
X101692467Y-74093557D01*
X101736334Y-74117005D01*
X101848991Y-74177222D01*
X101871900Y-74196023D01*
X101986186Y-74289814D01*
X102069448Y-74391271D01*
X102098778Y-74427009D01*
X102098779Y-74427011D01*
X102182443Y-74583533D01*
X102182443Y-74583534D01*
X102233963Y-74753373D01*
X102251359Y-74930000D01*
X102233963Y-75106627D01*
X102199616Y-75219853D01*
X102182443Y-75276467D01*
X102108348Y-75415087D01*
X102098778Y-75432991D01*
X102069448Y-75468729D01*
X101986186Y-75570186D01*
X101884729Y-75653448D01*
X101848991Y-75682778D01*
X101848989Y-75682779D01*
X101692467Y-75766443D01*
X101635853Y-75783616D01*
X101522627Y-75817963D01*
X101456442Y-75824482D01*
X101390260Y-75831000D01*
X101301740Y-75831000D01*
X101235558Y-75824482D01*
X101169373Y-75817963D01*
X101056147Y-75783616D01*
X100999533Y-75766443D01*
X100843011Y-75682779D01*
X100843009Y-75682778D01*
X100807271Y-75653448D01*
X100705814Y-75570186D01*
X100622552Y-75468729D01*
X100593222Y-75432991D01*
X100583652Y-75415087D01*
X100509557Y-75276467D01*
X100492384Y-75219853D01*
X100458037Y-75106627D01*
X100440641Y-74930000D01*
X100458037Y-74753373D01*
X100509557Y-74583534D01*
X100509557Y-74583533D01*
X100593221Y-74427011D01*
X100593222Y-74427009D01*
X100622552Y-74391271D01*
X100705814Y-74289814D01*
X100820100Y-74196023D01*
X100843009Y-74177222D01*
X100955666Y-74117005D01*
X100999533Y-74093557D01*
X101056147Y-74076384D01*
X101169373Y-74042037D01*
X101235558Y-74035518D01*
X101301740Y-74029000D01*
X101390260Y-74029000D01*
X101456442Y-74035518D01*
X101456442Y-74035518D01*
G37*
G36*
X97421000Y-75831000D02*
X95619000Y-75831000D01*
X95619000Y-74029000D01*
X97421000Y-74029000D01*
X97421000Y-75831000D01*
X97421000Y-75831000D01*
G37*
G36*
X152743000Y-74257000D02*
X151041000Y-74257000D01*
X151041000Y-72555000D01*
X152743000Y-72555000D01*
X152743000Y-74257000D01*
X152743000Y-74257000D01*
G37*
G36*
X159678821Y-72567313D02*
X159678824Y-72567314D01*
X159678825Y-72567314D01*
X159839239Y-72615975D01*
X159839241Y-72615976D01*
X159839244Y-72615977D01*
X159987078Y-72694995D01*
X160116659Y-72801341D01*
X160223005Y-72930922D01*
X160302023Y-73078756D01*
X160302024Y-73078759D01*
X160302025Y-73078761D01*
X160346824Y-73226443D01*
X160350687Y-73239179D01*
X160367117Y-73406000D01*
X160350687Y-73572821D01*
X160302023Y-73733244D01*
X160223005Y-73881078D01*
X160116659Y-74010659D01*
X159987078Y-74117005D01*
X159839244Y-74196023D01*
X159839241Y-74196024D01*
X159839239Y-74196025D01*
X159678825Y-74244686D01*
X159678824Y-74244686D01*
X159678821Y-74244687D01*
X159553804Y-74257000D01*
X159470196Y-74257000D01*
X159345179Y-74244687D01*
X159345176Y-74244686D01*
X159345175Y-74244686D01*
X159184761Y-74196025D01*
X159184759Y-74196024D01*
X159184756Y-74196023D01*
X159036922Y-74117005D01*
X158907341Y-74010659D01*
X158800995Y-73881078D01*
X158721977Y-73733244D01*
X158673313Y-73572821D01*
X158656883Y-73406000D01*
X158673313Y-73239179D01*
X158677176Y-73226443D01*
X158721975Y-73078761D01*
X158721976Y-73078759D01*
X158721977Y-73078756D01*
X158800995Y-72930922D01*
X158907341Y-72801341D01*
X159036922Y-72694995D01*
X159184756Y-72615977D01*
X159184759Y-72615976D01*
X159184761Y-72615975D01*
X159345175Y-72567314D01*
X159345176Y-72567314D01*
X159345179Y-72567313D01*
X159470196Y-72555000D01*
X159553804Y-72555000D01*
X159678821Y-72567313D01*
X159678821Y-72567313D01*
G37*
G36*
X164477000Y-73799000D02*
X162675000Y-73799000D01*
X162675000Y-71997000D01*
X164477000Y-71997000D01*
X164477000Y-73799000D01*
X164477000Y-73799000D01*
G37*
G36*
X96630443Y-71495519D02*
X96696627Y-71502037D01*
X96809853Y-71536384D01*
X96866467Y-71553557D01*
X97005087Y-71627652D01*
X97022991Y-71637222D01*
X97058729Y-71666552D01*
X97160186Y-71749814D01*
X97243448Y-71851271D01*
X97272778Y-71887009D01*
X97272779Y-71887011D01*
X97356443Y-72043533D01*
X97356443Y-72043534D01*
X97407963Y-72213373D01*
X97425359Y-72390000D01*
X97407963Y-72566627D01*
X97392993Y-72615975D01*
X97356443Y-72736467D01*
X97282348Y-72875087D01*
X97272778Y-72892991D01*
X97243448Y-72928729D01*
X97160186Y-73030186D01*
X97058729Y-73113448D01*
X97022991Y-73142778D01*
X97022989Y-73142779D01*
X96866467Y-73226443D01*
X96824494Y-73239175D01*
X96696627Y-73277963D01*
X96630443Y-73284481D01*
X96564260Y-73291000D01*
X96475740Y-73291000D01*
X96409557Y-73284481D01*
X96343373Y-73277963D01*
X96215506Y-73239175D01*
X96173533Y-73226443D01*
X96017011Y-73142779D01*
X96017009Y-73142778D01*
X95981271Y-73113448D01*
X95879814Y-73030186D01*
X95796552Y-72928729D01*
X95767222Y-72892991D01*
X95757652Y-72875087D01*
X95683557Y-72736467D01*
X95647007Y-72615975D01*
X95632037Y-72566627D01*
X95614641Y-72390000D01*
X95632037Y-72213373D01*
X95683557Y-72043534D01*
X95683557Y-72043533D01*
X95767221Y-71887011D01*
X95767222Y-71887009D01*
X95796552Y-71851271D01*
X95879814Y-71749814D01*
X95981271Y-71666552D01*
X96017009Y-71637222D01*
X96034913Y-71627652D01*
X96173533Y-71553557D01*
X96230147Y-71536384D01*
X96343373Y-71502037D01*
X96409557Y-71495519D01*
X96475740Y-71489000D01*
X96564260Y-71489000D01*
X96630443Y-71495519D01*
X96630443Y-71495519D01*
G37*
G36*
X101456443Y-71495519D02*
X101522627Y-71502037D01*
X101635853Y-71536384D01*
X101692467Y-71553557D01*
X101831087Y-71627652D01*
X101848991Y-71637222D01*
X101884729Y-71666552D01*
X101986186Y-71749814D01*
X102069448Y-71851271D01*
X102098778Y-71887009D01*
X102098779Y-71887011D01*
X102182443Y-72043533D01*
X102182443Y-72043534D01*
X102233963Y-72213373D01*
X102251359Y-72390000D01*
X102233963Y-72566627D01*
X102218993Y-72615975D01*
X102182443Y-72736467D01*
X102108348Y-72875087D01*
X102098778Y-72892991D01*
X102069448Y-72928729D01*
X101986186Y-73030186D01*
X101884729Y-73113448D01*
X101848991Y-73142778D01*
X101848989Y-73142779D01*
X101692467Y-73226443D01*
X101650494Y-73239175D01*
X101522627Y-73277963D01*
X101456443Y-73284481D01*
X101390260Y-73291000D01*
X101301740Y-73291000D01*
X101235557Y-73284481D01*
X101169373Y-73277963D01*
X101041506Y-73239175D01*
X100999533Y-73226443D01*
X100843011Y-73142779D01*
X100843009Y-73142778D01*
X100807271Y-73113448D01*
X100705814Y-73030186D01*
X100622552Y-72928729D01*
X100593222Y-72892991D01*
X100583652Y-72875087D01*
X100509557Y-72736467D01*
X100473007Y-72615975D01*
X100458037Y-72566627D01*
X100440641Y-72390000D01*
X100458037Y-72213373D01*
X100509557Y-72043534D01*
X100509557Y-72043533D01*
X100593221Y-71887011D01*
X100593222Y-71887009D01*
X100622552Y-71851271D01*
X100705814Y-71749814D01*
X100807271Y-71666552D01*
X100843009Y-71637222D01*
X100860913Y-71627652D01*
X100999533Y-71553557D01*
X101056147Y-71536384D01*
X101169373Y-71502037D01*
X101235557Y-71495519D01*
X101301740Y-71489000D01*
X101390260Y-71489000D01*
X101456443Y-71495519D01*
X101456443Y-71495519D01*
G37*
G36*
X163686442Y-69463518D02*
X163752627Y-69470037D01*
X163863049Y-69503533D01*
X163922467Y-69521557D01*
X164000146Y-69563078D01*
X164078991Y-69605222D01*
X164114729Y-69634552D01*
X164216186Y-69717814D01*
X164299448Y-69819271D01*
X164328778Y-69855009D01*
X164328779Y-69855011D01*
X164412443Y-70011533D01*
X164429616Y-70068147D01*
X164463963Y-70181373D01*
X164481359Y-70358000D01*
X164463963Y-70534627D01*
X164443289Y-70602779D01*
X164412443Y-70704467D01*
X164387570Y-70751000D01*
X164328778Y-70860991D01*
X164299448Y-70896729D01*
X164216186Y-70998186D01*
X164114729Y-71081448D01*
X164078991Y-71110778D01*
X164078989Y-71110779D01*
X163922467Y-71194443D01*
X163865853Y-71211616D01*
X163752627Y-71245963D01*
X163686442Y-71252482D01*
X163620260Y-71259000D01*
X163531740Y-71259000D01*
X163465558Y-71252482D01*
X163399373Y-71245963D01*
X163286147Y-71211616D01*
X163229533Y-71194443D01*
X163073011Y-71110779D01*
X163073009Y-71110778D01*
X163037271Y-71081448D01*
X162935814Y-70998186D01*
X162852552Y-70896729D01*
X162823222Y-70860991D01*
X162764430Y-70751000D01*
X162739557Y-70704467D01*
X162708711Y-70602779D01*
X162688037Y-70534627D01*
X162670641Y-70358000D01*
X162688037Y-70181373D01*
X162722384Y-70068147D01*
X162739557Y-70011533D01*
X162823221Y-69855011D01*
X162823222Y-69855009D01*
X162852552Y-69819271D01*
X162935814Y-69717814D01*
X163037271Y-69634552D01*
X163073009Y-69605222D01*
X163151854Y-69563078D01*
X163229533Y-69521557D01*
X163288951Y-69503533D01*
X163399373Y-69470037D01*
X163465558Y-69463518D01*
X163531740Y-69457000D01*
X163620260Y-69457000D01*
X163686442Y-69463518D01*
X163686442Y-69463518D01*
G37*
G36*
X124229396Y-69189546D02*
X124402466Y-69261234D01*
X124558230Y-69365312D01*
X124690688Y-69497770D01*
X124794766Y-69653534D01*
X124866454Y-69826604D01*
X124903000Y-70010333D01*
X124903000Y-70197667D01*
X124866454Y-70381396D01*
X124794766Y-70554466D01*
X124690688Y-70710230D01*
X124558230Y-70842688D01*
X124402466Y-70946766D01*
X124229396Y-71018454D01*
X124045667Y-71055000D01*
X123858333Y-71055000D01*
X123674604Y-71018454D01*
X123501534Y-70946766D01*
X123345770Y-70842688D01*
X123213312Y-70710230D01*
X123109234Y-70554466D01*
X123037546Y-70381396D01*
X123001000Y-70197667D01*
X123001000Y-70010333D01*
X123037546Y-69826604D01*
X123109234Y-69653534D01*
X123213312Y-69497770D01*
X123345770Y-69365312D01*
X123501534Y-69261234D01*
X123674604Y-69189546D01*
X123858333Y-69153000D01*
X124045667Y-69153000D01*
X124229396Y-69189546D01*
X124229396Y-69189546D01*
G37*
G36*
X148359396Y-69189546D02*
X148532466Y-69261234D01*
X148688230Y-69365312D01*
X148820688Y-69497770D01*
X148924766Y-69653534D01*
X148996454Y-69826604D01*
X149033000Y-70010333D01*
X149033000Y-70197667D01*
X148996454Y-70381396D01*
X148924766Y-70554466D01*
X148820688Y-70710230D01*
X148688230Y-70842688D01*
X148532466Y-70946766D01*
X148359396Y-71018454D01*
X148175667Y-71055000D01*
X147988333Y-71055000D01*
X147804604Y-71018454D01*
X147631534Y-70946766D01*
X147475770Y-70842688D01*
X147343312Y-70710230D01*
X147239234Y-70554466D01*
X147167546Y-70381396D01*
X147131000Y-70197667D01*
X147131000Y-70010333D01*
X147167546Y-69826604D01*
X147239234Y-69653534D01*
X147343312Y-69497770D01*
X147475770Y-69365312D01*
X147631534Y-69261234D01*
X147804604Y-69189546D01*
X147988333Y-69153000D01*
X148175667Y-69153000D01*
X148359396Y-69189546D01*
X148359396Y-69189546D01*
G37*
G36*
X145819396Y-69189546D02*
X145992466Y-69261234D01*
X146148230Y-69365312D01*
X146280688Y-69497770D01*
X146384766Y-69653534D01*
X146456454Y-69826604D01*
X146493000Y-70010333D01*
X146493000Y-70197667D01*
X146456454Y-70381396D01*
X146384766Y-70554466D01*
X146280688Y-70710230D01*
X146148230Y-70842688D01*
X145992466Y-70946766D01*
X145819396Y-71018454D01*
X145635667Y-71055000D01*
X145448333Y-71055000D01*
X145264604Y-71018454D01*
X145091534Y-70946766D01*
X144935770Y-70842688D01*
X144803312Y-70710230D01*
X144699234Y-70554466D01*
X144627546Y-70381396D01*
X144591000Y-70197667D01*
X144591000Y-70010333D01*
X144627546Y-69826604D01*
X144699234Y-69653534D01*
X144803312Y-69497770D01*
X144935770Y-69365312D01*
X145091534Y-69261234D01*
X145264604Y-69189546D01*
X145448333Y-69153000D01*
X145635667Y-69153000D01*
X145819396Y-69189546D01*
X145819396Y-69189546D01*
G37*
G36*
X140739396Y-69189546D02*
X140912466Y-69261234D01*
X141068230Y-69365312D01*
X141200688Y-69497770D01*
X141304766Y-69653534D01*
X141376454Y-69826604D01*
X141413000Y-70010333D01*
X141413000Y-70197667D01*
X141376454Y-70381396D01*
X141304766Y-70554466D01*
X141200688Y-70710230D01*
X141068230Y-70842688D01*
X140912466Y-70946766D01*
X140739396Y-71018454D01*
X140555667Y-71055000D01*
X140368333Y-71055000D01*
X140184604Y-71018454D01*
X140011534Y-70946766D01*
X139855770Y-70842688D01*
X139723312Y-70710230D01*
X139619234Y-70554466D01*
X139547546Y-70381396D01*
X139511000Y-70197667D01*
X139511000Y-70010333D01*
X139547546Y-69826604D01*
X139619234Y-69653534D01*
X139723312Y-69497770D01*
X139855770Y-69365312D01*
X140011534Y-69261234D01*
X140184604Y-69189546D01*
X140368333Y-69153000D01*
X140555667Y-69153000D01*
X140739396Y-69189546D01*
X140739396Y-69189546D01*
G37*
G36*
X135659396Y-69189546D02*
X135832466Y-69261234D01*
X135988230Y-69365312D01*
X136120688Y-69497770D01*
X136224766Y-69653534D01*
X136296454Y-69826604D01*
X136333000Y-70010333D01*
X136333000Y-70197667D01*
X136296454Y-70381396D01*
X136224766Y-70554466D01*
X136120688Y-70710230D01*
X135988230Y-70842688D01*
X135832466Y-70946766D01*
X135659396Y-71018454D01*
X135475667Y-71055000D01*
X135288333Y-71055000D01*
X135104604Y-71018454D01*
X134931534Y-70946766D01*
X134775770Y-70842688D01*
X134643312Y-70710230D01*
X134539234Y-70554466D01*
X134467546Y-70381396D01*
X134431000Y-70197667D01*
X134431000Y-70010333D01*
X134467546Y-69826604D01*
X134539234Y-69653534D01*
X134643312Y-69497770D01*
X134775770Y-69365312D01*
X134931534Y-69261234D01*
X135104604Y-69189546D01*
X135288333Y-69153000D01*
X135475667Y-69153000D01*
X135659396Y-69189546D01*
X135659396Y-69189546D01*
G37*
G36*
X121689396Y-69189546D02*
X121862466Y-69261234D01*
X122018230Y-69365312D01*
X122150688Y-69497770D01*
X122254766Y-69653534D01*
X122326454Y-69826604D01*
X122363000Y-70010333D01*
X122363000Y-70197667D01*
X122326454Y-70381396D01*
X122254766Y-70554466D01*
X122150688Y-70710230D01*
X122018230Y-70842688D01*
X121862466Y-70946766D01*
X121689396Y-71018454D01*
X121505667Y-71055000D01*
X121318333Y-71055000D01*
X121134604Y-71018454D01*
X120961534Y-70946766D01*
X120805770Y-70842688D01*
X120673312Y-70710230D01*
X120569234Y-70554466D01*
X120497546Y-70381396D01*
X120461000Y-70197667D01*
X120461000Y-70010333D01*
X120497546Y-69826604D01*
X120569234Y-69653534D01*
X120673312Y-69497770D01*
X120805770Y-69365312D01*
X120961534Y-69261234D01*
X121134604Y-69189546D01*
X121318333Y-69153000D01*
X121505667Y-69153000D01*
X121689396Y-69189546D01*
X121689396Y-69189546D01*
G37*
G36*
X116609396Y-69189546D02*
X116782466Y-69261234D01*
X116938230Y-69365312D01*
X117070688Y-69497770D01*
X117174766Y-69653534D01*
X117246454Y-69826604D01*
X117283000Y-70010333D01*
X117283000Y-70197667D01*
X117246454Y-70381396D01*
X117174766Y-70554466D01*
X117070688Y-70710230D01*
X116938230Y-70842688D01*
X116782466Y-70946766D01*
X116609396Y-71018454D01*
X116425667Y-71055000D01*
X116238333Y-71055000D01*
X116054604Y-71018454D01*
X115881534Y-70946766D01*
X115725770Y-70842688D01*
X115593312Y-70710230D01*
X115489234Y-70554466D01*
X115417546Y-70381396D01*
X115381000Y-70197667D01*
X115381000Y-70010333D01*
X115417546Y-69826604D01*
X115489234Y-69653534D01*
X115593312Y-69497770D01*
X115725770Y-69365312D01*
X115881534Y-69261234D01*
X116054604Y-69189546D01*
X116238333Y-69153000D01*
X116425667Y-69153000D01*
X116609396Y-69189546D01*
X116609396Y-69189546D01*
G37*
G36*
X111529396Y-69189546D02*
X111702466Y-69261234D01*
X111858230Y-69365312D01*
X111990688Y-69497770D01*
X112094766Y-69653534D01*
X112166454Y-69826604D01*
X112203000Y-70010333D01*
X112203000Y-70197667D01*
X112166454Y-70381396D01*
X112094766Y-70554466D01*
X111990688Y-70710230D01*
X111858230Y-70842688D01*
X111702466Y-70946766D01*
X111529396Y-71018454D01*
X111345667Y-71055000D01*
X111158333Y-71055000D01*
X110974604Y-71018454D01*
X110801534Y-70946766D01*
X110645770Y-70842688D01*
X110513312Y-70710230D01*
X110409234Y-70554466D01*
X110337546Y-70381396D01*
X110301000Y-70197667D01*
X110301000Y-70010333D01*
X110337546Y-69826604D01*
X110409234Y-69653534D01*
X110513312Y-69497770D01*
X110645770Y-69365312D01*
X110801534Y-69261234D01*
X110974604Y-69189546D01*
X111158333Y-69153000D01*
X111345667Y-69153000D01*
X111529396Y-69189546D01*
X111529396Y-69189546D01*
G37*
G36*
X106449396Y-69189546D02*
X106622466Y-69261234D01*
X106778230Y-69365312D01*
X106910688Y-69497770D01*
X107014766Y-69653534D01*
X107086454Y-69826604D01*
X107123000Y-70010333D01*
X107123000Y-70197667D01*
X107086454Y-70381396D01*
X107014766Y-70554466D01*
X106910688Y-70710230D01*
X106778230Y-70842688D01*
X106622466Y-70946766D01*
X106449396Y-71018454D01*
X106265667Y-71055000D01*
X106078333Y-71055000D01*
X105894604Y-71018454D01*
X105721534Y-70946766D01*
X105565770Y-70842688D01*
X105433312Y-70710230D01*
X105329234Y-70554466D01*
X105257546Y-70381396D01*
X105221000Y-70197667D01*
X105221000Y-70010333D01*
X105257546Y-69826604D01*
X105329234Y-69653534D01*
X105433312Y-69497770D01*
X105565770Y-69365312D01*
X105721534Y-69261234D01*
X105894604Y-69189546D01*
X106078333Y-69153000D01*
X106265667Y-69153000D01*
X106449396Y-69189546D01*
X106449396Y-69189546D01*
G37*
G36*
X130579396Y-69189546D02*
X130752466Y-69261234D01*
X130908230Y-69365312D01*
X131040688Y-69497770D01*
X131144766Y-69653534D01*
X131216454Y-69826604D01*
X131253000Y-70010333D01*
X131253000Y-70197667D01*
X131216454Y-70381396D01*
X131144766Y-70554466D01*
X131040688Y-70710230D01*
X130908230Y-70842688D01*
X130752466Y-70946766D01*
X130579396Y-71018454D01*
X130395667Y-71055000D01*
X130208333Y-71055000D01*
X130024604Y-71018454D01*
X129851534Y-70946766D01*
X129695770Y-70842688D01*
X129563312Y-70710230D01*
X129459234Y-70554466D01*
X129387546Y-70381396D01*
X129351000Y-70197667D01*
X129351000Y-70010333D01*
X129387546Y-69826604D01*
X129459234Y-69653534D01*
X129563312Y-69497770D01*
X129695770Y-69365312D01*
X129851534Y-69261234D01*
X130024604Y-69189546D01*
X130208333Y-69153000D01*
X130395667Y-69153000D01*
X130579396Y-69189546D01*
X130579396Y-69189546D01*
G37*
G36*
X96630443Y-68955519D02*
X96696627Y-68962037D01*
X96809853Y-68996384D01*
X96866467Y-69013557D01*
X97005087Y-69087652D01*
X97022991Y-69097222D01*
X97058729Y-69126552D01*
X97160186Y-69209814D01*
X97202385Y-69261235D01*
X97272778Y-69347009D01*
X97272779Y-69347011D01*
X97356443Y-69503533D01*
X97356443Y-69503534D01*
X97407963Y-69673373D01*
X97425359Y-69850000D01*
X97407963Y-70026627D01*
X97373616Y-70139853D01*
X97356443Y-70196467D01*
X97282348Y-70335087D01*
X97272778Y-70352991D01*
X97268667Y-70358000D01*
X97160186Y-70490186D01*
X97081859Y-70554466D01*
X97022991Y-70602778D01*
X97022989Y-70602779D01*
X96866467Y-70686443D01*
X96809853Y-70703616D01*
X96696627Y-70737963D01*
X96630443Y-70744481D01*
X96564260Y-70751000D01*
X96475740Y-70751000D01*
X96409557Y-70744481D01*
X96343373Y-70737963D01*
X96230147Y-70703616D01*
X96173533Y-70686443D01*
X96017011Y-70602779D01*
X96017009Y-70602778D01*
X95958141Y-70554466D01*
X95879814Y-70490186D01*
X95771333Y-70358000D01*
X95767222Y-70352991D01*
X95757652Y-70335087D01*
X95683557Y-70196467D01*
X95666384Y-70139853D01*
X95632037Y-70026627D01*
X95614641Y-69850000D01*
X95632037Y-69673373D01*
X95683557Y-69503534D01*
X95683557Y-69503533D01*
X95767221Y-69347011D01*
X95767222Y-69347009D01*
X95837615Y-69261235D01*
X95879814Y-69209814D01*
X95981271Y-69126552D01*
X96017009Y-69097222D01*
X96034913Y-69087652D01*
X96173533Y-69013557D01*
X96230147Y-68996384D01*
X96343373Y-68962037D01*
X96409557Y-68955519D01*
X96475740Y-68949000D01*
X96564260Y-68949000D01*
X96630443Y-68955519D01*
X96630443Y-68955519D01*
G37*
G36*
X159678821Y-68249313D02*
X159678824Y-68249314D01*
X159678825Y-68249314D01*
X159839239Y-68297975D01*
X159839241Y-68297976D01*
X159839244Y-68297977D01*
X159987078Y-68376995D01*
X160116659Y-68483341D01*
X160223005Y-68612922D01*
X160302023Y-68760756D01*
X160350687Y-68921179D01*
X160367117Y-69088000D01*
X160350687Y-69254821D01*
X160350686Y-69254824D01*
X160350686Y-69254825D01*
X160317171Y-69365310D01*
X160302023Y-69415244D01*
X160223005Y-69563078D01*
X160116659Y-69692659D01*
X159987078Y-69799005D01*
X159839244Y-69878023D01*
X159839241Y-69878024D01*
X159839239Y-69878025D01*
X159678825Y-69926686D01*
X159678824Y-69926686D01*
X159678821Y-69926687D01*
X159553804Y-69939000D01*
X159470196Y-69939000D01*
X159345179Y-69926687D01*
X159345176Y-69926686D01*
X159345175Y-69926686D01*
X159184761Y-69878025D01*
X159184759Y-69878024D01*
X159184756Y-69878023D01*
X159036922Y-69799005D01*
X158907341Y-69692659D01*
X158800995Y-69563078D01*
X158721977Y-69415244D01*
X158706830Y-69365310D01*
X158673314Y-69254825D01*
X158673314Y-69254824D01*
X158673313Y-69254821D01*
X158656883Y-69088000D01*
X158673313Y-68921179D01*
X158721977Y-68760756D01*
X158800995Y-68612922D01*
X158907341Y-68483341D01*
X159036922Y-68376995D01*
X159184756Y-68297977D01*
X159184759Y-68297976D01*
X159184761Y-68297975D01*
X159345175Y-68249314D01*
X159345176Y-68249314D01*
X159345179Y-68249313D01*
X159470196Y-68237000D01*
X159553804Y-68237000D01*
X159678821Y-68249313D01*
X159678821Y-68249313D01*
G37*
G36*
X152743000Y-69939000D02*
X151041000Y-69939000D01*
X151041000Y-68237000D01*
X152743000Y-68237000D01*
X152743000Y-69939000D01*
X152743000Y-69939000D01*
G37*
G36*
X163686443Y-66923519D02*
X163752627Y-66930037D01*
X163863049Y-66963533D01*
X163922467Y-66981557D01*
X164061087Y-67055652D01*
X164078991Y-67065222D01*
X164114729Y-67094552D01*
X164216186Y-67177814D01*
X164299448Y-67279271D01*
X164328778Y-67315009D01*
X164328779Y-67315011D01*
X164412443Y-67471533D01*
X164429616Y-67528147D01*
X164463963Y-67641373D01*
X164481359Y-67818000D01*
X164463963Y-67994627D01*
X164443289Y-68062779D01*
X164412443Y-68164467D01*
X164341080Y-68297975D01*
X164328778Y-68320991D01*
X164299448Y-68356729D01*
X164216186Y-68458186D01*
X164114729Y-68541448D01*
X164078991Y-68570778D01*
X164078989Y-68570779D01*
X163922467Y-68654443D01*
X163865853Y-68671616D01*
X163752627Y-68705963D01*
X163686443Y-68712481D01*
X163620260Y-68719000D01*
X163531740Y-68719000D01*
X163465557Y-68712481D01*
X163399373Y-68705963D01*
X163286147Y-68671616D01*
X163229533Y-68654443D01*
X163073011Y-68570779D01*
X163073009Y-68570778D01*
X163037271Y-68541448D01*
X162935814Y-68458186D01*
X162852552Y-68356729D01*
X162823222Y-68320991D01*
X162810920Y-68297975D01*
X162739557Y-68164467D01*
X162708711Y-68062779D01*
X162688037Y-67994627D01*
X162670641Y-67818000D01*
X162688037Y-67641373D01*
X162722384Y-67528147D01*
X162739557Y-67471533D01*
X162823221Y-67315011D01*
X162823222Y-67315009D01*
X162852552Y-67279271D01*
X162935814Y-67177814D01*
X163037271Y-67094552D01*
X163073009Y-67065222D01*
X163090913Y-67055652D01*
X163229533Y-66981557D01*
X163288951Y-66963533D01*
X163399373Y-66930037D01*
X163465557Y-66923519D01*
X163531740Y-66917000D01*
X163620260Y-66917000D01*
X163686443Y-66923519D01*
X163686443Y-66923519D01*
G37*
G36*
X96630443Y-66415519D02*
X96696627Y-66422037D01*
X96809853Y-66456384D01*
X96866467Y-66473557D01*
X97005087Y-66547652D01*
X97022991Y-66557222D01*
X97058729Y-66586552D01*
X97160186Y-66669814D01*
X97243448Y-66771271D01*
X97272778Y-66807009D01*
X97272779Y-66807011D01*
X97356443Y-66963533D01*
X97356443Y-66963534D01*
X97407963Y-67133373D01*
X97425359Y-67310000D01*
X97407963Y-67486627D01*
X97373616Y-67599853D01*
X97356443Y-67656467D01*
X97282348Y-67795087D01*
X97272778Y-67812991D01*
X97268667Y-67818000D01*
X97160186Y-67950186D01*
X97058729Y-68033448D01*
X97022991Y-68062778D01*
X97022989Y-68062779D01*
X96866467Y-68146443D01*
X96809853Y-68163616D01*
X96696627Y-68197963D01*
X96630443Y-68204481D01*
X96564260Y-68211000D01*
X96475740Y-68211000D01*
X96409557Y-68204481D01*
X96343373Y-68197963D01*
X96230147Y-68163616D01*
X96173533Y-68146443D01*
X96017011Y-68062779D01*
X96017009Y-68062778D01*
X95981271Y-68033448D01*
X95879814Y-67950186D01*
X95771333Y-67818000D01*
X95767222Y-67812991D01*
X95757652Y-67795087D01*
X95683557Y-67656467D01*
X95666384Y-67599853D01*
X95632037Y-67486627D01*
X95614641Y-67310000D01*
X95632037Y-67133373D01*
X95683557Y-66963534D01*
X95683557Y-66963533D01*
X95767221Y-66807011D01*
X95767222Y-66807009D01*
X95796552Y-66771271D01*
X95879814Y-66669814D01*
X95981271Y-66586552D01*
X96017009Y-66557222D01*
X96034913Y-66547652D01*
X96173533Y-66473557D01*
X96230147Y-66456384D01*
X96343373Y-66422037D01*
X96409557Y-66415519D01*
X96475740Y-66409000D01*
X96564260Y-66409000D01*
X96630443Y-66415519D01*
X96630443Y-66415519D01*
G37*
G36*
X163686443Y-64383519D02*
X163752627Y-64390037D01*
X163863049Y-64423533D01*
X163922467Y-64441557D01*
X163924719Y-64442761D01*
X164078991Y-64525222D01*
X164114729Y-64554552D01*
X164216186Y-64637814D01*
X164299448Y-64739271D01*
X164328778Y-64775009D01*
X164328779Y-64775011D01*
X164412443Y-64931533D01*
X164429616Y-64988147D01*
X164463963Y-65101373D01*
X164481359Y-65278000D01*
X164463963Y-65454627D01*
X164431991Y-65560025D01*
X164412443Y-65624467D01*
X164387570Y-65671000D01*
X164328778Y-65780991D01*
X164299448Y-65816729D01*
X164216186Y-65918186D01*
X164114729Y-66001448D01*
X164078991Y-66030778D01*
X164078989Y-66030779D01*
X163922467Y-66114443D01*
X163865853Y-66131616D01*
X163752627Y-66165963D01*
X163686442Y-66172482D01*
X163620260Y-66179000D01*
X163531740Y-66179000D01*
X163465558Y-66172482D01*
X163399373Y-66165963D01*
X163286147Y-66131616D01*
X163229533Y-66114443D01*
X163073011Y-66030779D01*
X163073009Y-66030778D01*
X163037271Y-66001448D01*
X162935814Y-65918186D01*
X162852552Y-65816729D01*
X162823222Y-65780991D01*
X162764430Y-65671000D01*
X162739557Y-65624467D01*
X162720009Y-65560025D01*
X162688037Y-65454627D01*
X162670641Y-65278000D01*
X162688037Y-65101373D01*
X162722384Y-64988147D01*
X162739557Y-64931533D01*
X162823221Y-64775011D01*
X162823222Y-64775009D01*
X162852552Y-64739271D01*
X162935814Y-64637814D01*
X163037271Y-64554552D01*
X163073009Y-64525222D01*
X163227281Y-64442761D01*
X163229533Y-64441557D01*
X163288951Y-64423533D01*
X163399373Y-64390037D01*
X163465557Y-64383519D01*
X163531740Y-64377000D01*
X163620260Y-64377000D01*
X163686443Y-64383519D01*
X163686443Y-64383519D01*
G37*
G36*
X96630442Y-63875518D02*
X96696627Y-63882037D01*
X96809853Y-63916384D01*
X96866467Y-63933557D01*
X96953311Y-63979977D01*
X97022991Y-64017222D01*
X97058729Y-64046552D01*
X97160186Y-64129814D01*
X97243448Y-64231271D01*
X97272778Y-64267009D01*
X97272779Y-64267011D01*
X97356443Y-64423533D01*
X97373616Y-64480147D01*
X97407963Y-64593373D01*
X97425359Y-64770000D01*
X97407963Y-64946627D01*
X97373616Y-65059853D01*
X97356443Y-65116467D01*
X97287698Y-65245078D01*
X97272778Y-65272991D01*
X97268667Y-65278000D01*
X97160186Y-65410186D01*
X97058729Y-65493448D01*
X97022991Y-65522778D01*
X97022989Y-65522779D01*
X96866467Y-65606443D01*
X96859069Y-65608687D01*
X96696627Y-65657963D01*
X96630442Y-65664482D01*
X96564260Y-65671000D01*
X96475740Y-65671000D01*
X96409558Y-65664482D01*
X96343373Y-65657963D01*
X96180931Y-65608687D01*
X96173533Y-65606443D01*
X96017011Y-65522779D01*
X96017009Y-65522778D01*
X95981271Y-65493448D01*
X95879814Y-65410186D01*
X95771333Y-65278000D01*
X95767222Y-65272991D01*
X95752302Y-65245078D01*
X95683557Y-65116467D01*
X95666384Y-65059853D01*
X95632037Y-64946627D01*
X95614641Y-64770000D01*
X95632037Y-64593373D01*
X95666384Y-64480147D01*
X95683557Y-64423533D01*
X95767221Y-64267011D01*
X95767222Y-64267009D01*
X95796552Y-64231271D01*
X95879814Y-64129814D01*
X95981271Y-64046552D01*
X96017009Y-64017222D01*
X96086689Y-63979977D01*
X96173533Y-63933557D01*
X96230147Y-63916384D01*
X96343373Y-63882037D01*
X96409558Y-63875518D01*
X96475740Y-63869000D01*
X96564260Y-63869000D01*
X96630442Y-63875518D01*
X96630442Y-63875518D01*
G37*
G36*
X159678821Y-63931313D02*
X159678824Y-63931314D01*
X159678825Y-63931314D01*
X159839239Y-63979975D01*
X159839241Y-63979976D01*
X159839244Y-63979977D01*
X159987078Y-64058995D01*
X160116659Y-64165341D01*
X160223005Y-64294922D01*
X160302023Y-64442756D01*
X160302024Y-64442759D01*
X160302025Y-64442761D01*
X160347713Y-64593375D01*
X160350687Y-64603179D01*
X160367117Y-64770000D01*
X160350687Y-64936821D01*
X160350686Y-64936824D01*
X160350686Y-64936825D01*
X160347713Y-64946627D01*
X160302023Y-65097244D01*
X160223005Y-65245078D01*
X160116659Y-65374659D01*
X159987078Y-65481005D01*
X159839244Y-65560023D01*
X159839241Y-65560024D01*
X159839239Y-65560025D01*
X159678825Y-65608686D01*
X159678824Y-65608686D01*
X159678821Y-65608687D01*
X159553804Y-65621000D01*
X159470196Y-65621000D01*
X159345179Y-65608687D01*
X159345176Y-65608686D01*
X159345175Y-65608686D01*
X159184761Y-65560025D01*
X159184759Y-65560024D01*
X159184756Y-65560023D01*
X159036922Y-65481005D01*
X158907341Y-65374659D01*
X158800995Y-65245078D01*
X158721977Y-65097244D01*
X158676288Y-64946627D01*
X158673314Y-64936825D01*
X158673314Y-64936824D01*
X158673313Y-64936821D01*
X158656883Y-64770000D01*
X158673313Y-64603179D01*
X158676287Y-64593375D01*
X158721975Y-64442761D01*
X158721976Y-64442759D01*
X158721977Y-64442756D01*
X158800995Y-64294922D01*
X158907341Y-64165341D01*
X159036922Y-64058995D01*
X159184756Y-63979977D01*
X159184759Y-63979976D01*
X159184761Y-63979975D01*
X159345175Y-63931314D01*
X159345176Y-63931314D01*
X159345179Y-63931313D01*
X159470196Y-63919000D01*
X159553804Y-63919000D01*
X159678821Y-63931313D01*
X159678821Y-63931313D01*
G37*
G36*
X152743000Y-65621000D02*
X151041000Y-65621000D01*
X151041000Y-63919000D01*
X152743000Y-63919000D01*
X152743000Y-65621000D01*
X152743000Y-65621000D01*
G37*
G36*
X111529396Y-61823546D02*
X111702466Y-61895234D01*
X111858230Y-61999312D01*
X111990688Y-62131770D01*
X112094766Y-62287534D01*
X112166454Y-62460604D01*
X112203000Y-62644333D01*
X112203000Y-62831667D01*
X112166454Y-63015396D01*
X112094766Y-63188466D01*
X111990688Y-63344230D01*
X111858230Y-63476688D01*
X111702466Y-63580766D01*
X111529396Y-63652454D01*
X111345667Y-63689000D01*
X111158333Y-63689000D01*
X110974604Y-63652454D01*
X110801534Y-63580766D01*
X110645770Y-63476688D01*
X110513312Y-63344230D01*
X110409234Y-63188466D01*
X110337546Y-63015396D01*
X110301000Y-62831667D01*
X110301000Y-62644333D01*
X110337546Y-62460604D01*
X110409234Y-62287534D01*
X110513312Y-62131770D01*
X110645770Y-61999312D01*
X110801534Y-61895234D01*
X110974604Y-61823546D01*
X111158333Y-61787000D01*
X111345667Y-61787000D01*
X111529396Y-61823546D01*
X111529396Y-61823546D01*
G37*
G36*
X130579396Y-61823546D02*
X130752466Y-61895234D01*
X130908230Y-61999312D01*
X131040688Y-62131770D01*
X131144766Y-62287534D01*
X131216454Y-62460604D01*
X131253000Y-62644333D01*
X131253000Y-62831667D01*
X131216454Y-63015396D01*
X131144766Y-63188466D01*
X131040688Y-63344230D01*
X130908230Y-63476688D01*
X130752466Y-63580766D01*
X130579396Y-63652454D01*
X130395667Y-63689000D01*
X130208333Y-63689000D01*
X130024604Y-63652454D01*
X129851534Y-63580766D01*
X129695770Y-63476688D01*
X129563312Y-63344230D01*
X129459234Y-63188466D01*
X129387546Y-63015396D01*
X129351000Y-62831667D01*
X129351000Y-62644333D01*
X129387546Y-62460604D01*
X129459234Y-62287534D01*
X129563312Y-62131770D01*
X129695770Y-61999312D01*
X129851534Y-61895234D01*
X130024604Y-61823546D01*
X130208333Y-61787000D01*
X130395667Y-61787000D01*
X130579396Y-61823546D01*
X130579396Y-61823546D01*
G37*
G36*
X116609396Y-61823546D02*
X116782466Y-61895234D01*
X116938230Y-61999312D01*
X117070688Y-62131770D01*
X117174766Y-62287534D01*
X117246454Y-62460604D01*
X117283000Y-62644333D01*
X117283000Y-62831667D01*
X117246454Y-63015396D01*
X117174766Y-63188466D01*
X117070688Y-63344230D01*
X116938230Y-63476688D01*
X116782466Y-63580766D01*
X116609396Y-63652454D01*
X116425667Y-63689000D01*
X116238333Y-63689000D01*
X116054604Y-63652454D01*
X115881534Y-63580766D01*
X115725770Y-63476688D01*
X115593312Y-63344230D01*
X115489234Y-63188466D01*
X115417546Y-63015396D01*
X115381000Y-62831667D01*
X115381000Y-62644333D01*
X115417546Y-62460604D01*
X115489234Y-62287534D01*
X115593312Y-62131770D01*
X115725770Y-61999312D01*
X115881534Y-61895234D01*
X116054604Y-61823546D01*
X116238333Y-61787000D01*
X116425667Y-61787000D01*
X116609396Y-61823546D01*
X116609396Y-61823546D01*
G37*
G36*
X121689396Y-61823546D02*
X121862466Y-61895234D01*
X122018230Y-61999312D01*
X122150688Y-62131770D01*
X122254766Y-62287534D01*
X122326454Y-62460604D01*
X122363000Y-62644333D01*
X122363000Y-62831667D01*
X122326454Y-63015396D01*
X122254766Y-63188466D01*
X122150688Y-63344230D01*
X122018230Y-63476688D01*
X121862466Y-63580766D01*
X121689396Y-63652454D01*
X121505667Y-63689000D01*
X121318333Y-63689000D01*
X121134604Y-63652454D01*
X120961534Y-63580766D01*
X120805770Y-63476688D01*
X120673312Y-63344230D01*
X120569234Y-63188466D01*
X120497546Y-63015396D01*
X120461000Y-62831667D01*
X120461000Y-62644333D01*
X120497546Y-62460604D01*
X120569234Y-62287534D01*
X120673312Y-62131770D01*
X120805770Y-61999312D01*
X120961534Y-61895234D01*
X121134604Y-61823546D01*
X121318333Y-61787000D01*
X121505667Y-61787000D01*
X121689396Y-61823546D01*
X121689396Y-61823546D01*
G37*
G36*
X124229396Y-61823546D02*
X124402466Y-61895234D01*
X124558230Y-61999312D01*
X124690688Y-62131770D01*
X124794766Y-62287534D01*
X124866454Y-62460604D01*
X124903000Y-62644333D01*
X124903000Y-62831667D01*
X124866454Y-63015396D01*
X124794766Y-63188466D01*
X124690688Y-63344230D01*
X124558230Y-63476688D01*
X124402466Y-63580766D01*
X124229396Y-63652454D01*
X124045667Y-63689000D01*
X123858333Y-63689000D01*
X123674604Y-63652454D01*
X123501534Y-63580766D01*
X123345770Y-63476688D01*
X123213312Y-63344230D01*
X123109234Y-63188466D01*
X123037546Y-63015396D01*
X123001000Y-62831667D01*
X123001000Y-62644333D01*
X123037546Y-62460604D01*
X123109234Y-62287534D01*
X123213312Y-62131770D01*
X123345770Y-61999312D01*
X123501534Y-61895234D01*
X123674604Y-61823546D01*
X123858333Y-61787000D01*
X124045667Y-61787000D01*
X124229396Y-61823546D01*
X124229396Y-61823546D01*
G37*
G36*
X106449396Y-61823546D02*
X106622466Y-61895234D01*
X106778230Y-61999312D01*
X106910688Y-62131770D01*
X107014766Y-62287534D01*
X107086454Y-62460604D01*
X107123000Y-62644333D01*
X107123000Y-62831667D01*
X107086454Y-63015396D01*
X107014766Y-63188466D01*
X106910688Y-63344230D01*
X106778230Y-63476688D01*
X106622466Y-63580766D01*
X106449396Y-63652454D01*
X106265667Y-63689000D01*
X106078333Y-63689000D01*
X105894604Y-63652454D01*
X105721534Y-63580766D01*
X105565770Y-63476688D01*
X105433312Y-63344230D01*
X105329234Y-63188466D01*
X105257546Y-63015396D01*
X105221000Y-62831667D01*
X105221000Y-62644333D01*
X105257546Y-62460604D01*
X105329234Y-62287534D01*
X105433312Y-62131770D01*
X105565770Y-61999312D01*
X105721534Y-61895234D01*
X105894604Y-61823546D01*
X106078333Y-61787000D01*
X106265667Y-61787000D01*
X106449396Y-61823546D01*
X106449396Y-61823546D01*
G37*
G36*
X148359396Y-61823546D02*
X148532466Y-61895234D01*
X148688230Y-61999312D01*
X148820688Y-62131770D01*
X148924766Y-62287534D01*
X148996454Y-62460604D01*
X149033000Y-62644333D01*
X149033000Y-62831667D01*
X148996454Y-63015396D01*
X148924766Y-63188466D01*
X148820688Y-63344230D01*
X148688230Y-63476688D01*
X148532466Y-63580766D01*
X148359396Y-63652454D01*
X148175667Y-63689000D01*
X147988333Y-63689000D01*
X147804604Y-63652454D01*
X147631534Y-63580766D01*
X147475770Y-63476688D01*
X147343312Y-63344230D01*
X147239234Y-63188466D01*
X147167546Y-63015396D01*
X147131000Y-62831667D01*
X147131000Y-62644333D01*
X147167546Y-62460604D01*
X147239234Y-62287534D01*
X147343312Y-62131770D01*
X147475770Y-61999312D01*
X147631534Y-61895234D01*
X147804604Y-61823546D01*
X147988333Y-61787000D01*
X148175667Y-61787000D01*
X148359396Y-61823546D01*
X148359396Y-61823546D01*
G37*
G36*
X145819396Y-61823546D02*
X145992466Y-61895234D01*
X146148230Y-61999312D01*
X146280688Y-62131770D01*
X146384766Y-62287534D01*
X146456454Y-62460604D01*
X146493000Y-62644333D01*
X146493000Y-62831667D01*
X146456454Y-63015396D01*
X146384766Y-63188466D01*
X146280688Y-63344230D01*
X146148230Y-63476688D01*
X145992466Y-63580766D01*
X145819396Y-63652454D01*
X145635667Y-63689000D01*
X145448333Y-63689000D01*
X145264604Y-63652454D01*
X145091534Y-63580766D01*
X144935770Y-63476688D01*
X144803312Y-63344230D01*
X144699234Y-63188466D01*
X144627546Y-63015396D01*
X144591000Y-62831667D01*
X144591000Y-62644333D01*
X144627546Y-62460604D01*
X144699234Y-62287534D01*
X144803312Y-62131770D01*
X144935770Y-61999312D01*
X145091534Y-61895234D01*
X145264604Y-61823546D01*
X145448333Y-61787000D01*
X145635667Y-61787000D01*
X145819396Y-61823546D01*
X145819396Y-61823546D01*
G37*
G36*
X140739396Y-61823546D02*
X140912466Y-61895234D01*
X141068230Y-61999312D01*
X141200688Y-62131770D01*
X141304766Y-62287534D01*
X141376454Y-62460604D01*
X141413000Y-62644333D01*
X141413000Y-62831667D01*
X141376454Y-63015396D01*
X141304766Y-63188466D01*
X141200688Y-63344230D01*
X141068230Y-63476688D01*
X140912466Y-63580766D01*
X140739396Y-63652454D01*
X140555667Y-63689000D01*
X140368333Y-63689000D01*
X140184604Y-63652454D01*
X140011534Y-63580766D01*
X139855770Y-63476688D01*
X139723312Y-63344230D01*
X139619234Y-63188466D01*
X139547546Y-63015396D01*
X139511000Y-62831667D01*
X139511000Y-62644333D01*
X139547546Y-62460604D01*
X139619234Y-62287534D01*
X139723312Y-62131770D01*
X139855770Y-61999312D01*
X140011534Y-61895234D01*
X140184604Y-61823546D01*
X140368333Y-61787000D01*
X140555667Y-61787000D01*
X140739396Y-61823546D01*
X140739396Y-61823546D01*
G37*
G36*
X135659396Y-61823546D02*
X135832466Y-61895234D01*
X135988230Y-61999312D01*
X136120688Y-62131770D01*
X136224766Y-62287534D01*
X136296454Y-62460604D01*
X136333000Y-62644333D01*
X136333000Y-62831667D01*
X136296454Y-63015396D01*
X136224766Y-63188466D01*
X136120688Y-63344230D01*
X135988230Y-63476688D01*
X135832466Y-63580766D01*
X135659396Y-63652454D01*
X135475667Y-63689000D01*
X135288333Y-63689000D01*
X135104604Y-63652454D01*
X134931534Y-63580766D01*
X134775770Y-63476688D01*
X134643312Y-63344230D01*
X134539234Y-63188466D01*
X134467546Y-63015396D01*
X134431000Y-62831667D01*
X134431000Y-62644333D01*
X134467546Y-62460604D01*
X134539234Y-62287534D01*
X134643312Y-62131770D01*
X134775770Y-61999312D01*
X134931534Y-61895234D01*
X135104604Y-61823546D01*
X135288333Y-61787000D01*
X135475667Y-61787000D01*
X135659396Y-61823546D01*
X135659396Y-61823546D01*
G37*
G36*
X163686443Y-61843519D02*
X163752627Y-61850037D01*
X163863049Y-61883533D01*
X163922467Y-61901557D01*
X164061087Y-61975652D01*
X164078991Y-61985222D01*
X164114729Y-62014552D01*
X164216186Y-62097814D01*
X164299448Y-62199271D01*
X164328778Y-62235009D01*
X164328779Y-62235011D01*
X164412443Y-62391533D01*
X164429616Y-62448147D01*
X164463963Y-62561373D01*
X164481359Y-62738000D01*
X164463963Y-62914627D01*
X164443289Y-62982779D01*
X164412443Y-63084467D01*
X164356853Y-63188467D01*
X164328778Y-63240991D01*
X164299448Y-63276729D01*
X164216186Y-63378186D01*
X164114729Y-63461448D01*
X164078991Y-63490778D01*
X164078989Y-63490779D01*
X163922467Y-63574443D01*
X163901622Y-63580766D01*
X163752627Y-63625963D01*
X163686443Y-63632481D01*
X163620260Y-63639000D01*
X163531740Y-63639000D01*
X163465557Y-63632481D01*
X163399373Y-63625963D01*
X163250378Y-63580766D01*
X163229533Y-63574443D01*
X163073011Y-63490779D01*
X163073009Y-63490778D01*
X163037271Y-63461448D01*
X162935814Y-63378186D01*
X162852552Y-63276729D01*
X162823222Y-63240991D01*
X162795147Y-63188467D01*
X162739557Y-63084467D01*
X162708711Y-62982779D01*
X162688037Y-62914627D01*
X162670641Y-62738000D01*
X162688037Y-62561373D01*
X162722384Y-62448147D01*
X162739557Y-62391533D01*
X162823221Y-62235011D01*
X162823222Y-62235009D01*
X162852552Y-62199271D01*
X162935814Y-62097814D01*
X163037271Y-62014552D01*
X163073009Y-61985222D01*
X163090913Y-61975652D01*
X163229533Y-61901557D01*
X163288951Y-61883533D01*
X163399373Y-61850037D01*
X163465557Y-61843519D01*
X163531740Y-61837000D01*
X163620260Y-61837000D01*
X163686443Y-61843519D01*
X163686443Y-61843519D01*
G37*
G36*
X96630443Y-61335519D02*
X96696627Y-61342037D01*
X96809853Y-61376384D01*
X96866467Y-61393557D01*
X96910334Y-61417005D01*
X97022991Y-61477222D01*
X97045900Y-61496023D01*
X97160186Y-61589814D01*
X97243448Y-61691271D01*
X97272778Y-61727009D01*
X97272779Y-61727011D01*
X97356443Y-61883533D01*
X97361910Y-61901557D01*
X97407963Y-62053373D01*
X97425359Y-62230000D01*
X97407963Y-62406627D01*
X97391589Y-62460604D01*
X97356443Y-62576467D01*
X97320167Y-62644333D01*
X97272778Y-62732991D01*
X97268667Y-62738000D01*
X97160186Y-62870186D01*
X97058729Y-62953448D01*
X97022991Y-62982778D01*
X97022989Y-62982779D01*
X96866467Y-63066443D01*
X96809853Y-63083616D01*
X96696627Y-63117963D01*
X96630443Y-63124481D01*
X96564260Y-63131000D01*
X96475740Y-63131000D01*
X96409557Y-63124481D01*
X96343373Y-63117963D01*
X96230147Y-63083616D01*
X96173533Y-63066443D01*
X96017011Y-62982779D01*
X96017009Y-62982778D01*
X95981271Y-62953448D01*
X95879814Y-62870186D01*
X95771333Y-62738000D01*
X95767222Y-62732991D01*
X95719833Y-62644333D01*
X95683557Y-62576467D01*
X95648411Y-62460604D01*
X95632037Y-62406627D01*
X95614641Y-62230000D01*
X95632037Y-62053373D01*
X95678090Y-61901557D01*
X95683557Y-61883533D01*
X95767221Y-61727011D01*
X95767222Y-61727009D01*
X95796552Y-61691271D01*
X95879814Y-61589814D01*
X95994100Y-61496023D01*
X96017009Y-61477222D01*
X96129666Y-61417005D01*
X96173533Y-61393557D01*
X96230147Y-61376384D01*
X96343373Y-61342037D01*
X96409557Y-61335519D01*
X96475740Y-61329000D01*
X96564260Y-61329000D01*
X96630443Y-61335519D01*
X96630443Y-61335519D01*
G37*
G36*
X152743000Y-61557000D02*
X151041000Y-61557000D01*
X151041000Y-59855000D01*
X152743000Y-59855000D01*
X152743000Y-61557000D01*
X152743000Y-61557000D01*
G37*
G36*
X159678821Y-59867313D02*
X159678824Y-59867314D01*
X159678825Y-59867314D01*
X159839239Y-59915975D01*
X159839241Y-59915976D01*
X159839244Y-59915977D01*
X159987078Y-59994995D01*
X160116659Y-60101341D01*
X160223005Y-60230922D01*
X160302023Y-60378756D01*
X160350687Y-60539179D01*
X160367117Y-60706000D01*
X160350687Y-60872821D01*
X160302023Y-61033244D01*
X160223005Y-61181078D01*
X160116659Y-61310659D01*
X159987078Y-61417005D01*
X159839244Y-61496023D01*
X159839241Y-61496024D01*
X159839239Y-61496025D01*
X159678825Y-61544686D01*
X159678824Y-61544686D01*
X159678821Y-61544687D01*
X159553804Y-61557000D01*
X159470196Y-61557000D01*
X159345179Y-61544687D01*
X159345176Y-61544686D01*
X159345175Y-61544686D01*
X159184761Y-61496025D01*
X159184759Y-61496024D01*
X159184756Y-61496023D01*
X159036922Y-61417005D01*
X158907341Y-61310659D01*
X158800995Y-61181078D01*
X158721977Y-61033244D01*
X158673313Y-60872821D01*
X158656883Y-60706000D01*
X158673313Y-60539179D01*
X158721977Y-60378756D01*
X158800995Y-60230922D01*
X158907341Y-60101341D01*
X159036922Y-59994995D01*
X159184756Y-59915977D01*
X159184759Y-59915976D01*
X159184761Y-59915975D01*
X159345175Y-59867314D01*
X159345176Y-59867314D01*
X159345179Y-59867313D01*
X159470196Y-59855000D01*
X159553804Y-59855000D01*
X159678821Y-59867313D01*
X159678821Y-59867313D01*
G37*
G36*
X163686442Y-59303518D02*
X163752627Y-59310037D01*
X163865853Y-59344384D01*
X163922467Y-59361557D01*
X164061087Y-59435652D01*
X164078991Y-59445222D01*
X164114729Y-59474552D01*
X164216186Y-59557814D01*
X164299448Y-59659271D01*
X164328778Y-59695009D01*
X164328779Y-59695011D01*
X164412443Y-59851533D01*
X164417230Y-59867314D01*
X164463963Y-60021373D01*
X164481359Y-60198000D01*
X164463963Y-60374627D01*
X164429616Y-60487853D01*
X164412443Y-60544467D01*
X164338348Y-60683087D01*
X164328778Y-60700991D01*
X164324667Y-60706000D01*
X164216186Y-60838186D01*
X164114729Y-60921448D01*
X164078991Y-60950778D01*
X164078989Y-60950779D01*
X163922467Y-61034443D01*
X163865853Y-61051616D01*
X163752627Y-61085963D01*
X163686442Y-61092482D01*
X163620260Y-61099000D01*
X163531740Y-61099000D01*
X163465558Y-61092482D01*
X163399373Y-61085963D01*
X163286147Y-61051616D01*
X163229533Y-61034443D01*
X163073011Y-60950779D01*
X163073009Y-60950778D01*
X163037271Y-60921448D01*
X162935814Y-60838186D01*
X162827333Y-60706000D01*
X162823222Y-60700991D01*
X162813652Y-60683087D01*
X162739557Y-60544467D01*
X162722384Y-60487853D01*
X162688037Y-60374627D01*
X162670641Y-60198000D01*
X162688037Y-60021373D01*
X162734770Y-59867314D01*
X162739557Y-59851533D01*
X162823221Y-59695011D01*
X162823222Y-59695009D01*
X162852552Y-59659271D01*
X162935814Y-59557814D01*
X163037271Y-59474552D01*
X163073009Y-59445222D01*
X163090913Y-59435652D01*
X163229533Y-59361557D01*
X163286147Y-59344384D01*
X163399373Y-59310037D01*
X163465558Y-59303518D01*
X163531740Y-59297000D01*
X163620260Y-59297000D01*
X163686442Y-59303518D01*
X163686442Y-59303518D01*
G37*
G36*
X95602527Y-54368736D02*
X95702410Y-54388604D01*
X95984674Y-54505521D01*
X96238705Y-54675259D01*
X96454741Y-54891295D01*
X96624479Y-55145326D01*
X96741396Y-55427590D01*
X96741396Y-55427591D01*
X96801000Y-55727238D01*
X96801000Y-56032762D01*
X96763522Y-56221175D01*
X96741396Y-56332410D01*
X96624479Y-56614674D01*
X96454741Y-56868705D01*
X96238705Y-57084741D01*
X95984674Y-57254479D01*
X95702410Y-57371396D01*
X95602527Y-57391264D01*
X95402762Y-57431000D01*
X95097238Y-57431000D01*
X94897473Y-57391264D01*
X94797590Y-57371396D01*
X94515326Y-57254479D01*
X94261295Y-57084741D01*
X94045259Y-56868705D01*
X93875521Y-56614674D01*
X93758604Y-56332410D01*
X93736478Y-56221175D01*
X93699000Y-56032762D01*
X93699000Y-55727238D01*
X93758604Y-55427591D01*
X93758604Y-55427590D01*
X93875521Y-55145326D01*
X94045259Y-54891295D01*
X94261295Y-54675259D01*
X94515326Y-54505521D01*
X94797590Y-54388604D01*
X94897473Y-54368736D01*
X95097238Y-54329000D01*
X95402762Y-54329000D01*
X95602527Y-54368736D01*
X95602527Y-54368736D01*
G37*
G36*
X101881000Y-57431000D02*
X98779000Y-57431000D01*
X98779000Y-54329000D01*
X101881000Y-54329000D01*
X101881000Y-57431000D01*
X101881000Y-57431000D01*
G37*
G36*
X159678821Y-55549313D02*
X159678824Y-55549314D01*
X159678825Y-55549314D01*
X159839239Y-55597975D01*
X159839241Y-55597976D01*
X159839244Y-55597977D01*
X159987078Y-55676995D01*
X160116659Y-55783341D01*
X160223005Y-55912922D01*
X160302023Y-56060756D01*
X160350687Y-56221179D01*
X160367117Y-56388000D01*
X160350687Y-56554821D01*
X160350686Y-56554824D01*
X160350686Y-56554825D01*
X160332532Y-56614672D01*
X160302023Y-56715244D01*
X160223005Y-56863078D01*
X160116659Y-56992659D01*
X159987078Y-57099005D01*
X159839244Y-57178023D01*
X159839241Y-57178024D01*
X159839239Y-57178025D01*
X159678825Y-57226686D01*
X159678824Y-57226686D01*
X159678821Y-57226687D01*
X159553804Y-57239000D01*
X159470196Y-57239000D01*
X159345179Y-57226687D01*
X159345176Y-57226686D01*
X159345175Y-57226686D01*
X159184761Y-57178025D01*
X159184759Y-57178024D01*
X159184756Y-57178023D01*
X159036922Y-57099005D01*
X158907341Y-56992659D01*
X158800995Y-56863078D01*
X158721977Y-56715244D01*
X158691469Y-56614672D01*
X158673314Y-56554825D01*
X158673314Y-56554824D01*
X158673313Y-56554821D01*
X158656883Y-56388000D01*
X158673313Y-56221179D01*
X158721977Y-56060756D01*
X158800995Y-55912922D01*
X158907341Y-55783341D01*
X159036922Y-55676995D01*
X159184756Y-55597977D01*
X159184759Y-55597976D01*
X159184761Y-55597975D01*
X159345175Y-55549314D01*
X159345176Y-55549314D01*
X159345179Y-55549313D01*
X159470196Y-55537000D01*
X159553804Y-55537000D01*
X159678821Y-55549313D01*
X159678821Y-55549313D01*
G37*
G36*
X152743000Y-57239000D02*
X151041000Y-57239000D01*
X151041000Y-55537000D01*
X152743000Y-55537000D01*
X152743000Y-57239000D01*
X152743000Y-57239000D01*
G37*
G36*
X135659396Y-54203546D02*
X135832466Y-54275234D01*
X135988230Y-54379312D01*
X136120688Y-54511770D01*
X136224766Y-54667534D01*
X136296454Y-54840604D01*
X136333000Y-55024333D01*
X136333000Y-55211667D01*
X136296454Y-55395396D01*
X136224766Y-55568466D01*
X136120688Y-55724230D01*
X135988230Y-55856688D01*
X135832466Y-55960766D01*
X135659396Y-56032454D01*
X135475667Y-56069000D01*
X135288333Y-56069000D01*
X135104604Y-56032454D01*
X134931534Y-55960766D01*
X134775770Y-55856688D01*
X134643312Y-55724230D01*
X134539234Y-55568466D01*
X134467546Y-55395396D01*
X134431000Y-55211667D01*
X134431000Y-55024333D01*
X134467546Y-54840604D01*
X134539234Y-54667534D01*
X134643312Y-54511770D01*
X134775770Y-54379312D01*
X134931534Y-54275234D01*
X135104604Y-54203546D01*
X135288333Y-54167000D01*
X135475667Y-54167000D01*
X135659396Y-54203546D01*
X135659396Y-54203546D01*
G37*
G36*
X148359396Y-54203546D02*
X148532466Y-54275234D01*
X148688230Y-54379312D01*
X148820688Y-54511770D01*
X148924766Y-54667534D01*
X148996454Y-54840604D01*
X149033000Y-55024333D01*
X149033000Y-55211667D01*
X148996454Y-55395396D01*
X148924766Y-55568466D01*
X148820688Y-55724230D01*
X148688230Y-55856688D01*
X148532466Y-55960766D01*
X148359396Y-56032454D01*
X148175667Y-56069000D01*
X147988333Y-56069000D01*
X147804604Y-56032454D01*
X147631534Y-55960766D01*
X147475770Y-55856688D01*
X147343312Y-55724230D01*
X147239234Y-55568466D01*
X147167546Y-55395396D01*
X147131000Y-55211667D01*
X147131000Y-55024333D01*
X147167546Y-54840604D01*
X147239234Y-54667534D01*
X147343312Y-54511770D01*
X147475770Y-54379312D01*
X147631534Y-54275234D01*
X147804604Y-54203546D01*
X147988333Y-54167000D01*
X148175667Y-54167000D01*
X148359396Y-54203546D01*
X148359396Y-54203546D01*
G37*
G36*
X124229396Y-54203546D02*
X124402466Y-54275234D01*
X124558230Y-54379312D01*
X124690688Y-54511770D01*
X124794766Y-54667534D01*
X124866454Y-54840604D01*
X124903000Y-55024333D01*
X124903000Y-55211667D01*
X124866454Y-55395396D01*
X124794766Y-55568466D01*
X124690688Y-55724230D01*
X124558230Y-55856688D01*
X124402466Y-55960766D01*
X124229396Y-56032454D01*
X124045667Y-56069000D01*
X123858333Y-56069000D01*
X123674604Y-56032454D01*
X123501534Y-55960766D01*
X123345770Y-55856688D01*
X123213312Y-55724230D01*
X123109234Y-55568466D01*
X123037546Y-55395396D01*
X123001000Y-55211667D01*
X123001000Y-55024333D01*
X123037546Y-54840604D01*
X123109234Y-54667534D01*
X123213312Y-54511770D01*
X123345770Y-54379312D01*
X123501534Y-54275234D01*
X123674604Y-54203546D01*
X123858333Y-54167000D01*
X124045667Y-54167000D01*
X124229396Y-54203546D01*
X124229396Y-54203546D01*
G37*
G36*
X116609396Y-54203546D02*
X116782466Y-54275234D01*
X116938230Y-54379312D01*
X117070688Y-54511770D01*
X117174766Y-54667534D01*
X117246454Y-54840604D01*
X117283000Y-55024333D01*
X117283000Y-55211667D01*
X117246454Y-55395396D01*
X117174766Y-55568466D01*
X117070688Y-55724230D01*
X116938230Y-55856688D01*
X116782466Y-55960766D01*
X116609396Y-56032454D01*
X116425667Y-56069000D01*
X116238333Y-56069000D01*
X116054604Y-56032454D01*
X115881534Y-55960766D01*
X115725770Y-55856688D01*
X115593312Y-55724230D01*
X115489234Y-55568466D01*
X115417546Y-55395396D01*
X115381000Y-55211667D01*
X115381000Y-55024333D01*
X115417546Y-54840604D01*
X115489234Y-54667534D01*
X115593312Y-54511770D01*
X115725770Y-54379312D01*
X115881534Y-54275234D01*
X116054604Y-54203546D01*
X116238333Y-54167000D01*
X116425667Y-54167000D01*
X116609396Y-54203546D01*
X116609396Y-54203546D01*
G37*
G36*
X111529396Y-54203546D02*
X111702466Y-54275234D01*
X111858230Y-54379312D01*
X111990688Y-54511770D01*
X112094766Y-54667534D01*
X112166454Y-54840604D01*
X112203000Y-55024333D01*
X112203000Y-55211667D01*
X112166454Y-55395396D01*
X112094766Y-55568466D01*
X111990688Y-55724230D01*
X111858230Y-55856688D01*
X111702466Y-55960766D01*
X111529396Y-56032454D01*
X111345667Y-56069000D01*
X111158333Y-56069000D01*
X110974604Y-56032454D01*
X110801534Y-55960766D01*
X110645770Y-55856688D01*
X110513312Y-55724230D01*
X110409234Y-55568466D01*
X110337546Y-55395396D01*
X110301000Y-55211667D01*
X110301000Y-55024333D01*
X110337546Y-54840604D01*
X110409234Y-54667534D01*
X110513312Y-54511770D01*
X110645770Y-54379312D01*
X110801534Y-54275234D01*
X110974604Y-54203546D01*
X111158333Y-54167000D01*
X111345667Y-54167000D01*
X111529396Y-54203546D01*
X111529396Y-54203546D01*
G37*
G36*
X145819396Y-54203546D02*
X145992466Y-54275234D01*
X146148230Y-54379312D01*
X146280688Y-54511770D01*
X146384766Y-54667534D01*
X146456454Y-54840604D01*
X146493000Y-55024333D01*
X146493000Y-55211667D01*
X146456454Y-55395396D01*
X146384766Y-55568466D01*
X146280688Y-55724230D01*
X146148230Y-55856688D01*
X145992466Y-55960766D01*
X145819396Y-56032454D01*
X145635667Y-56069000D01*
X145448333Y-56069000D01*
X145264604Y-56032454D01*
X145091534Y-55960766D01*
X144935770Y-55856688D01*
X144803312Y-55724230D01*
X144699234Y-55568466D01*
X144627546Y-55395396D01*
X144591000Y-55211667D01*
X144591000Y-55024333D01*
X144627546Y-54840604D01*
X144699234Y-54667534D01*
X144803312Y-54511770D01*
X144935770Y-54379312D01*
X145091534Y-54275234D01*
X145264604Y-54203546D01*
X145448333Y-54167000D01*
X145635667Y-54167000D01*
X145819396Y-54203546D01*
X145819396Y-54203546D01*
G37*
G36*
X140739396Y-54203546D02*
X140912466Y-54275234D01*
X141068230Y-54379312D01*
X141200688Y-54511770D01*
X141304766Y-54667534D01*
X141376454Y-54840604D01*
X141413000Y-55024333D01*
X141413000Y-55211667D01*
X141376454Y-55395396D01*
X141304766Y-55568466D01*
X141200688Y-55724230D01*
X141068230Y-55856688D01*
X140912466Y-55960766D01*
X140739396Y-56032454D01*
X140555667Y-56069000D01*
X140368333Y-56069000D01*
X140184604Y-56032454D01*
X140011534Y-55960766D01*
X139855770Y-55856688D01*
X139723312Y-55724230D01*
X139619234Y-55568466D01*
X139547546Y-55395396D01*
X139511000Y-55211667D01*
X139511000Y-55024333D01*
X139547546Y-54840604D01*
X139619234Y-54667534D01*
X139723312Y-54511770D01*
X139855770Y-54379312D01*
X140011534Y-54275234D01*
X140184604Y-54203546D01*
X140368333Y-54167000D01*
X140555667Y-54167000D01*
X140739396Y-54203546D01*
X140739396Y-54203546D01*
G37*
G36*
X106449396Y-54203546D02*
X106622466Y-54275234D01*
X106778230Y-54379312D01*
X106910688Y-54511770D01*
X107014766Y-54667534D01*
X107086454Y-54840604D01*
X107123000Y-55024333D01*
X107123000Y-55211667D01*
X107086454Y-55395396D01*
X107014766Y-55568466D01*
X106910688Y-55724230D01*
X106778230Y-55856688D01*
X106622466Y-55960766D01*
X106449396Y-56032454D01*
X106265667Y-56069000D01*
X106078333Y-56069000D01*
X105894604Y-56032454D01*
X105721534Y-55960766D01*
X105565770Y-55856688D01*
X105433312Y-55724230D01*
X105329234Y-55568466D01*
X105257546Y-55395396D01*
X105221000Y-55211667D01*
X105221000Y-55024333D01*
X105257546Y-54840604D01*
X105329234Y-54667534D01*
X105433312Y-54511770D01*
X105565770Y-54379312D01*
X105721534Y-54275234D01*
X105894604Y-54203546D01*
X106078333Y-54167000D01*
X106265667Y-54167000D01*
X106449396Y-54203546D01*
X106449396Y-54203546D01*
G37*
G36*
X130579396Y-54203546D02*
X130752466Y-54275234D01*
X130908230Y-54379312D01*
X131040688Y-54511770D01*
X131144766Y-54667534D01*
X131216454Y-54840604D01*
X131253000Y-55024333D01*
X131253000Y-55211667D01*
X131216454Y-55395396D01*
X131144766Y-55568466D01*
X131040688Y-55724230D01*
X130908230Y-55856688D01*
X130752466Y-55960766D01*
X130579396Y-56032454D01*
X130395667Y-56069000D01*
X130208333Y-56069000D01*
X130024604Y-56032454D01*
X129851534Y-55960766D01*
X129695770Y-55856688D01*
X129563312Y-55724230D01*
X129459234Y-55568466D01*
X129387546Y-55395396D01*
X129351000Y-55211667D01*
X129351000Y-55024333D01*
X129387546Y-54840604D01*
X129459234Y-54667534D01*
X129563312Y-54511770D01*
X129695770Y-54379312D01*
X129851534Y-54275234D01*
X130024604Y-54203546D01*
X130208333Y-54167000D01*
X130395667Y-54167000D01*
X130579396Y-54203546D01*
X130579396Y-54203546D01*
G37*
G36*
X121689396Y-54203546D02*
X121862466Y-54275234D01*
X122018230Y-54379312D01*
X122150688Y-54511770D01*
X122254766Y-54667534D01*
X122326454Y-54840604D01*
X122363000Y-55024333D01*
X122363000Y-55211667D01*
X122326454Y-55395396D01*
X122254766Y-55568466D01*
X122150688Y-55724230D01*
X122018230Y-55856688D01*
X121862466Y-55960766D01*
X121689396Y-56032454D01*
X121505667Y-56069000D01*
X121318333Y-56069000D01*
X121134604Y-56032454D01*
X120961534Y-55960766D01*
X120805770Y-55856688D01*
X120673312Y-55724230D01*
X120569234Y-55568466D01*
X120497546Y-55395396D01*
X120461000Y-55211667D01*
X120461000Y-55024333D01*
X120497546Y-54840604D01*
X120569234Y-54667534D01*
X120673312Y-54511770D01*
X120805770Y-54379312D01*
X120961534Y-54275234D01*
X121134604Y-54203546D01*
X121318333Y-54167000D01*
X121505667Y-54167000D01*
X121689396Y-54203546D01*
X121689396Y-54203546D01*
G37*
G36*
X164320096Y-50379033D02*
X164320098Y-50379034D01*
X164320099Y-50379034D01*
X164784352Y-50571333D01*
X165200284Y-50849250D01*
X165202171Y-50850511D01*
X165557489Y-51205829D01*
X165557491Y-51205832D01*
X165836667Y-51623648D01*
X166028966Y-52087901D01*
X166127000Y-52580748D01*
X166127000Y-53083252D01*
X166028966Y-53576099D01*
X165836667Y-54040352D01*
X165679723Y-54275235D01*
X165557489Y-54458171D01*
X165202171Y-54813489D01*
X165202168Y-54813491D01*
X164784352Y-55092667D01*
X164320099Y-55284966D01*
X164320098Y-55284966D01*
X164320096Y-55284967D01*
X163827253Y-55383000D01*
X163324747Y-55383000D01*
X162831904Y-55284967D01*
X162831902Y-55284966D01*
X162831901Y-55284966D01*
X162367648Y-55092667D01*
X161949832Y-54813491D01*
X161949829Y-54813489D01*
X161594511Y-54458171D01*
X161472277Y-54275235D01*
X161315333Y-54040352D01*
X161123034Y-53576099D01*
X161025000Y-53083252D01*
X161025000Y-52580748D01*
X161123034Y-52087901D01*
X161315333Y-51623648D01*
X161594509Y-51205832D01*
X161594511Y-51205829D01*
X161949829Y-50850511D01*
X161951716Y-50849250D01*
X162367648Y-50571333D01*
X162831901Y-50379034D01*
X162831902Y-50379034D01*
X162831904Y-50379033D01*
X163324747Y-50281000D01*
X163827253Y-50281000D01*
X164320096Y-50379033D01*
X164320096Y-50379033D01*
G37*
M02*
